<?xml version="1.0" encoding="utf-8"?>
<!-- Generator: Adobe Illustrator 28.1.0, SVG Export Plug-In . SVG Version: 6.00 Build 0)  -->
<svg version="1.1"
	 id="svg3486" xmlns:sodipodi="http://sodipodi.sourceforge.net/DTD/sodipodi-0.dtd" xmlns:dc="http://purl.org/dc/elements/1.1/" xmlns:inkscape="http://www.inkscape.org/namespaces/inkscape" xmlns:svg="http://www.w3.org/2000/svg" xmlns:rdf="http://www.w3.org/1999/02/22-rdf-syntax-ns#" xmlns:cc="http://creativecommons.org/ns#" inkscape:export-filename="/home/system/mapasculturais_documentos/2015_mapasculturais_minas_gerais_BH/mapasculturaisThemeBH/assets/img/favicon.ico].png" inkscape:export-xdpi="90" inkscape:export-ydpi="90"
	 xmlns="http://www.w3.org/2000/svg" xmlns:xlink="http://www.w3.org/1999/xlink" x="0px" y="0px" viewBox="0 0 32 32"
	 style="enable-background:new 0 0 32 32;" xml:space="preserve">
<style type="text/css">
	.st0{fill-rule:evenodd;clip-rule:evenodd;fill:#FFFFFF;}
	.st1{fill:#8E7A39;}
	.st2{fill-rule:evenodd;clip-rule:evenodd;fill:#8E7A39;}
</style>
<path class="st0" d="M27.3,15.8c0.1-0.2,0.2-0.5,0.2-0.8c0-0.1,0-0.2,0-0.3c0-0.1,0-0.3,0-0.4c-0.1-0.3-0.2-0.6-0.5-0.8c0,0,0,0,0,0
	c0.1-0.5,0-0.9-0.3-1.3c0-0.1,0-0.2,0-0.3c0-0.2-0.1-0.4-0.2-0.7c0,0,0-0.1-0.1-0.1c0-0.4-0.2-0.8-0.4-1.2c0-0.5-0.2-0.9-0.5-1.2
	c-0.1-0.2-0.2-0.4-0.3-0.6c0,0,0,0-0.1-0.1c0-0.3-0.2-0.5-0.3-0.7c-0.1-0.2-0.1-0.4-0.2-0.6c-0.2-0.2-0.4-0.4-0.6-0.6
	c-0.2-0.5-0.5-0.9-0.9-1.1C22.8,5.1,22.5,5,22.3,5c0-0.5-0.3-0.9-0.7-1.1c-0.1-0.3-0.4-0.6-0.7-0.8c-0.2-0.2-0.4-0.3-0.7-0.4
	c-0.2-0.1-0.4-0.2-0.7-0.2c0,0,0,0,0,0c-0.2-0.1-0.4-0.2-0.6-0.3C18.7,2.1,18.4,2,18.2,2c0,0,0,0,0,0c-0.1,0-0.2,0-0.3,0
	c0-0.1-0.1-0.1-0.1-0.2c-0.3-0.4-0.7-0.6-1.2-0.6h-1c-0.5,0-0.9,0.2-1.2,0.6c0,0.1-0.1,0.1-0.1,0.2c-0.1,0-0.2,0-0.3,0c0,0,0,0,0,0
	c-0.2,0-0.5,0.1-0.7,0.2c-0.2,0-0.4,0.1-0.6,0.3c0,0,0,0,0,0c-0.3,0-0.5,0.1-0.7,0.2c-0.3,0.1-0.5,0.2-0.7,0.4
	c-0.3,0.2-0.6,0.5-0.7,0.8c-0.4,0.2-0.6,0.6-0.7,1c0,0-0.1,0-0.1,0c0,0,0,0,0,0c-0.5,0-0.9,0.3-1.2,0.7c0,0-0.1,0.1-0.1,0.1
	C8.2,5.8,8,6.1,7.9,6.4C7.8,6.5,7.7,6.6,7.5,6.7C7.2,7.1,7,7.6,7,8.1C6.9,8.2,6.7,8.3,6.6,8.5C6.5,8.6,6.5,8.7,6.4,8.8
	C6.3,9,6.2,9.2,6.1,9.4C6.1,9.4,6,9.5,6,9.6c0,0,0,0,0,0c-0.3,0.3-0.4,0.7-0.5,1.1c0,0.2,0,0.3,0,0.5c0,0,0,0,0,0
	c-0.3,0.3-0.5,0.8-0.5,1.2c0,0,0,0,0,0c-0.2,0.3-0.3,0.6-0.2,0.9c0,0.2,0.1,0.4,0.2,0.6c-0.3,0.4-0.4,0.8-0.4,1.2c0,0.2,0,0.4,0,0.6
	c-0.1,0.1-0.1,0.3-0.1,0.4c-0.1,0.6,0.1,1.1,0.5,1.6c0,0,0,0.1,0.1,0.1c-0.3,0.3-0.4,0.7-0.3,1.1l0.1,0.5c0,0.2,0.1,0.3,0.2,0.5
	c0,0.2,0,0.4,0.1,0.5c0,0,0,0,0,0c0,0.1,0,0.2,0.1,0.3c0.1,0.2,0.2,0.4,0.3,0.5c0,0.5,0.1,1.1,0.4,1.6c0,0.5,0.2,1,0.6,1.4
	c0.2,0.2,0.4,0.4,0.7,0.5c-0.1,0.5,0.1,0.9,0.4,1.2c0,0,0.1,0.1,0.1,0.1c0.1,0.2,0.4,0.4,0.6,0.5c0,0.2,0.1,0.3,0.2,0.5
	c0.1,0.2,0.3,0.4,0.4,0.5C9,27.8,9.2,27.9,9.3,28c0,0.1,0.1,0.1,0.1,0.2c0.2,0.3,0.6,0.6,0.7,0.7c0,0,0,0,0,0
	c0.2,0.2,0.4,0.4,0.5,0.5c0,0,0,0,0.1,0c0,0,0,0,0,0c0.2,0.2,0.4,0.3,0.6,0.4c0.1,0.1,0.2,0.1,0.3,0.2c0.1,0.1,0.1,0.1,0.2,0.2
	c0.2,0.2,0.5,0.3,0.8,0.3c0.1,0,0.1,0,0.2,0c0.3,0.2,0.6,0.3,1,0.4c0,0,0.1,0,0.1,0c0.2,0,0.4,0,0.6-0.1c0,0,0.1,0,0.1,0
	c0.2,0.1,0.3,0.2,0.5,0.2c0.2,0,0.3,0,0.4,0c0.2,0,0.3,0,0.5-0.1c0.1,0,0.3,0.1,0.5,0.1c0.1,0,0.3,0,0.4,0c0.2,0,0.4-0.1,0.5-0.2
	c0,0,0.1,0,0.1,0c0.2,0.1,0.4,0.1,0.6,0.1c0,0,0.1,0,0.1,0c0.5,0,0.9-0.3,1.2-0.6c0.1,0,0.2,0,0.2,0c0.1,0,0.3,0,0.4-0.1
	c0.4-0.1,0.8-0.5,1-0.9c0.2-0.1,0.3-0.3,0.5-0.4c0,0,0,0,0,0c0.5-0.2,0.9-0.5,1.2-1c0.1-0.1,0.1-0.2,0.1-0.3c0,0,0.1,0,0.1-0.1
	c0.1-0.1,0.2-0.2,0.3-0.3c0,0,0.1-0.1,0.1-0.1c0.2-0.2,0.3-0.4,0.4-0.6c0,0,0.1,0,0.1,0c0.4-0.3,0.7-0.8,0.8-1.2
	c0.1-0.1,0.1-0.2,0.1-0.3c0.1-0.1,0.2-0.2,0.2-0.4c0,0,0-0.1,0.1-0.1c0.2-0.2,0.2-0.4,0.3-0.7c0.1-0.1,0.2-0.2,0.3-0.4
	c0.1-0.1,0.2-0.2,0.2-0.3c0.3-0.5,0.3-1,0.1-1.5c0.4-0.3,0.6-0.7,0.7-1.1c0.1-0.3,0.1-0.6,0-0.9c0.3-0.6,0.3-1.3,0-1.9c0,0,0,0,0,0
	C27.2,16.8,27.3,16.3,27.3,15.8z"/>
<sodipodi:namedview  bordercolor="#666666" borderopacity="1.0" id="base" inkscape:current-layer="layer1" inkscape:cx="20.366209" inkscape:cy="11.967773" inkscape:document-units="px" inkscape:pageopacity="0" inkscape:pageshadow="2" inkscape:window-height="1041" inkscape:window-maximized="1" inkscape:window-width="1920" inkscape:window-x="1920" inkscape:window-y="0" inkscape:zoom="15.442434" pagecolor="#d4d4d4" showgrid="false">
	</sodipodi:namedview>
<g>
	<path class="st1" d="M18.4,7.7c-0.2,0-0.5,0-0.7-0.1c0,0,0,0,0,0l0-0.2c0-0.1-0.1-0.2-0.1-0.3c0,0,0,0,0,0c0.1-0.1,0.1-0.2,0.1-0.2
		c0,0,0,0,0,0c0,0,0,0,0,0c0,0,0,0,0,0c0.1,0,0.1,0,0.2-0.1c0,0,0,0,0,0c0,0,0,0,0,0c0.1,0.1,0.2,0.1,0.3,0c0,0,0,0,0,0c0,0,0,0,0,0
		c0,0.1,0,0.1,0.2,0.1c0,0,0,0,0,0c0,0,0,0,0,0c0,0,0,0,0,0c0,0.1-0.1,0.2,0.1,0.3c0,0,0,0,0,0c0,0,0,0,0,0
		c-0.1,0.2-0.1,0.3-0.1,0.4C18.4,7.7,18.5,7.7,18.4,7.7C18.5,7.7,18.5,7.7,18.4,7.7C18.5,7.7,18.5,7.7,18.4,7.7
		C18.5,7.7,18.4,7.7,18.4,7.7z M17.7,7.6c0.2,0.1,0.7,0.1,0.8,0.1c0,0-0.1-0.1-0.2-0.2c0-0.1,0-0.2,0.1-0.4
		c-0.1-0.1-0.1-0.2-0.1-0.3c0,0,0,0,0,0c-0.1,0-0.1,0-0.2-0.1c0,0.1-0.2,0.1-0.3,0c0,0,0,0,0,0c0,0-0.1,0.1-0.1,0.1c0,0,0,0,0,0
		c0,0,0,0,0,0c0,0,0,0.2-0.1,0.2c0,0.1,0.1,0.2,0.1,0.3L17.7,7.6z"/>
	<path class="st1" d="M19,8.4c-0.1,0-0.1,0-0.2,0c0,0,0,0,0,0c0,0,0,0,0,0l0,0C19,8.3,19.1,8.1,19.1,8c0,0,0,0,0,0l0.2,0
		c0,0,0-0.2,0-0.2c0,0,0,0,0,0c0,0,0.1-0.1,0.1-0.1c0,0,0,0,0,0c0,0,0.2,0.1,0.2,0.1c0,0,0,0,0,0c0,0,0,0,0,0
		c-0.1,0.1-0.2,0.2-0.2,0.3c-0.1,0.1-0.1,0.1-0.2,0.2C19.1,8.3,19.1,8.3,19,8.4C19,8.4,19,8.4,19,8.4z M18.9,8.3c0.1,0,0.1,0,0.2,0
		c0,0,0.1-0.1,0.1-0.1c0.1,0,0.1-0.1,0.2-0.2c0.1-0.1,0.2-0.2,0.2-0.3c0,0-0.1-0.1-0.2-0.1c0,0-0.1,0.1-0.1,0.1c0,0,0,0.2,0,0.2
		c0,0,0,0,0,0l-0.2,0C19.1,8.1,19,8.3,18.9,8.3L18.9,8.3z"/>
	<path class="st1" d="M13.1,8.4C13.1,8.4,13.1,8.4,13.1,8.4c-0.1,0-0.1-0.1-0.1-0.1c-0.1,0-0.1-0.1-0.2-0.2
		c-0.1-0.1-0.2-0.2-0.2-0.3c0,0,0,0,0,0c0,0,0,0,0,0c0,0,0.1-0.1,0.2-0.1c0,0,0,0,0,0c0,0,0.1,0.1,0.1,0.1c0,0,0,0,0,0
		c0,0,0,0.2,0,0.2L13,8c0,0,0,0,0,0c0,0.1,0.1,0.2,0.2,0.3l0,0c0,0,0,0,0,0c0,0,0,0,0,0C13.2,8.3,13.1,8.4,13.1,8.4z M13,8.3
		C13.1,8.3,13.1,8.3,13,8.3c0.1,0,0.1,0,0.2,0l0,0l0,0C13.1,8.3,13,8.1,13,8l-0.2,0c0,0,0,0,0,0c0,0,0-0.2,0-0.2
		c0,0-0.1-0.1-0.1-0.1c0,0-0.2,0.1-0.2,0.1c0.1,0.1,0.2,0.2,0.2,0.3c0.1,0.1,0.1,0.1,0.2,0.2C13,8.3,13,8.3,13,8.3
		C13,8.3,13,8.3,13,8.3z"/>
	<path class="st1" d="M13.7,7.7C13.6,7.7,13.6,7.7,13.7,7.7C13.6,7.7,13.6,7.7,13.7,7.7C13.6,7.7,13.6,7.7,13.7,7.7
		c-0.1,0,0,0,0.1-0.2c0-0.1,0-0.2-0.1-0.4c0,0,0,0,0,0c0,0,0,0,0,0c0.1-0.1,0.1-0.2,0.1-0.3c0,0,0,0,0,0c0,0,0,0,0,0c0,0,0,0,0,0
		c0.1,0,0.1,0,0.2-0.1c0,0,0,0,0,0c0,0,0,0,0,0c0,0.1,0.2,0.1,0.3,0c0,0,0,0,0,0c0,0,0,0,0,0c0,0,0.1,0.1,0.2,0.1c0,0,0,0,0,0
		c0,0,0,0,0,0c0,0,0,0,0,0c0,0,0,0.2,0.1,0.2c0,0,0,0,0,0c0,0.1-0.1,0.2-0.1,0.3l0,0.2c0,0,0,0,0,0C14.2,7.7,13.9,7.7,13.7,7.7z
		 M13.6,7.7c0.1,0,0.5,0,0.8-0.1l0-0.2c0-0.1,0.1-0.2,0.1-0.3c-0.1-0.1-0.1-0.2-0.1-0.2c0,0,0,0,0,0c0,0,0,0,0,0c0,0-0.1,0-0.1-0.1
		c0,0,0,0,0,0c-0.1,0.1-0.2,0.1-0.3,0c0,0.1,0,0.1-0.2,0.1c0,0,0,0,0,0c0,0.1,0.1,0.2-0.1,0.3c0.1,0.2,0.1,0.3,0.1,0.4
		C13.7,7.7,13.7,7.7,13.6,7.7z"/>
	<g>
		<path class="st1" d="M16,16.7C16,16.7,16,16.7,16,16.7c-0.4-0.2-0.6-0.8-0.6-1.4v-1c0,0,0,0,0,0h1.2c0,0,0,0,0,0v1
			C16.7,15.9,16.4,16.5,16,16.7C16,16.7,16,16.7,16,16.7z M15.5,14.3v1c0,0.6,0.2,1.1,0.6,1.3c0.3-0.2,0.6-0.8,0.6-1.3v-1H15.5z"/>
		<path class="st1" d="M16,16.6C16,16.6,16,16.6,16,16.6c-0.3-0.3-0.5-0.8-0.5-1.3v-0.9c0,0,0,0,0,0h1c0,0,0,0,0,0v0.9
			C16.6,15.8,16.4,16.3,16,16.6C16.1,16.6,16,16.6,16,16.6z M15.6,14.4v0.9c0,0.5,0.2,1,0.5,1.2c0.3-0.2,0.5-0.7,0.5-1.2v-0.9H15.6z
			"/>
		<path class="st1" d="M16,19.2C16,19.2,16,19.2,16,19.2c-0.4-0.2-0.6-0.8-0.6-1.4v-1c0,0,0,0,0,0h1.2c0,0,0,0,0,0v1
			C16.7,18.4,16.4,19,16,19.2C16,19.2,16,19.2,16,19.2z M15.5,16.8v1c0,0.6,0.2,1.1,0.6,1.4c0.3-0.2,0.6-0.8,0.6-1.4v-1H15.5z"/>
		<path class="st1" d="M16,19.1C16,19.1,16,19.1,16,19.1c-0.3-0.3-0.5-0.8-0.5-1.3v-0.9c0,0,0,0,0,0h1c0,0,0,0,0,0v0.9
			C16.6,18.3,16.4,18.8,16,19.1C16.1,19.1,16,19.1,16,19.1z M15.6,16.9v0.9c0,0.5,0.2,1,0.5,1.2c0.3-0.2,0.5-0.7,0.5-1.2v-0.9H15.6z
			"/>
		<path class="st1" d="M14.6,19.2C14.6,19.2,14.6,19.2,14.6,19.2C14.3,19,14,18.4,14,17.8v-1c0,0,0,0,0,0h1.2c0,0,0,0,0,0v1
			C15.2,18.4,15,19,14.6,19.2C14.6,19.2,14.6,19.2,14.6,19.2z M14,16.8v1c0,0.6,0.2,1.1,0.6,1.4c0.3-0.2,0.6-0.8,0.6-1.4v-1H14z"/>
		<path class="st1" d="M14.6,19.1C14.6,19.1,14.6,19.1,14.6,19.1c-0.3-0.3-0.5-0.8-0.5-1.3v-0.9c0,0,0,0,0,0h1c0,0,0,0,0,0v0.9
			C15.1,18.3,14.9,18.8,14.6,19.1C14.6,19.1,14.6,19.1,14.6,19.1z M14.1,16.9v0.9c0,0.5,0.2,1,0.5,1.2c0.3-0.2,0.5-0.7,0.5-1.2v-0.9
			H14.1z"/>
		<path class="st1" d="M17.5,19.2C17.5,19.2,17.5,19.2,17.5,19.2c-0.4-0.2-0.6-0.8-0.6-1.4v-1c0,0,0,0,0,0h1.2c0,0,0,0,0,0v1
			C18.1,18.4,17.8,19,17.5,19.2C17.5,19.2,17.5,19.2,17.5,19.2z M16.9,16.8v1c0,0.6,0.2,1.1,0.6,1.4c0.3-0.2,0.6-0.8,0.6-1.4v-1
			H16.9z"/>
		<path class="st1" d="M17.5,19.1C17.5,19.1,17.4,19.1,17.5,19.1c-0.3-0.3-0.5-0.8-0.5-1.3v-0.9c0,0,0,0,0,0h1c0,0,0,0,0,0v0.9
			C18,18.3,17.8,18.8,17.5,19.1C17.5,19.1,17.5,19.1,17.5,19.1z M17,16.9v0.9c0,0.5,0.2,1,0.5,1.2c0.3-0.2,0.5-0.7,0.5-1.2v-0.9H17z
			"/>
		<path class="st1" d="M16,21.7C16,21.7,16,21.7,16,21.7c-0.4-0.2-0.6-0.8-0.6-1.4v-1c0,0,0,0,0,0h1.2c0,0,0,0,0,0v1
			C16.7,20.9,16.4,21.5,16,21.7C16,21.7,16,21.7,16,21.7z M15.5,19.3v1c0,0.6,0.2,1.1,0.6,1.3c0.3-0.2,0.6-0.8,0.6-1.3v-1H15.5z"/>
		<path class="st1" d="M16,21.6C16,21.6,16,21.6,16,21.6c-0.3-0.3-0.5-0.8-0.5-1.3v-0.9c0,0,0,0,0,0h1c0,0,0,0,0,0v0.9
			C16.6,20.8,16.4,21.3,16,21.6C16.1,21.6,16,21.6,16,21.6z M15.6,19.4v0.9c0,0.5,0.2,1,0.5,1.2c0.3-0.2,0.5-0.7,0.5-1.2v-0.9H15.6z
			"/>
		<g>
			<g>
				<circle class="st2" cx="16" cy="5.7" r="0.1"/>
				<circle class="st2" cx="16" cy="5.3" r="0.1"/>
				<circle class="st2" cx="16" cy="4.9" r="0.1"/>
				<circle class="st2" cx="16" cy="4.6" r="0.1"/>
				<circle class="st2" cx="16" cy="4.2" r="0.1"/>
				<circle class="st2" cx="16.6" cy="4.1" r="0.1"/>
				<circle class="st2" cx="16.9" cy="4.3" r="0.1"/>
				<circle class="st2" cx="17.3" cy="4.3" r="0.1"/>
				<circle class="st2" cx="17.6" cy="4.1" r="0.1"/>
				<circle class="st2" cx="17.9" cy="4" r="0.1"/>
				<circle class="st2" cx="17.1" cy="3.6" r="0.1"/>
				<circle class="st2" cx="17.4" cy="3.5" r="0.1"/>
				<circle class="st2" cx="17.8" cy="3.5" r="0.1"/>
				<circle class="st2" cx="18.2" cy="3.5" r="0.1"/>
				<circle class="st2" cx="18.6" cy="3.6" r="0.1"/>
				<circle class="st2" cx="18.9" cy="3.8" r="0.1"/>
				<circle class="st2" cx="19.2" cy="4.1" r="0.1"/>
				<circle class="st2" cx="19.3" cy="4.5" r="0.1"/>
				<circle class="st2" cx="19.4" cy="4.8" r="0.1"/>
				<circle class="st2" cx="19.4" cy="5.2" r="0.1"/>
				<circle class="st2" cx="19.3" cy="5.6" r="0.1"/>
				<circle class="st2" cx="19" cy="6" r="0.1"/>
				<circle class="st2" cx="18.6" cy="6.2" r="0.1"/>
				<circle class="st2" cx="20.1" cy="7.1" r="0.1"/>
				<circle class="st2" cx="20.4" cy="6.9" r="0.1"/>
				<circle class="st2" cx="20.7" cy="6.5" r="0.1"/>
				<circle class="st2" cx="20.8" cy="6" r="0.1"/>
				<circle class="st2" cx="20.9" cy="5.6" r="0.1"/>
				<circle class="st2" cx="20.8" cy="5.1" r="0.1"/>
				<circle class="st2" cx="20.2" cy="4.4" r="0.1"/>
				<circle class="st2" cx="19.8" cy="4.1" r="0.1"/>
				<circle class="st2" cx="19.5" cy="4" r="0.1"/>
				<g>
					<path class="st2" d="M17.7,27.8c-0.1,0-0.2-0.1-0.3,0c-0.1,0.1,0,0.3-0.1,0.3c-0.1,0-0.1-0.4,0.1-0.4
						C17.6,27.7,17.7,27.8,17.7,27.8z"/>
					<path class="st2" d="M17.5,27.4c-0.1,0-0.2-0.1-0.3,0c-0.1,0.1,0,0.3-0.1,0.3c-0.1,0-0.1-0.4,0.1-0.4
						C17.4,27.2,17.5,27.4,17.5,27.4z"/>
					<path class="st2" d="M18.1,27.4c-0.1,0-0.1-0.2-0.2-0.2c-0.1,0-0.2,0.1-0.3,0.1c-0.1-0.1,0.2-0.3,0.4-0.1
						C18.2,27.3,18.2,27.4,18.1,27.4z"/>
					<path class="st2" d="M18.1,28c0-0.1,0.1-0.2,0-0.3c-0.1-0.1-0.3,0-0.3-0.1c0-0.1,0.4-0.1,0.4,0.1C18.3,27.9,18.1,28,18.1,28z"
						/>
					<path class="st2" d="M18.5,28c0-0.1,0.1-0.2,0.1-0.3c0-0.1-0.2-0.1-0.2-0.1c0-0.1,0.4,0,0.4,0.2C18.7,27.9,18.5,28,18.5,28z"/>
					<path class="st2" d="M18.6,28.6c0-0.1,0.2-0.1,0.2-0.2c0-0.1-0.2-0.2-0.1-0.2c0.1-0.1,0.4,0.1,0.2,0.4
						C18.8,28.7,18.6,28.7,18.6,28.6z"/>
					<path class="st2" d="M18.2,28.6c0-0.1,0.2-0.1,0.2-0.2c0-0.1-0.2-0.2-0.1-0.3c0.1-0.1,0.4,0.2,0.2,0.4
						C18.4,28.6,18.2,28.7,18.2,28.6z"/>
					<path class="st2" d="M17.9,28.5c0-0.1,0.1-0.2,0.1-0.3c0-0.1-0.2-0.1-0.2-0.2c0-0.1,0.4,0,0.3,0.3C18,28.5,17.9,28.6,17.9,28.5
						z"/>
					<path class="st2" d="M17.5,28.8c0.1,0,0.2,0.1,0.3,0c0.1-0.1,0.1-0.3,0.1-0.3c0.1,0,0.1,0.4-0.2,0.4
						C17.6,29,17.5,28.9,17.5,28.8z"/>
					<path class="st2" d="M17.1,28.9c0.1,0,0,0.2,0.1,0.2c0.1,0,0.3-0.1,0.3,0c0,0.1-0.3,0.3-0.4,0.1C17,29,17,28.8,17.1,28.9z"/>
					<path class="st2" d="M17.2,28.2c0,0.1-0.1,0.2,0,0.3c0,0.1,0.3,0.1,0.3,0.1c0,0.1-0.4,0.1-0.4-0.2C17,28.3,17.2,28.1,17.2,28.2
						z"/>
					<path class="st2" d="M16.8,28.2c0,0.1-0.1,0.2-0.1,0.3c0,0.1,0.2,0.1,0.2,0.2c0,0.1-0.4,0-0.3-0.3
						C16.7,28.2,16.8,28.1,16.8,28.2z"/>
					<path class="st2" d="M18,29.2c0.1,0,0.2,0.1,0.3,0c0.1-0.1,0.1-0.3,0.1-0.3c0.1,0,0.1,0.4-0.2,0.4C18.1,29.3,17.9,29.2,18,29.2
						z"/>
					<circle class="st2" cx="17.6" cy="28.3" r="0.1"/>
					<path class="st2" d="M14.4,27.8c0.1,0,0.2-0.1,0.3,0c0.1,0.1,0,0.3,0.1,0.3c0.1,0,0.1-0.4-0.1-0.4
						C14.5,27.7,14.3,27.8,14.4,27.8z"/>
					<path class="st2" d="M14.6,27.4c0.1,0,0.2-0.1,0.3,0c0.1,0.1,0,0.3,0.1,0.3c0.1,0,0.1-0.4-0.1-0.4
						C14.7,27.2,14.6,27.4,14.6,27.4z"/>
					<path class="st2" d="M13.9,27.4c0.1,0,0.1-0.2,0.2-0.2c0.1,0,0.2,0.1,0.3,0.1c0.1-0.1-0.2-0.3-0.4-0.1
						C13.9,27.3,13.9,27.4,13.9,27.4z"/>
					<path class="st2" d="M14,28c0-0.1-0.1-0.2,0-0.3c0.1-0.1,0.3,0,0.3-0.1c0-0.1-0.4-0.1-0.4,0.1C13.8,27.9,13.9,28,14,28z"/>
					<path class="st2" d="M13.6,28c0-0.1-0.1-0.2-0.1-0.3c0-0.1,0.2-0.1,0.2-0.1c0-0.1-0.4,0-0.4,0.2C13.4,27.9,13.6,28,13.6,28z"/>
					<path class="st2" d="M13.5,28.6c0-0.1-0.2-0.1-0.2-0.2c0-0.1,0.2-0.2,0.1-0.2c-0.1-0.1-0.4,0.1-0.2,0.4
						C13.3,28.7,13.5,28.7,13.5,28.6z"/>
					<path class="st2" d="M13.9,28.6c0-0.1-0.2-0.1-0.2-0.2c0-0.1,0.2-0.2,0.1-0.3c-0.1-0.1-0.4,0.2-0.2,0.4
						C13.7,28.6,13.9,28.7,13.9,28.6z"/>
					<path class="st2" d="M14.2,28.5c0-0.1-0.1-0.2-0.1-0.3c0-0.1,0.2-0.1,0.2-0.2c0-0.1-0.4,0-0.3,0.3C14,28.5,14.2,28.6,14.2,28.5
						z"/>
					<path class="st2" d="M14.5,28.8c-0.1,0-0.2,0.1-0.3,0c-0.1-0.1-0.1-0.3-0.1-0.3c-0.1,0-0.1,0.4,0.2,0.4
						C14.5,29,14.6,28.9,14.5,28.8z"/>
					<path class="st2" d="M15,28.9c-0.1,0,0,0.2-0.1,0.2c-0.1,0-0.3-0.1-0.3,0c0,0.1,0.3,0.3,0.4,0.1C15.1,29,15.1,28.8,15,28.9z"/>
					<path class="st2" d="M14.9,28.2c0,0.1,0.1,0.2,0,0.3c0,0.1-0.3,0.1-0.3,0.1c0,0.1,0.4,0.1,0.4-0.2
						C15.1,28.3,14.9,28.1,14.9,28.2z"/>
					<path class="st2" d="M15.2,28.2c0,0.1,0.1,0.2,0.1,0.3c0,0.1-0.2,0.1-0.2,0.2c0,0.1,0.4,0,0.3-0.3
						C15.4,28.2,15.3,28.1,15.2,28.2z"/>
					<path class="st2" d="M14.1,29.2c-0.1,0-0.2,0.1-0.3,0c-0.1-0.1-0.1-0.3-0.1-0.3c-0.1,0-0.1,0.4,0.2,0.4
						C14,29.3,14.2,29.2,14.1,29.2z"/>
					<circle class="st2" cx="14.5" cy="28.3" r="0.1"/>
				</g>
				<g>
					<g>
						<polygon class="st2" points="16.7,3.7 16.3,3.6 16.5,4 15.5,4 15.7,3.6 15.4,3.7 15.4,3.3 15.4,2.8 15.7,3 15.5,2.5 16.5,2.5 
							16.3,3 16.7,2.8 16.7,3.3 						"/>
						<path class="st2" d="M17.5,5.9c2.2-0.1,1.3-1.7,0.8-1.8c-0.7,0.8-1.8,0.6-1.8,0.6c-0.1,0.4,0.2,0.9,0.2,0.9c0,0-0.5-0.2-0.4-1
							c0,0,1.5,0,1.8-0.7c-0.3-0.2-0.6-0.1-0.9-0.1C19.2,3,20.1,6.3,17.5,5.9z"/>
						<path class="st2" d="M20.5,5.3C20.9,6.7,19.4,7,19.4,7C21.1,6.2,20,5,20,5c0.2,1-0.7,1.4-0.8,1.5c1.1-1.1,0.5-1.8,0.2-2.2
							C19.5,4.3,20.2,4.6,20.5,5.3z"/>
						<path class="st2" d="M19.5,7.4c-0.1,0-0.2,0.2-0.2,0.2s-0.2,0-0.2-0.1c-0.1,0.1,0.1,0.3,0.1,0.4c0,0-0.1,0-0.2-0.1
							c-0.1,0.1,0,0.3,0,0.4c-0.2,0-0.2-0.3-0.2-0.5c-0.3,0-0.2-0.3,0-0.3c0-0.1-0.2-0.1-0.2-0.3c0-0.1,0.1-0.3,0.1-0.3
							c-0.3,0.2-0.3-0.2-0.3-0.2c0,0-0.1,0.2-0.2,0.1c-0.1,0-0.1-0.1-0.2-0.2c0,0.3-0.2,0.3-0.3,0.2c0.1,0.1,0,0.3-0.2,0.3
							c0,0.2,0.1,0.4,0.2,0.4c0,0-0.2-0.2-0.3-0.4c-0.1,0-0.4,0.3-0.6,0.2c-0.1,0-0.1-0.1,0-0.2c0,0,0.1,0,0.1,0c0,0,0-0.1,0.1-0.1
							c0,0-0.1-0.1-0.1-0.1c0,0,0.1-0.2,0.1-0.2l-0.2-0.1l0.1-0.2l-0.3,0l0-0.3l-0.3,0.1L16,5.9l-0.2,0.2L15.6,6l0,0.3l-0.3,0
							l0.1,0.2l-0.2,0.1c0,0,0.1,0.2,0.1,0.2c0,0-0.1,0.1-0.1,0.1c0.1,0,0.1,0.1,0.1,0.1c0,0,0.1,0,0.1,0c0.1,0,0,0.1,0,0.2
							C15.3,7.3,15,7,14.9,7c-0.1,0.2-0.3,0.4-0.3,0.4c0,0,0.1-0.3,0.2-0.4c-0.2,0-0.3-0.2-0.2-0.3c-0.2,0-0.3,0.1-0.3-0.2
							c-0.1,0.1-0.1,0.2-0.2,0.2c-0.1,0-0.2-0.1-0.2-0.1c0,0,0,0.4-0.3,0.2c0,0,0.1,0.2,0.1,0.3c0,0.1-0.2,0.1-0.2,0.3
							c0.2,0,0.3,0.3,0,0.3c-0.1,0.2,0,0.5-0.2,0.5c0,0,0.1-0.3,0-0.4C13.1,7.9,13,7.8,13,7.8c0-0.1,0.1-0.2,0.1-0.4
							c-0.1,0.1-0.2,0.1-0.2,0.1s-0.2-0.2-0.2-0.2c0,0.1,0,0.4-0.5,0c0,0,0,0.4,0.8,1c0.5,0,0.7-0.2,0.8-0.6c0.6,0,1-0.2,1.3-0.5
							c0.5,0.3,0.9,0.1,1-0.1c0.1,0.2,0.5,0.4,1,0.1c0.3,0.3,0.7,0.5,1.3,0.5c0.1,0.3,0.3,0.6,0.8,0.6c0.8-0.6,0.8-1,0.8-1
							C19.5,7.8,19.5,7.5,19.5,7.4z M13.1,8.4L13.1,8.4c-0.1-0.1-0.2-0.1-0.3-0.2c-0.1-0.1-0.2-0.2-0.2-0.3c0,0,0.1-0.1,0.2-0.1
							c0,0,0.1,0.1,0.1,0.1c0,0,0,0.2,0,0.2L13,8c0,0.1,0.1,0.2,0.2,0.3l0,0C13.2,8.3,13.1,8.4,13.1,8.4z M14.4,7.4l0,0.2
							c-0.3,0.1-0.8,0.1-0.8,0.1s0.4-0.1,0.1-0.5c0.2-0.1,0.1-0.3,0.1-0.3c0.1,0,0.1,0,0.2-0.1c0,0.1,0.2,0.1,0.3,0
							c0,0,0.1,0.1,0.2,0.1c0,0,0,0.2,0.1,0.2C14.5,7.2,14.4,7.3,14.4,7.4z M16,7.2c0,0-0.2,0.2-0.4,0.2c0.1,0,0.1-0.1,0.1-0.2
							c0-0.3-0.2-0.3-0.2-0.3l0.1-0.1c0,0-0.1-0.1-0.1-0.1l0.2-0.1l-0.1-0.1l0.2,0l0-0.2l0.2,0.1L16,6.2c0,0,0,0,0,0c0,0,0,0,0,0
							l0.1,0.2l0.2-0.1l0,0.2l0.2,0l-0.1,0.1l0.2,0.1c0,0-0.1,0.1-0.1,0.1L16.6,7c0,0-0.3,0-0.2,0.3c0,0.1,0.1,0.1,0.1,0.2
							C16.3,7.4,16,7.2,16,7.2z M17.7,7.6l0-0.2c0-0.1,0-0.2-0.1-0.3c0.1-0.1,0.1-0.2,0.1-0.2c0.1,0,0.1,0,0.2-0.1
							c0.1,0.1,0.2,0.1,0.3,0c0,0.1,0.1,0.1,0.2,0.1c0,0-0.1,0.2,0.1,0.3c-0.3,0.4,0.1,0.5,0.1,0.5S18,7.8,17.7,7.6z M19.3,8.1
							c-0.1,0.1-0.2,0.1-0.3,0.2h0c-0.1,0-0.1,0-0.2,0l0,0C19,8.3,19.1,8.1,19.1,8l0.2,0c0,0,0-0.2,0-0.2c0,0,0.1-0.1,0.1-0.1
							c0,0,0.2,0.1,0.2,0.1C19.5,7.9,19.4,8,19.3,8.1z"/>
						<path class="st2" d="M14.5,5.9c-2.2-0.1-1.3-1.7-0.8-1.8c0.7,0.8,1.8,0.6,1.8,0.6c0.1,0.4-0.2,0.9-0.2,0.9c0,0,0.5-0.2,0.4-1
							c0,0-1.5,0-1.8-0.7c0.3-0.2,0.6-0.1,0.9-0.1C12.9,3,12,6.3,14.5,5.9z"/>
						<path class="st2" d="M11.6,5.3C11.2,6.7,12.7,7,12.7,7c-1.7-0.9-0.6-2-0.6-2c-0.2,1,0.7,1.4,0.8,1.5c-1.1-1.1-0.5-1.8-0.2-2.2
							C12.6,4.3,11.9,4.6,11.6,5.3z"/>
						<g>
							<polygon class="st2" points="16.8,8.4 16.6,8.5 16.3,8.3 16.6,8.1 							"/>
							<polygon class="st2" points="17.4,8.5 17,8.6 16.8,8.4 17.2,8.3 							"/>
							<polygon class="st2" points="17.8,8.8 17.5,8.8 17.4,8.5 17.7,8.5 							"/>
							<polygon class="st2" points="18.3,9.1 17.9,9.1 17.8,8.8 18.2,8.8 							"/>
							<polygon class="st2" points="18.4,9.1 18.3,9.3 18.3,9.1 							"/>
							<path class="st2" d="M18.1,9.6c0,0,0,0.1-0.2,0c-0.2,0.1-0.4,0.4-0.5,0.7c-0.1-0.4,0.1-0.6,0.3-0.8c0-0.1-0.1-0.1-0.2-0.1
								c-0.1,0-0.4,0.5-0.4,0.5s-0.3-0.1-0.4-0.2c-0.2-0.1-0.4-0.1-0.6-0.1c-0.2,0-0.5,0-0.6,0.1c-0.1,0-0.4,0.2-0.4,0.2
								s-0.4-0.4-0.4-0.5c-0.1,0-0.1,0.1-0.2,0.1c0.1,0.2,0.4,0.4,0.3,0.8c-0.1-0.3-0.2-0.5-0.5-0.7c-0.1,0.1-0.2,0-0.2,0l0.7-0.4
								c0,0,0.1,0.1,0,0.2L15,9.6c0.3-0.2,0.6-0.2,1-0.3c0.4,0,0.8,0.1,1,0.3l0.3-0.3c0,0,0-0.1,0-0.2L18.1,9.6z"/>
							<polygon class="st2" points="16.3,8.3 16,8.5 15.8,8.3 16,8.1 							"/>
							<polygon class="st2" points="15.2,8.4 15.5,8.5 15.8,8.3 15.5,8.1 							"/>
							<polygon class="st2" points="14.7,8.5 15,8.6 15.2,8.4 14.9,8.3 							"/>
							<polygon class="st2" points="14.3,8.8 14.6,8.8 14.7,8.5 14.4,8.5 							"/>
							<polygon class="st2" points="13.8,9.1 14.1,9.1 14.3,8.8 13.9,8.8 							"/>
							<polygon class="st2" points="13.6,9.1 13.8,9.3 13.8,9.1 							"/>
							<path class="st2" d="M18.2,9.4L18.2,9.4c-0.4-0.2-1.1-0.7-2.1-0.7S14.3,9.2,14,9.5l-0.1-0.1c0,0,0.8-0.8,2.1-0.8
								S18.2,9.4,18.2,9.4z"/>
							<path class="st2" d="M18.7,8.9L18.5,9c0,0-0.9-1-2.5-1s-2.5,1-2.5,1l-0.1-0.1c0,0,0.9-1,2.6-1S18.7,8.9,18.7,8.9z"/>
						</g>
						<g>
							<path class="st2" d="M18.8,10.1c-0.3,0-0.3-0.4-0.3-0.4c0.2,0.2,0.4,0.3,0.5-0.1C19,9.7,19.1,10.1,18.8,10.1z"/>
							<path class="st2" d="M13.3,10.1c0.3,0,0.3-0.4,0.3-0.4c-0.2,0.2-0.4,0.3-0.5-0.1C13.1,9.7,13,10.1,13.3,10.1z"/>
							<g>
								<path class="st2" d="M16.6,11c-0.1,0.1-0.2,0.2-0.2,0.3c-0.2,0-0.3,0-0.4,0.1c-0.1-0.1-0.2-0.1-0.4-0.1
									c0-0.2-0.1-0.2-0.2-0.3c0-0.1,0-0.1,0-0.2c0-0.1,0-0.1,0-0.2c0.1-0.1,0.2-0.2,0.2-0.3c0.2,0,0.3,0,0.4-0.1
									c0.1,0.1,0.2,0.1,0.4,0.1c0,0.2,0.1,0.2,0.2,0.3c0,0.1,0,0.1,0,0.2C16.6,10.9,16.6,11,16.6,11z"/>
								<g>
									<rect x="19.3" y="18.5" class="st2" width="0.2" height="2.6"/>
									<rect x="18.7" y="18.5" class="st2" width="0.2" height="2.6"/>
									<rect x="19.3" y="14.3" class="st2" width="0.2" height="2.8"/>
									<path class="st2" d="M23,13.4c-0.2-0.4-0.5,0-0.5,0c-0.4-0.3-0.6-1.5-0.6-2.1c-0.3-2.5-1.6-2.7-1.6-2.7c0-0.3,0-0.4,0-0.4
										c-0.1,0.4-0.4,0.6-0.4,0.6c-0.9,1-0.2,1.6-0.2,1.6s-0.1,0.8-0.8,0.8c-0.7,0-0.7-0.7-0.7-0.7c0.5,0.1,0.3-0.3,0.3-0.4
										c0,0-0.2-0.3-0.4,0.1c-0.2,0.4-0.2,1-0.1,1.2c0.1,0.2,0.3,0.8,1.1,0.6c0.8-0.2,0.9-1.6,0.9-1.6S20,10.2,20,10
										c0-0.3-0.4-0.2-0.4-0.2c-0.1-0.3,0-1,0.4-1s0.5,0.3,0.5,0.3c0,0.9,0.4,0.9,0.4,0.9c-0.1,0.7,0.4,0.7,0.4,0.7
										c-0.3,0.8,0.2,1.1,0.2,1.1c-0.2,0.9,0.2,1.1,0.2,1.1c0.2,0.9,0.7,0.8,0.7,0.8s0.2,0.1,0.2,0.1C22.8,13.8,23.2,13.8,23,13.4
										z M18.9,11.5c-0.6,0-0.8-0.7-0.8-0.7s0.7,0.9,1.5-0.2C19.6,10.7,19.5,11.5,18.9,11.5z"/>
									<path class="st2" d="M19.9,9.6c0,0,0.8-0.2,0.6,0.5c0,0,0.4,0.3,0.2,0.7c0,0,0.3,0.2,0.1,1c0,0-0.4,0.2-0.6,0.7
										c0,0-0.3-0.2,0.2-0.7c0,0-0.1-0.3-0.3,0.2c0,0-0.1-0.2,0.3-0.6c0,0,0.2-0.6-0.3,0c0,0-0.1-0.2,0.2-0.5c0,0,0.3-0.6-0.3-0.2
										C20,10.7,20.6,9.6,19.9,9.6z"/>
									<path class="st2" d="M20.2,12.8c0,0,0.1-0.5,0.7-0.6c0,0,0.1,0,0.1,0.1s-0.3,0.2-0.3,0.2S20.6,12.5,20.2,12.8z"/>
									<path class="st2" d="M20.3,13c0,0,0-0.4,0.8-0.5c0,0,0.1,0,0.1,0.1s-0.2,0.1-0.2,0.1S20.7,12.7,20.3,13z"/>
									<path class="st2" d="M24,18.8c-0.1,0-0.3,0.2-0.4,0c-0.1-0.1,0.2-0.4,0.2-0.4c-0.2,0.1-0.3,0.1-0.5,0.2
										c0-0.2,0.2-0.3,0.2-0.4c0,0-0.5,0.2-0.6,0c-0.1-0.5,0.4-0.9,0.4-0.9c0.2,0,0.4-0.4,0-0.6c0-0.1,0-0.4,0-0.5
										c0.7-0.5,0.4-1.4,0.3-1.4c0-0.1-0.2-0.5-0.5-0.3c-0.1,0.1-0.2,0.3-0.1,0.4c0.1,0.1,0.3,0.1,0.3,0.1c0,0-0.3,0.6-0.8,0.5
										c-0.5-0.1-0.8-0.6-0.7-0.9c0.7,0.2,0.6-0.9-0.1-0.6c-0.1-0.5-0.5-1.2-1.6-0.9c-0.1-0.3-0.3-0.5-0.4-0.7
										c-0.8,0.1-2-0.1-2.5-1.1c-0.3,0.3-0.7,0.5-1.2,0.5c-0.4,0-0.9-0.2-1.2-0.5c-0.5,1-1.6,1.2-2.5,1.1
										c-0.2,0.3-0.3,0.4-0.4,0.7c-1.1-0.3-1.5,0.4-1.6,0.9c-0.8-0.3-0.8,0.8-0.1,0.6c0.1,0.3-0.2,0.8-0.7,0.9
										c-0.5,0.1-0.8-0.5-0.8-0.5c0,0,0.2,0,0.3-0.1c0.1-0.1,0-0.3-0.1-0.4c-0.3-0.2-0.5,0.2-0.5,0.3c0,0-0.4,0.9,0.3,1.4
										c0,0.1,0,0.4,0,0.5c-0.4,0.1-0.2,0.6,0,0.6c0,0,0.5,0.4,0.4,0.9c-0.1,0.2-0.6,0-0.6,0c0,0.1,0.3,0.2,0.2,0.4
										c-0.2,0-0.3-0.1-0.5-0.2c0,0,0.2,0.3,0.2,0.4c-0.1,0.1-0.3,0-0.4,0c0,0,0,0.3,0.7,0.3c0,0.2-0.2,0.3-0.2,0.4
										C8.9,19.3,9,19.1,9.1,19c0.1,0.1,0.1,0.2,0,0.3c0.1-0.1,0.3-0.7,0.3-0.7c0,0.1,0.3,1-0.6,1.1c0.2,0.1,0.5,0.1,0.7,0
										c0,0.2-0.5,0.4-0.5,0.4c0,0,0.3,0,0.6-0.2c0.1,0.3-0.4,1-0.5,1c0.2-0.1,0.6-0.4,0.6-0.5c0,0.3-0.1,0.5-0.2,0.7
										c0.1-0.1,0.2-0.2,0.2-0.3c0,0.3-0.2,0.9-0.3,1c0,0,0.1,0,0.1-0.1c0.1-0.1,0.2-0.2,0.3-0.3c0,0.2-0.3,1-0.3,1
										c0,0,0.5-0.4,0.7-1.5c0.1,0.1,0.1,0.4,0.1,0.5c0.1-0.3,0-0.8,0-1c0.1,0.1,0.4,0.4,0.5,0.5c-0.2-0.4-0.4-0.7-0.5-1.2
										c0.2,0.1,0.6,0.3,0.7,0.3c0,0-0.4-0.2-0.4-0.4c0.2,0,0.5-0.1,0.5-0.2c0,0-0.2-0.1-0.2-0.2c0.4-0.1,0.4-0.2,0.4-0.3
										c0,0-0.3,0.2-0.6,0.1c0,0,0.6-0.4,0.7-0.7c0,0-0.4,0.4-0.6,0.4c0-0.1,0.1-0.2,0.1-0.3c0,0-0.5,0.9-1.1,0
										c0.5,0.2,0.6,0.1,0.7,0.1c-0.1,0-0.2-0.1-0.2-0.1c0.6-0.1,0.7-0.5,0.7-0.6c0,0.1-0.3,0.3-0.4,0.2c0,0,0.3-0.3,0.3-0.4
										c0,0-0.3,0.2-0.3,0.1c0-0.2,0.5-0.3,0.6-0.6c0.1-0.2,0.1-0.4,0-0.6c0,0.1-0.1,0.2-0.2,0.1c0-0.3-0.1-0.4-0.2-0.6
										c0,0.1,0,0.4-0.1,0.5c0,0-0.1-0.1-0.2-0.1c0,0,0.5,0.9-0.5,1.1c-0.1,0-0.7,0.1-1.1-0.3c0.2-0.1,0.2-0.5-0.1-0.6
										c0-0.2,0-0.4,0-0.5c1.1,0.4,1.5-0.2,1.6-0.2c0.1-0.1,0.4-0.7,0-1.4c0,0,1.2,1,1.2,3.6c0,1.4,0.1,2.3-0.8,3.7
										c-0.1,0-0.3-0.4-0.5,0c-0.1,0.1-0.1,0.6,0.5,0.4c0.4,0.4,1,1.6,1,1.6c0.7-0.2,0.8-0.3,1.7-0.8c0,0,0.1,0,0.1,0.1
										c-0.2,0.3-1.2,0.8-1.7,0.9c-0.2,0.1-0.1,0.4,0.2,0.3c0.1,0,0.3-0.1,0.4-0.1c1.2-0.6,1.3-1.3,1.5-1c0,0.1,0.2,0.1,0.2,0.1
										c0,0,0,0.1,0,0.2c0,0-0.2,0-0.4,0.1c-0.3,0.2-0.7,0.7-0.7,0.7c-0.7-0.1-0.8,0.3-0.8,0.4c0.6-0.5,1.4,0.2,1.6,0.4
										c0,0.2,0,0.5,0.2,0.5c0.2,0,0.3-0.3,0.3-0.5c1.8,0.6,1.6-1.3,0.9-0.8v-0.7c0.6,0,0.7,0.4,0.6,0.9c0,0.4-0.2,0.8-0.6,0.7
										c-0.1,0.1,0,0.2,0.1,0.2c-0.1,0.1-0.3,0-0.4-0.1c-0.1,0,0,0.2,0,0.2c-0.1,0-0.2,0-0.2,0.1c0.1-0.1,0.2,0,0.3,0
										c0,0.1-0.2,0.2-0.2,0.3c0.2-0.1,0.4-0.1,0.6-0.1c0,0.1-0.2,0.2-0.4,0.2c0.1,0.1,0,0.1,0,0.2c-0.1,0-0.2,0-0.3-0.1
										c0,0.1-0.1,0.2-0.1,0.3c0.1,0,0.2,0,0.3,0c0,0.1,0,0.1,0.1,0.2c0.1-0.3,0.3-0.3,0.4-0.4c0.1,0.1,0.1,0.3,0.1,0.3
										c0.1-0.1,0.3-0.2,0.3-0.2c-0.1,0.1-0.5,0.5-0.4,0.6c0.1-0.1,0.2-0.1,0.4-0.1c-0.1,0.2-0.3,0.3-0.3,0.5
										c0.1-0.1,0.2-0.2,0.3-0.3c0,0.4,0.1,0.6,0.3,0.9c0,0,0,0,0,0.1c-0.3,0.1-0.1,0.8-0.4,0.9c-0.2,0.1-0.2,0.1-0.2,0.1
										c0.5,0.1,0.7-0.2,0.7-0.3c0,0.1,0.1,0.4,0.6,0.3c0-0.1-0.1-0.1-0.2-0.1c-0.2-0.1-0.1-0.8-0.4-0.9c0,0,0,0,0-0.1
										c0.2-0.3,0.3-0.5,0.3-0.9c0.1,0,0.2,0.1,0.3,0.3c0-0.2-0.1-0.3-0.3-0.5c0.2,0,0.3,0,0.4,0.1c0-0.1-0.3-0.5-0.4-0.6
										c0,0,0.2,0,0.3,0.2c0,0,0-0.2,0.1-0.3c0.1,0,0.3,0.1,0.4,0.4c0-0.1,0.1-0.1,0.1-0.2c0.1-0.1,0.2,0,0.3,0
										c-0.1-0.1-0.2-0.2-0.1-0.3c-0.1,0.1-0.2,0.1-0.3,0.1c0-0.1-0.1-0.1,0-0.2c-0.2,0-0.3-0.1-0.4-0.2c0.2,0,0.4,0.1,0.6,0.1
										c0-0.1-0.1-0.2-0.2-0.3c0.1,0,0.2-0.1,0.3,0c0-0.1-0.1-0.1-0.2-0.1c0,0,0.1-0.2,0-0.2c-0.1,0.1-0.3,0.2-0.4,0.1
										c0,0,0.1-0.1,0.1-0.2c-0.4,0.1-0.6-0.3-0.6-0.7c0-0.4,0.1-0.8,0.6-0.9v0.7c-0.7-0.5-0.9,1.4,0.9,0.8c0,0.2,0,0.5,0.3,0.5
										c0.2,0,0.2-0.3,0.2-0.5c0.2-0.2,1-0.9,1.6-0.4c0,0-0.1-0.5-0.8-0.4c0,0-0.4-0.4-0.7-0.7c-0.1-0.1-0.4-0.1-0.4-0.1
										c0,0,0-0.1,0-0.2c0,0,0.2,0,0.2-0.1c0.1-0.3,0.3,0.4,1.5,1c0.1,0.1,0.3,0.1,0.4,0.1c0.3,0,0.4-0.3,0.2-0.3
										c-0.5-0.1-1.5-0.6-1.7-0.9c0-0.1,0-0.1,0.1-0.1c0.8,0.5,1,0.6,1.7,0.8c0,0,0.6-1.2,1-1.6c0.6,0.2,0.5-0.3,0.5-0.4
										c-0.2-0.3-0.4,0-0.5,0c-0.9-1.4-0.8-2.3-0.8-3.7c0-2.7,1.2-3.6,1.2-3.6c-0.4,0.8,0,1.4,0,1.4c0.1,0.1,0.5,0.6,1.6,0.2
										c0,0.1,0,0.3,0,0.5c-0.3,0-0.3,0.5-0.1,0.6c-0.3,0.3-0.9,0.3-1.1,0.3c-1.1-0.2-0.5-1.1-0.5-1.1c-0.1,0-0.2,0.1-0.2,0.1
										c-0.1,0-0.1-0.3-0.1-0.5c-0.1,0.2-0.2,0.3-0.2,0.6c-0.1,0.1-0.1-0.1-0.2-0.1c0,0.2-0.1,0.4,0,0.6c0.2,0.3,0.6,0.4,0.6,0.6
										c-0.1,0.1-0.3-0.1-0.3-0.1c0,0.1,0.2,0.4,0.3,0.4c-0.2,0-0.4-0.2-0.4-0.2c0,0,0.1,0.5,0.7,0.6c0,0,0,0.1-0.2,0.1
										c0.1,0,0.2,0.1,0.7-0.1c-0.6,0.9-1.1,0-1.1,0c0,0.1,0.1,0.2,0.1,0.3c-0.2,0-0.6-0.4-0.6-0.4c0.1,0.3,0.7,0.7,0.7,0.7
										c-0.3,0.1-0.6-0.1-0.6-0.1c0,0.1,0,0.2,0.4,0.3c0,0.1-0.2,0.2-0.2,0.2c0,0.1,0.4,0.2,0.5,0.2c0,0.2-0.4,0.4-0.4,0.4
										c0.1,0,0.5-0.1,0.7-0.3c-0.1,0.5-0.3,0.8-0.5,1.2c0.1-0.1,0.4-0.3,0.5-0.5c-0.1,0.3-0.1,0.7,0,1c0-0.1,0-0.4,0.1-0.5
										c0.2,1,0.6,1.4,0.7,1.5c0,0-0.4-0.8-0.3-1c0.2,0.3,0.4,0.4,0.4,0.4c0,0-0.1-0.2-0.1-0.4c-0.1-0.2-0.1-0.4-0.1-0.6
										c0.1,0.1,0.1,0.2,0.2,0.3c-0.1-0.2-0.2-0.4-0.2-0.7c0,0.1,0.4,0.4,0.6,0.5c-0.1,0-0.6-0.8-0.5-1c0.3,0.2,0.5,0.2,0.6,0.2
										c0,0-0.4-0.2-0.5-0.4c0.2,0.1,0.5,0,0.7,0c-1-0.2-0.7-1.1-0.6-1.1c0,0,0.2,0.6,0.3,0.7c-0.1-0.1,0-0.2,0-0.3
										c0.1,0.1,0.2,0.3,0.5,0.4c0-0.1-0.2-0.2-0.2-0.4C24,19,24,18.8,24,18.8z M9.5,17.8c0.1,0.1,0.5,0.1,0.6,0c0,0,0,0,0.1,0
										C10.1,18.2,9.4,18.1,9.5,17.8z M9.8,16.1c-0.3,0-1.3,0-1.1-1c0.1,0.2,0.4,0.7,0.9,0.6c0.5,0,0.8-0.6,0.8-0.9
										C10.4,15,10.6,16,9.8,16.1z M10.5,14.2c0.1-0.2,0.1-0.3,0.3-0.6c0,0,0,0.7,0,0.9C10.7,14.3,10.6,14.3,10.5,14.2z
										 M11.4,15.1c-0.2-0.3-0.4-0.5-0.4-0.5c0-0.4,0-1,0-1.2c0.2-0.1,0.3-0.1,0.4-0.1C11.4,13.9,11.4,14.9,11.4,15.1z M16.9,25
										c-0.4-0.2-0.3-0.6,0-0.6V25z M18.1,12.4v1.7c-0.2-0.1-0.3-0.2-0.5-0.3c0,0,0-1.7,0-1.7C17.7,12.3,18.1,12.4,18.1,12.4z
										 M17.1,11.6c0.1,0.2,0.2,0.3,0.4,0.4v1.7c-0.2-0.1-0.2-0.2-0.4-0.3L17.1,11.6z M15.2,11.8c0.1,0,0.2,0.1,0.4,0.1
										c0,0.2,0,0.2,0,0.4h0.2c0-0.1,0-0.2,0-0.3c0.1,0,0.2,0,0.3,0c0.1,0,0.2,0,0.3,0c0,0.1,0,0.2,0,0.3h0.2c0-0.2,0-0.2,0-0.4
										c0.2,0,0.3-0.1,0.4-0.1c0,0.5,0,1.2,0,1.8c-0.1,0.1-0.2,0.2-0.4,0.2c0-0.3,0-0.6,0-0.9c0,0.1-0.1,0.1-0.1,0.2
										c0,0.1,0.1,0.2,0,0.5h-0.2l0,0.2c-0.1,0-0.2,0-0.3,0c-0.1,0-0.2,0-0.3,0l0-0.2h-0.2c0-0.3,0-0.4,0-0.5
										c0-0.1-0.1-0.2-0.1-0.2c0,0.3,0,0.6,0,0.9c-0.2-0.1-0.3-0.1-0.4-0.2C15.2,13,15.2,12.3,15.2,11.8z M14.6,12
										c0.1-0.1,0.2-0.2,0.4-0.4l0,1.9c-0.1,0.1-0.2,0.2-0.4,0.3V12z M14,12.4c0,0,0.4-0.2,0.5-0.3c0,0.1,0,1.7,0,1.7
										C14.3,14,14.1,14,14,14.1V12.4z M11.4,22.7c-0.1-0.2-0.3-0.4-0.4-0.5c0.2-0.2,0.3-0.3,0.4-0.5V22.7z M11.9,23.6
										c-0.1-0.3-0.3-0.5-0.4-0.7c0-0.4,0-1.3,0-1.6c0,0,0.2-0.2,0.4-1.2c0,0.9,0,2.2,0,3.2C12,23.5,12,23.6,11.9,23.6z M12,17
										c-0.1-0.4-0.1-0.9-0.4-1.4c0-0.7,0-1.6,0-2.3c0.2,0,0.3,0.1,0.4,0.1C12,14.4,12,16.8,12,17z M12.1,19.2c0-0.4,0-1.1,0-1.6
										C12.1,17.8,12.1,18.7,12.1,19.2z M13.8,22.9c-0.1,0-0.1-0.1-0.2-0.1c-0.1,0.1-0.1,0.1-0.2,0.1v-0.5h-0.2v0.6
										c-0.1,0-0.2,0.1-0.4,0.2c0-0.3,0-0.6,0-0.8c-0.1,0-0.1,0-0.2,0c0,0.2,0,0.6,0,0.9c-0.1,0-0.2,0.1-0.4,0.1v-9.7
										c0-0.2,0-0.6,0-0.6s0.3-0.5,0.4-0.5c0,0,0,0.3,0,0.3h0.2l0-0.2c0.1,0,0.2,0,0.4,0v0.3h0.2c0-0.1,0-0.3,0-0.3
										c0.2-0.1,0.3-0.1,0.5-0.1v1.7c-0.2,0.1-0.3,0.1-0.5,0.2c0,0,0-0.1,0-0.1c0,0-0.2,0-0.2,0v0.2c-0.1,0-0.1,0-0.2,0.1
										c0.1,0.1,0.2,0.2,0.2,0.6c0,0.2,0,1.4,0,2h0.2c0-0.6,0-1.2,0-1.7c0.8,2.7-0.1,4.3,0.3,5.3c0.1,0.3,0.2,0.3,0.2,0.5V22.9z
										 M14,23.1c0-0.6,0-1.2,0-1.8c0,0,0.2,0.1,0.5,0.2c0,0.7,0,1.4,0,2C14.2,23.3,14.1,23.2,14,23.1z M14.4,23.5v0.9
										c-0.1,0-0.2-0.5-0.2-0.7C14.4,23.6,14.4,23.5,14.4,23.5z M13.9,24.3c0,0-0.1,0.1-0.2,0.4c-0.1-0.1-0.3-0.2-0.4-0.3
										c0.2-0.4,0.6-0.7,0.8-0.7c0,0.3,0,0.8,0.6,1.4C14,25.1,13.9,24.7,13.9,24.3z M14.6,24.7v-3.3c0.1,0,0.1,0,0.2,0
										c0,0.1,0.1,0.2,0.1,0.4c0,0,0,2.7,0,3.2C15,25,14.8,24.9,14.6,24.7z M15.2,25v-0.6C15.5,24.4,15.6,24.9,15.2,25z
										 M15.6,23.4h-0.4v-0.3c0.1,0.1,0.3,0.2,0.4,0.2V23.4z M15.6,23.1c0,0-0.3,0-0.4-0.1V22c0.2,0.2,0.4,0.3,0.4,0.3
										C15.6,22.3,15.6,23,15.6,23.1z M16.3,23.5c-0.2,0.1-0.3,0.2-0.3,0.3c0-0.1-0.1-0.3-0.3-0.3v-1c0.1,0.1,0.3,0.3,0.3,0.5
										c0-0.2,0.2-0.4,0.3-0.5V23.5z M16.9,23.4h-0.4v-0.1c0.1,0,0.3-0.1,0.4-0.2V23.4z M16.9,23c-0.1,0.1-0.3,0.1-0.4,0.1
										c0-0.2,0-0.8,0-0.8c0,0,0.2-0.2,0.4-0.3V23z M17.1,25c0-0.5,0-3.2,0-3.2c0-0.2,0.1-0.2,0.1-0.4c0.1,0,0.1,0,0.2,0v3.3
										C17.3,24.9,17.1,25,17.1,25z M18,23.7c0.2,0,0.7,0.3,0.8,0.7c-0.1,0.1-0.3,0.2-0.4,0.3c-0.1-0.3-0.1-0.4-0.2-0.4
										c0,0.4-0.2,0.8-0.8,0.8C18,24.5,18,24.1,18,23.7z M17.6,24.4v-0.9c0.1,0.1,0.1,0.1,0.2,0.2C17.8,23.9,17.8,24.4,17.6,24.4z
										 M17.6,23.5c0-0.6,0-1.4,0-2c0.3-0.1,0.5-0.2,0.5-0.2c0,0.6,0,1.2,0,1.8C17.9,23.2,17.9,23.3,17.6,23.5z M17.1,21.3
										c-0.2,0.6-0.8,0.6-1,1.2c-0.2-0.6-0.8-0.6-1-1.2c-0.8,0-1.2-0.4-1.3-1.1c0-0.3,0-0.6,0.1-1c0-0.3,0.1-0.7,0.1-1
										c0.1-1.5-0.2-2.7-0.7-3.6c0.7-0.2,1.3-0.5,1.8-1c0.1,0.1,0.2,0.1,0.3,0.2c0.2,0.1,0.5,0.2,0.8,0.2c0.3,0,0.6-0.1,0.8-0.2
										c0.1-0.1,0.2-0.1,0.3-0.2c0.5,0.4,1.1,0.8,1.8,1c-0.5,0.9-0.7,2.1-0.7,3.6c0,0.3,0,0.7,0.1,1c0,0.3,0.1,0.7,0.1,1
										C18.3,20.9,17.9,21.4,17.1,21.3z M19.9,13.8v9.7c-0.2,0-0.3-0.1-0.4-0.1c0-0.3,0-0.6,0-0.9c0,0-0.1,0-0.2,0
										c0,0.2,0,0.5,0,0.8c-0.1-0.1-0.3-0.2-0.4-0.2v-0.6h-0.2V23c-0.1-0.1-0.1-0.1-0.2-0.1c-0.1,0.1-0.1,0.1-0.2,0.1v-1.8
										c0-0.2,0.1-0.2,0.2-0.5c0.3-1-0.6-2.6,0.3-5.3c0,0.5,0,1.2,0,1.7h0.2c0-0.5,0-1.8,0-2c0-0.4,0.1-0.5,0.2-0.6
										c-0.1,0-0.1,0-0.2-0.1v-0.2c0,0-0.2,0-0.2,0c0,0,0,0.1,0,0.1c-0.2-0.1-0.3-0.1-0.5-0.2v-1.7c0.2,0.1,0.3,0.1,0.5,0.1
										c0,0,0,0.2,0,0.3h0.2v-0.3c0.2,0,0.3,0,0.4,0l0,0.2h0.2c0,0,0-0.3,0-0.3c0.1,0,0.4,0.5,0.4,0.5S19.9,13.6,19.9,13.8z
										 M20,19.2c-0.1-0.5,0-1.4,0-1.6C20,18.1,20.1,18.8,20,19.2z M20.7,21.7c0.2,0.2,0.2,0.2,0.4,0.5c-0.1,0.1-0.3,0.3-0.4,0.5
										V21.7z M20.5,21.4c0,0.2,0,1.2,0,1.6c-0.1,0.1-0.2,0.4-0.4,0.7c-0.1,0,0-0.1,0-0.2c0-1,0-2.3,0-3.2
										C20.3,21.1,20.5,21.3,20.5,21.4z M20.1,17c-0.1-0.2,0-2.6,0-3.6c0.1-0.1,0.3-0.1,0.4-0.1c0,0.6,0,1.6,0,2.3
										C20.3,16.1,20.2,16.5,20.1,17z M21.1,14.6c0,0-0.2,0.2-0.4,0.5c0-0.3,0-1.3,0-1.8c0.1,0,0.3,0,0.4,0.1
										C21.1,13.6,21.1,14.2,21.1,14.6z M21.3,14.5c0-0.2,0-0.9,0-0.9c0.2,0.2,0.2,0.4,0.3,0.6C21.5,14.3,21.4,14.3,21.3,14.5z
										 M22.3,16.1c-0.8-0.1-0.6-1.1-0.6-1.3c0.1,0.3,0.3,0.8,0.8,0.9c0.5,0,0.9-0.5,0.9-0.6C23.6,16.1,22.6,16.1,22.3,16.1z
										 M22,17.8C22,17.7,22,17.8,22,17.8c0.1,0.1,0.5,0.1,0.6,0C22.7,18.1,22,18.2,22,17.8z"/>
									
										<rect x="12.6" y="18.5" transform="matrix(-1 -1.224647e-16 1.224647e-16 -1 25.3225 39.6081)" class="st2" width="0.2" height="2.6"/>
									
										<rect x="13.2" y="18.5" transform="matrix(-1 -1.224647e-16 1.224647e-16 -1 26.4966 39.6081)" class="st2" width="0.2" height="2.6"/>
									
										<rect x="12.6" y="14.3" transform="matrix(-1 -1.224647e-16 1.224647e-16 -1 25.3225 31.4439)" class="st2" width="0.2" height="2.8"/>
									<path class="st2" d="M14.1,10.1c-0.2-0.4-0.4-0.1-0.4-0.1c0,0-0.2,0.5,0.3,0.4c0,0,0,0.7-0.7,0.7c-0.7,0-0.8-0.8-0.8-0.8
										s0.8-0.6-0.2-1.6c0,0-0.4-0.2-0.4-0.6c0,0-0.1,0.1,0,0.4c0,0-1.3,0.2-1.6,2.7c-0.1,0.6-0.3,1.9-0.6,2.1c0,0-0.3-0.4-0.5,0
										c-0.2,0.4,0.2,0.4,0.3,0.4c0.1,0,0.2-0.1,0.2-0.1s0.5,0.1,0.7-0.8c0,0,0.4-0.1,0.2-1.1c0,0,0.5-0.3,0.2-1.1
										c0,0,0.4,0,0.4-0.7c0,0,0.4-0.1,0.4-0.9c0,0,0.1-0.3,0.5-0.3c0.4,0,0.6,0.7,0.4,1c0,0-0.4-0.1-0.4,0.2
										c0,0.3,0.2,0.3,0.2,0.3s0.1,1.4,0.9,1.6c0.8,0.2,1-0.4,1.1-0.6C14.3,11.1,14.3,10.5,14.1,10.1z M13.2,11.5
										c-0.6,0-0.7-0.8-0.7-0.8c0.7,1.1,1.5,0.2,1.5,0.2S13.8,11.6,13.2,11.5z"/>
									<path class="st2" d="M12.2,9.6c0,0-0.8-0.2-0.6,0.5c0,0-0.4,0.3-0.2,0.7c0,0-0.3,0.2-0.1,1c0,0,0.4,0.2,0.6,0.7
										c0,0,0.3-0.2-0.2-0.7c0,0,0.1-0.3,0.3,0.2c0,0,0.1-0.2-0.3-0.6c0,0-0.2-0.6,0.3,0c0,0,0.1-0.2-0.2-0.5c0,0-0.3-0.6,0.3-0.2
										C12.1,10.7,11.5,9.6,12.2,9.6z"/>
									<path class="st2" d="M11.8,12.8c0,0-0.1-0.5-0.7-0.6c0,0-0.1,0-0.1,0.1s0.3,0.2,0.3,0.2S11.5,12.5,11.8,12.8z"/>
									<path class="st2" d="M11.8,13c0,0,0-0.4-0.8-0.5c0,0-0.1,0-0.1,0.1s0.2,0.1,0.2,0.1S11.4,12.7,11.8,13z"/>
								</g>
							</g>
						</g>
					</g>
				</g>
				<circle class="st2" cx="15.5" cy="4.1" r="0.1"/>
				<circle class="st2" cx="15.2" cy="4.3" r="0.1"/>
				<circle class="st2" cx="14.8" cy="4.3" r="0.1"/>
				<circle class="st2" cx="14.5" cy="4.1" r="0.1"/>
				<circle class="st2" cx="14.2" cy="4" r="0.1"/>
				<circle class="st2" cx="15" cy="3.6" r="0.1"/>
				<circle class="st2" cx="14.7" cy="3.5" r="0.1"/>
				<circle class="st2" cx="14.3" cy="3.5" r="0.1"/>
				<circle class="st2" cx="13.9" cy="3.5" r="0.1"/>
				<circle class="st2" cx="13.5" cy="3.6" r="0.1"/>
				<circle class="st2" cx="13.2" cy="3.8" r="0.1"/>
				<circle class="st2" cx="12.9" cy="4.1" r="0.1"/>
				<circle class="st2" cx="12.8" cy="4.5" r="0.1"/>
				<circle class="st2" cx="12.7" cy="4.8" r="0.1"/>
				<circle class="st2" cx="12.7" cy="5.2" r="0.1"/>
				<circle class="st2" cx="12.8" cy="5.6" r="0.1"/>
				<circle class="st2" cx="13.1" cy="6" r="0.1"/>
				<circle class="st2" cx="13.5" cy="6.2" r="0.1"/>
				<circle class="st2" cx="12" cy="7.1" r="0.1"/>
				<circle class="st2" cx="11.7" cy="6.9" r="0.1"/>
				<circle class="st2" cx="11.4" cy="6.5" r="0.1"/>
				<circle class="st2" cx="11.2" cy="6" r="0.1"/>
				<circle class="st2" cx="11.2" cy="5.6" r="0.1"/>
				<circle class="st2" cx="11.3" cy="5.1" r="0.1"/>
				<circle class="st2" cx="11.9" cy="4.4" r="0.1"/>
				<circle class="st2" cx="12.2" cy="4.1" r="0.1"/>
				<circle class="st2" cx="12.6" cy="4" r="0.1"/>
			</g>
		</g>
	</g>
	<g>
		<path class="st2" d="M22.7,7.4c-0.1,0-0.1,0-0.2,0c-0.3,0.1-0.5,0.5-0.4,0.9c0.1,0.1,0.2,0.3,0.4,0.3c0.4,0.1,0.8-0.2,0.9-0.5
			C23.5,7.7,23.1,7.3,22.7,7.4z M23.1,8.1c-0.1,0.1-0.4,0.4-0.7,0.3c-0.1,0-0.2-0.1-0.2-0.2c0-0.2,0.2-0.3,0.3-0.4
			c0.1-0.1,0.2-0.2,0.5-0.2c0.2,0,0.3,0,0.3,0.1C23.2,7.9,23.1,8,23.1,8.1z"/>
		<path class="st2" d="M9.6,7.8C9.5,7.7,9.3,7.5,9,7.5c-0.4,0-0.6,0.2-0.6,0.7c0,0.1,0,0.2,0.1,0.3c0.1-0.1,0-0.2,0-0.3
			c0-0.1,0-0.2,0.1-0.3c0,0.1,0,0.2,0,0.3c0,0.1,0.1,0.2,0.1,0.2c0,0,0-0.1,0.1-0.1C9,8.5,9.3,8.6,9.3,9c0.1-0.1,0.2-0.2,0.3-0.3
			c0.1-0.1,0.2-0.3,0.2-0.4C9.8,8.1,9.7,7.9,9.6,7.8z M9.4,8.5C9.2,8.3,9,8.2,8.8,8C8.7,7.8,8.7,7.6,9,7.7c0.2,0,0.4,0.2,0.5,0.3
			C9.5,8.2,9.5,8.3,9.4,8.5z"/>
		<path class="st2" d="M23.6,8.4c-0.1,0.4-0.3,0.7-0.4,1.1c0.1,0,0.2-0.1,0.3-0.2c0.1-0.1,0.4-0.3,0.5-0.1c0.1,0.1,0.1,0.3-0.1,0.3
			c-0.1-0.3-0.3-0.1-0.5,0.1C23.2,9.7,23,9.7,23.1,10c-0.1-0.1-0.2-0.3-0.3-0.5c0.1,0,0.1,0,0.1,0C23,9.3,23.1,9,23.2,8.7
			c-0.1,0-0.2,0.1-0.3,0.2C22.8,9,22.6,9,22.7,9.3c-0.1-0.1-0.1-0.3-0.2-0.4c0.3,0.1,0.4-0.1,0.7-0.3C23.3,8.5,23.4,8.4,23.6,8.4
			C23.6,8.3,23.6,8.3,23.6,8.4z"/>
		<path class="st2" d="M7.8,9.3C7.8,9.3,7.7,9.3,7.8,9.3C7.9,9.5,8,9.7,8.1,9.8C8.2,9.7,8.1,9.7,8,9.6c0.1-0.1,0.1-0.1,0.1-0.2
			c0.1,0,0.1,0,0.2,0c0,0,0,0,0-0.1C8.2,9.3,8,9.3,7.8,9.3z M8,9.5c-0.1,0-0.1-0.1-0.2-0.2c0.1,0,0.2,0,0.3,0C8.1,9.4,8,9.5,8,9.5z"
			/>
		<path class="st2" d="M8.6,9.4c0,0.2-0.2,0.3-0.3,0.5c0,0.1-0.1,0.2-0.1,0.3c0,0.1-0.1,0.2-0.2,0.2c0-0.1,0-0.2,0.1-0.3
			c0.1-0.2,0.2-0.5,0.4-0.7C8.5,9.4,8.5,9.4,8.6,9.4C8.6,9.3,8.6,9.4,8.6,9.4z"/>
		<path class="st2" d="M8.9,9.5C9,9.8,8.6,9.9,8.6,9.6C8.6,9.5,8.7,9.5,8.9,9.5z"/>
		<path class="st2" d="M7.8,9.8L7.8,9.8c-0.2-0.3-0.4,0-0.4,0.2c0.2,0.1,0.3,0.2,0.5,0.3c0,0,0,0,0-0.1c-0.1,0-0.2-0.1-0.2-0.1
			c0-0.1,0.2-0.2,0.4-0.1c0,0,0,0,0-0.1C8,9.8,7.9,9.8,7.8,9.8z M7.7,10C7.6,10,7.5,10,7.5,9.9c0-0.1,0.1-0.3,0.3-0.2
			C7.8,9.9,7.7,9.9,7.7,10z"/>
		<path class="st2" d="M24.1,10.2c-0.1,0-0.1,0-0.2,0.1c0,0.1,0.1,0.1,0.1,0.1c0.1,0,0.2-0.1,0.2-0.2c0-0.2-0.2-0.3-0.4-0.3
			c-0.5,0-0.7,1.1,0.1,0.9c-0.3,0.3-0.7-0.1-0.7-0.4c0-0.4,0.4-0.8,0.8-0.7c0.3,0,0.5,0.2,0.5,0.6c0,0.2-0.2,0.4-0.4,0.5
			c-0.2,0.1-0.4-0.1-0.4-0.3C23.7,10.2,23.9,10,24.1,10.2z"/>
		<path class="st2" d="M7.3,10.2C7.3,10.2,7.3,10.2,7.3,10.2c0,0.1,0.1,0.2,0.2,0.3c0,0,0.1,0,0,0.1c-0.2-0.1-0.4,0.3-0.2,0.4
			c0.1,0,0.2-0.2,0.3-0.3c0.1-0.1,0.2-0.3,0.4-0.3c0.4,0,0.5,0.7,0.2,1c-0.1,0.1-0.6,0.2-0.6-0.1c0-0.1,0.2-0.1,0.1-0.3
			c0.1,0,0.2,0.1,0.3,0.2c0,0-0.1,0-0.2,0c0,0.1,0,0.1,0.1,0.2c0.2,0,0.4-0.3,0.3-0.5c-0.1-0.2-0.3-0.1-0.4,0.1
			c-0.1,0.2-0.3,0.5-0.6,0.3c-0.1-0.1-0.2-0.2-0.2-0.4c0-0.2,0.2-0.3,0.3-0.4C7.3,10.3,7.2,10.2,7.3,10.2z"/>
		<path class="st2" d="M24.6,10.7c0.3,0.1,0.4,0.4,0.4,0.7c0,0.2,0,0.3-0.2,0.4c-0.2,0-0.2-0.2-0.2-0.4c0.1,0,0.1,0.1,0.2,0.1
			c0.1-0.1,0-0.3,0-0.4c-0.1-0.1-0.3,0-0.4,0.1c0,0.1,0.1,0.1,0.2,0.2c-0.1,0.1-0.2,0.1-0.3,0.2c0.1-0.1,0.1-0.3,0-0.3
			c-0.1,0-0.3,0.2-0.3,0.2c0,0.1,0.1,0.4,0.2,0.4c0,0,0.1,0,0.2,0c0,0,0,0.1-0.1,0.1c-0.1,0.1-0.2,0.2-0.3,0.2
			c0-0.4-0.2-0.7-0.4-1.1c0.1,0,0.1,0.1,0.2,0.1c0.1,0,0.3-0.1,0.4-0.2c0.1-0.1,0.3-0.1,0.4-0.2C24.6,10.7,24.5,10.7,24.6,10.7z"/>
		<path class="st2" d="M25.2,11.9c0.1,0.2,0.1,0.4,0.1,0.5c-0.3-0.2-0.9,0-1.1,0.2c-0.1,0-0.1,0.1-0.2,0.1c0-0.2-0.1-0.3-0.1-0.5
			C24.5,12.5,25,12.2,25.2,11.9z"/>
		<path class="st2" d="M7.7,12c0.1,0,0.2,0,0.2,0.1c0,0.2-0.3,0.2-0.3,0C7.6,12.1,7.6,12.1,7.7,12z"/>
		<path class="st2" d="M6.8,12.2c0,0.1-0.1,0.2,0.1,0.3c0.1,0,0.4,0,0.6,0c0.1,0,0.1,0,0.1,0c0.1,0,0.2-0.1,0.2-0.2
			c0,0.2-0.1,0.3-0.1,0.5c0,0.1,0-0.1-0.1,0c-0.3,0.1-0.5,0.3-0.8,0.4c0.1,0,0.2,0,0.3,0.1c0.2,0,0.3,0.1,0.4,0c0,0,0.1-0.1,0.1,0
			c-0.1,0.1-0.1,0.3-0.1,0.4c-0.1-0.2-0.4-0.2-0.8-0.3c-0.1,0-0.2,0-0.3,0c-0.1,0-0.2,0-0.2-0.1c0.2-0.2,0.5-0.3,0.8-0.4
			c0.1,0,0.2-0.1,0.2-0.2c0-0.1-0.1,0-0.2-0.1c-0.3,0-0.6,0-0.6-0.3C6.5,12.2,6.6,12,6.8,12.2z"/>
		<path class="st2" d="M25.1,13.2c-0.1,0-0.1,0-0.2,0.1c0,0.1,0.1,0.2,0.1,0.2c0.1,0,0.2-0.1,0.2-0.3c0-0.2-0.2-0.2-0.3-0.3
			c-0.6-0.1-1,0.9-0.2,0.9c-0.2,0.1-0.6,0-0.6-0.3c-0.1,0.1-0.4,0.1-0.4-0.1c0.1,0.1,0.3,0,0.4-0.1c0-0.2,0.1-0.4,0.2-0.5
			c0.4-0.4,1.2-0.2,1.1,0.5c0,0.2-0.2,0.4-0.4,0.4c-0.1,0-0.3,0-0.4-0.1C24.6,13.4,24.9,13,25.1,13.2z"/>
		<path class="st2" d="M19.6,17.2h-0.3c0,0.1,0,0.2,0,0.4h-0.1v-0.4H19v0.4h-0.1c0-0.1,0-0.2,0-0.4h-0.3v0.4c0,0.2,0.1,0.2,0.1,0.4
			c0,0.2-0.1,0.2-0.1,0.4H19c0-0.1,0.1-0.2,0.1-0.2c0.1,0,0.2,0.1,0.1,0.2h0.3c0-0.2-0.1-0.2-0.1-0.4c0-0.2,0.1-0.3,0.1-0.4V17.2z"
			/>
		<path class="st2" d="M13.5,17.2h-0.3c0,0.1,0,0.2,0,0.4h-0.1v-0.4h-0.3v0.4h-0.1c0-0.1,0-0.2,0-0.4h-0.3v0.4
			c0,0.2,0.1,0.2,0.1,0.4c0,0.2-0.1,0.2-0.1,0.4h0.3c0-0.1,0.1-0.2,0.1-0.2c0.1,0,0.2,0.1,0.1,0.2h0.3c0-0.2-0.1-0.2-0.1-0.4
			c0-0.2,0.1-0.3,0.1-0.4V17.2z"/>
		<path class="st2" d="M15.6,14.4v0.9c0,0.5,0.2,0.9,0.5,1.2c0.3-0.2,0.5-0.7,0.5-1.2v-0.9H15.6z M15.9,14.8
			C15.9,14.8,15.9,14.9,15.9,14.8c0.1,0.1,0.1,0.2,0,0.2C15.8,15,15.8,15,15.9,14.8C15.8,14.9,15.8,14.8,15.9,14.8z M15.9,15.8
			C15.8,15.8,15.8,15.8,15.9,15.8c-0.1-0.1-0.1-0.2,0-0.2C15.9,15.6,15.9,15.7,15.9,15.8C15.9,15.8,15.9,15.8,15.9,15.8z M16,15.4
			C16,15.4,15.9,15.4,16,15.4c-0.1-0.1-0.1-0.2,0-0.2C16.1,15.2,16.1,15.3,16,15.4C16.1,15.4,16.1,15.4,16,15.4z M16.2,15.8
			C16.2,15.8,16.1,15.8,16.2,15.8c-0.1-0.1-0.1-0.2,0-0.2C16.3,15.6,16.3,15.7,16.2,15.8C16.3,15.8,16.3,15.8,16.2,15.8z M16.2,15
			C16.2,15,16.1,15,16.2,15c-0.1-0.1-0.1-0.2,0-0.2C16.3,14.8,16.3,14.9,16.2,15C16.3,15,16.3,15,16.2,15z"/>
		<path class="st2" d="M15.6,16.9v0.9c0,0.5,0.2,0.9,0.5,1.2c0.3-0.2,0.5-0.7,0.5-1.2v-0.9H15.6z M15.9,17.3
			C15.9,17.3,15.9,17.4,15.9,17.3c0.1,0.1,0.1,0.2,0,0.2C15.8,17.5,15.8,17.5,15.9,17.3C15.8,17.4,15.8,17.3,15.9,17.3z M15.9,18.3
			C15.8,18.3,15.8,18.3,15.9,18.3c-0.1-0.1-0.1-0.2,0-0.2C15.9,18.1,15.9,18.2,15.9,18.3C15.9,18.3,15.9,18.3,15.9,18.3z M16,17.9
			C16,17.9,15.9,17.9,16,17.9c-0.1-0.1-0.1-0.2,0-0.2C16.1,17.7,16.1,17.8,16,17.9C16.1,17.9,16.1,17.9,16,17.9z M16.2,18.3
			C16.2,18.3,16.1,18.3,16.2,18.3c-0.1-0.1-0.1-0.2,0-0.2C16.3,18.1,16.3,18.2,16.2,18.3C16.3,18.3,16.3,18.3,16.2,18.3z M16.2,17.5
			C16.2,17.5,16.1,17.5,16.2,17.5c-0.1-0.1-0.1-0.2,0-0.2C16.3,17.3,16.3,17.4,16.2,17.5C16.3,17.5,16.3,17.5,16.2,17.5z"/>
		<path class="st2" d="M14.2,16.9v0.9c0,0.5,0.2,0.9,0.5,1.2c0.3-0.2,0.5-0.7,0.5-1.2v-0.9H14.2z M14.4,17.3
			C14.5,17.3,14.5,17.4,14.4,17.3c0.1,0.1,0.1,0.2,0,0.2C14.4,17.5,14.3,17.5,14.4,17.3C14.3,17.4,14.4,17.3,14.4,17.3z M14.4,18.3
			C14.4,18.3,14.3,18.3,14.4,18.3c-0.1-0.1-0.1-0.2,0-0.2C14.5,18.1,14.5,18.2,14.4,18.3C14.5,18.3,14.5,18.3,14.4,18.3z M14.6,17.9
			C14.6,17.9,14.5,17.9,14.6,17.9c-0.1-0.1-0.1-0.2,0-0.2C14.7,17.7,14.7,17.8,14.6,17.9C14.7,17.9,14.7,17.9,14.6,17.9z M14.8,18.3
			C14.8,18.3,14.7,18.3,14.8,18.3c-0.1-0.1-0.1-0.2,0-0.2C14.9,18.1,14.9,18.2,14.8,18.3C14.9,18.3,14.9,18.3,14.8,18.3z M14.8,17.5
			C14.8,17.5,14.7,17.5,14.8,17.5c-0.1-0.1-0.1-0.2,0-0.2C14.9,17.3,14.9,17.4,14.8,17.5C14.9,17.5,14.9,17.5,14.8,17.5z"/>
		<path class="st2" d="M17,16.9v0.9c0,0.5,0.2,0.9,0.5,1.2c0.3-0.2,0.5-0.7,0.5-1.2v-0.9H17z M17.3,17.3
			C17.3,17.3,17.4,17.4,17.3,17.3c0.1,0.1,0.1,0.2,0,0.2C17.2,17.5,17.2,17.5,17.3,17.3C17.2,17.4,17.2,17.3,17.3,17.3z M17.3,18.3
			C17.2,18.3,17.2,18.3,17.3,18.3c-0.1-0.1-0.1-0.2,0-0.2C17.3,18.1,17.4,18.2,17.3,18.3C17.4,18.3,17.3,18.3,17.3,18.3z M17.5,17.9
			C17.4,17.9,17.4,17.9,17.5,17.9c-0.1-0.1-0.1-0.2,0-0.2C17.5,17.7,17.6,17.8,17.5,17.9C17.6,17.9,17.5,17.9,17.5,17.9z M17.6,18.3
			C17.6,18.3,17.6,18.3,17.6,18.3c-0.1-0.1-0.1-0.2,0-0.2C17.7,18.1,17.7,18.2,17.6,18.3C17.7,18.3,17.7,18.3,17.6,18.3z M17.6,17.5
			C17.6,17.5,17.6,17.5,17.6,17.5c-0.1-0.1-0.1-0.2,0-0.2C17.7,17.3,17.7,17.4,17.6,17.5C17.7,17.5,17.7,17.5,17.6,17.5z"/>
		<path class="st2" d="M15.6,19.4v0.9c0,0.5,0.2,0.9,0.5,1.2c0.3-0.2,0.5-0.7,0.5-1.2v-0.9H15.6z M15.9,19.8
			C15.9,19.8,15.9,19.9,15.9,19.8c0.1,0.1,0.1,0.2,0,0.2C15.8,20,15.8,20,15.9,19.8C15.8,19.9,15.8,19.8,15.9,19.8z M15.9,20.8
			C15.8,20.8,15.8,20.8,15.9,20.8c-0.1-0.1-0.1-0.2,0-0.2C15.9,20.6,15.9,20.7,15.9,20.8C15.9,20.8,15.9,20.8,15.9,20.8z M16,20.4
			C16,20.4,15.9,20.4,16,20.4c-0.1-0.1-0.1-0.2,0-0.2C16.1,20.2,16.1,20.3,16,20.4C16.1,20.4,16.1,20.4,16,20.4z M16.2,20.8
			C16.2,20.8,16.1,20.8,16.2,20.8c-0.1-0.1-0.1-0.2,0-0.2C16.3,20.6,16.3,20.7,16.2,20.8C16.3,20.8,16.3,20.8,16.2,20.8z M16.2,20
			C16.2,20,16.1,20,16.2,20c-0.1-0.1-0.1-0.2,0-0.2C16.3,19.8,16.3,19.9,16.2,20C16.3,20,16.3,20,16.2,20z"/>
		<path class="st2" d="M19.6,13h-0.3c0,0.1,0,0.2,0,0.4h-0.1V13H19v0.4h-0.1c0-0.1,0-0.2,0-0.4h-0.3v0.4c0,0.2,0.1,0.2,0.1,0.4
			c0,0.2-0.1,0.2-0.1,0.4H19c0-0.1,0.1-0.2,0.1-0.2c0.1,0,0.2,0.1,0.1,0.2h0.3c0-0.2-0.1-0.2-0.1-0.4c0-0.2,0.1-0.3,0.1-0.4V13z"/>
		<path class="st2" d="M13.5,13h-0.3c0,0.1,0,0.2,0,0.4h-0.1V13h-0.3v0.4h-0.1c0-0.1,0-0.2,0-0.4h-0.3v0.4c0,0.2,0.1,0.2,0.1,0.4
			c0,0.2-0.1,0.2-0.1,0.4h0.3c0-0.1,0.1-0.2,0.1-0.2c0.1,0,0.2,0.1,0.1,0.2h0.3c0-0.2-0.1-0.2-0.1-0.4c0-0.2,0.1-0.3,0.1-0.4V13z"/>
		<path class="st2" d="M19.6,21.2h-0.3c0,0.1,0,0.2,0,0.4h-0.1v-0.4H19v0.4h-0.1c0-0.1,0-0.2,0-0.4h-0.3v0.4c0,0.2,0.1,0.2,0.1,0.4
			c0,0.2-0.1,0.2-0.1,0.4H19c0-0.1,0.1-0.2,0.1-0.2c0.1,0,0.2,0.1,0.1,0.2h0.3c0-0.2-0.1-0.2-0.1-0.4c0-0.2,0.1-0.3,0.1-0.4V21.2z"
			/>
		<path class="st2" d="M13.5,21.2h-0.3c0,0.1,0,0.2,0,0.4h-0.1v-0.4h-0.3v0.4h-0.1c0-0.1,0-0.2,0-0.4h-0.3v0.4
			c0,0.2,0.1,0.2,0.1,0.4c0,0.2-0.1,0.2-0.1,0.4h0.3c0-0.1,0.1-0.2,0.1-0.2c0.1,0,0.2,0.1,0.1,0.2h0.3c0-0.2-0.1-0.2-0.1-0.4
			c0-0.2,0.1-0.3,0.1-0.4V21.2z"/>
		<path class="st2" d="M16.5,12.4h-0.3c0,0.1,0,0.2,0,0.4h-0.1v-0.4h-0.3v0.4h-0.1c0-0.1,0-0.2,0-0.4h-0.3v0.4
			c0,0.2,0.1,0.2,0.1,0.4c0,0.2-0.1,0.2-0.1,0.4h0.3c0-0.1,0.1-0.2,0.1-0.2c0.1,0,0.2,0.1,0.1,0.2h0.3c0-0.2-0.1-0.2-0.1-0.4
			c0-0.2,0.1-0.3,0.1-0.4V12.4z"/>
		<path class="st2" d="M25.7,14.5c-0.1,0.1-0.4,0.2-0.5,0c0-0.1,0-0.2,0-0.3c0,0-0.2,0-0.2,0c0,0,0,0.1,0,0.1c0,0,0.1,0,0.1,0
			c0,0.1,0,0.2,0,0.2c-0.3,0-0.4-0.1-0.4-0.3c0,0,0.1,0,0.1-0.1c0-0.1-0.2-0.2-0.3-0.1c0,0-0.1,0.2-0.1,0.3c0,0.2,0.4,0.3,0.5,0.3
			c-0.1,0.1-0.2,0.1-0.3,0.2c0.1,0.1,0.2,0.1,0.3,0.1c-0.1,0.1-0.2,0.1-0.3,0.1c-0.1,0-0.1-0.1-0.1,0c0,0.1,0,0.3,0,0.5
			c0.3-0.2,0.7-0.5,1.2-0.4C25.7,14.9,25.6,14.7,25.7,14.5z M25,14.9c0,0,0-0.2,0-0.2c0.1,0,0.3,0,0.4,0
			C25.4,14.9,25.1,14.9,25,14.9z"/>
		<path class="st2" d="M26.1,15C26.1,15,26.1,15.1,26.1,15c-0.1,0.1-0.2,0-0.2,0c-0.1-0.1,0-0.2,0-0.3c0-0.1-0.1-0.1-0.1-0.2
			c0.1,0,0.3,0,0.3,0.1c0,0.1-0.1,0.2-0.1,0.3C26,15,26,15,26.1,15z"/>
		<path class="st2" d="M7.4,14.6c-0.1,0.3-0.1,0.7-0.1,1.1c0,0.1,0,0-0.1-0.1c0,0-0.1,0-0.1-0.1c-0.2,0.1-0.7-0.1-0.8,0
			c0,0-0.1,0.1-0.1,0.1C6.1,15.7,6,15.5,6,15.2c0-0.2,0.1-0.6,0.2-0.6c0.2-0.1,0.3,0.2,0.2,0.4c-0.1,0-0.1-0.1-0.2-0.2
			c-0.1,0.1-0.1,0.3-0.1,0.4c0,0.2,0.2,0.1,0.4,0.1c0-0.1,0-0.2-0.1-0.2c0.1,0,0.2-0.1,0.3-0.1c0,0-0.1,0.1-0.1,0.2
			c0,0.1,0,0.1,0.1,0.1c0.1,0,0.2,0,0.3-0.1c0.1-0.1,0.1-0.3,0.1-0.5c0-0.1-0.1-0.1-0.2-0.1C7.1,14.7,7.2,14.7,7.4,14.6z"/>
		<path class="st2" d="M25.1,15.4c-0.3,0-0.6,0.3-0.6,0.6c0,0.2,0.1,0.4,0.2,0.5c0.3,0.2,0.8,0.1,1-0.1
			C26.1,15.9,25.6,15.3,25.1,15.4z M24.6,16c0-0.2,0.2-0.3,0.4-0.3c0.3,0,0.7,0,0.7,0.3C25.8,16.4,24.6,16.4,24.6,16z"/>
		<path class="st2" d="M7.1,16c-0.1-0.1-0.2-0.1-0.3-0.2C6.5,15.8,6,16,5.9,16.3c0,0.2,0.1,0.4,0.2,0.5C6.2,16.9,6.3,17,6.4,17
			c0-0.1-0.2-0.2-0.2-0.3c0,0-0.1-0.1-0.1-0.2c0.1,0.1,0.1,0.3,0.4,0.3c0,0,0-0.1,0-0.1c0.2,0,0.5-0.1,0.6,0c0,0,0,0,0.1,0.1
			c0,0,0,0.1,0.1,0C7.2,16.6,7.3,16.2,7.1,16z M6.1,16.3c0-0.3,0.6-0.3,0.8-0.2C7,16.2,7,16.3,7.1,16.5C6.8,16.5,6.1,16.5,6.1,16.3z
			"/>
		<path class="st2" d="M25.5,17.8c-0.1-0.1-0.1-0.2-0.3-0.2C25.3,17.7,25.4,17.8,25.5,17.8c0,0.1,0,0.2,0,0.3
			c-0.1,0-0.1-0.1-0.1-0.2c0-0.1-0.1-0.1-0.2-0.2c0,0,0,0.1,0,0.1c-0.3,0-0.7,0-0.8-0.3c0,0.3-0.1,0.7,0,0.9
			c0.1,0.2,0.4,0.3,0.6,0.3c0.2,0,0.4-0.1,0.5-0.2C25.8,18.4,25.7,18,25.5,17.8z M24.7,18.5c-0.1-0.1-0.1-0.2-0.1-0.4v0
			c0.2,0.1,0.9,0,0.9,0.3C25.5,18.6,24.9,18.7,24.7,18.5z"/>
		<path class="st2" d="M7.4,18c0.1,0.3,0.1,0.7,0.1,1.1c-0.4-0.2-1.1,0-1.3,0.2c0-0.2,0-0.3-0.1-0.5c0.3,0.1,0.8,0.1,1-0.1
			c0.1-0.1,0.1-0.2,0.1-0.3c-0.1-0.1-0.3,0-0.5,0c0-0.1,0-0.1,0-0.2C7,18,7.3,18.1,7.4,18z"/>
		<path class="st2" d="M25.1,19C25,19,24.8,19,24.7,19c-0.4,0.1-0.6,0.4-0.5,0.8c0.1,0.3,0.7,0.5,1,0.4c0.1-0.1,0.3-0.2,0.3-0.4
			C25.6,19.5,25.3,19.1,25.1,19z M25,19.9c-0.3,0-0.8-0.2-0.7-0.5c0-0.1,0.1-0.2,0.2-0.2c0.3-0.1,0.9,0.2,0.9,0.5
			C25.4,19.9,25.2,19.9,25,19.9z"/>
		<path class="st2" d="M7.3,20.1C7.4,20,7.5,20,7.5,19.9c-0.1-0.1-0.2,0-0.3-0.1c0.1-0.1,0.2-0.2,0.4-0.1c0-0.2-0.1-0.3-0.1-0.5
			c-0.3,0.3-0.6,0.6-1.1,0.6c0.1,0.1,0.1,0.4,0.2,0.5c0.1-0.1,0.4-0.2,0.5-0.1c0.1,0.1,0,0.2,0.1,0.3c0.1,0.1,0.3-0.1,0.2-0.1
			c-0.1,0-0.1,0-0.1,0c0-0.1,0-0.1,0-0.2c0.2-0.1,0.5,0,0.5,0.2c0,0-0.1,0-0.1,0.1c0,0.1,0.2,0.1,0.3,0.1C8,20.2,7.6,20.1,7.3,20.1z
			 M7.2,20c-0.1,0-0.3,0.1-0.4,0.1c0-0.2,0.2-0.2,0.4-0.3C7.2,19.8,7.2,19.9,7.2,20z"/>
		<path class="st2" d="M8,20.7c0,0.4,0.2,0.8,0.4,1.1c-0.2-0.2-0.4,0-0.6,0.1C7.6,22,7.4,22,7.4,22.1c0,0,0,0.1,0,0.1
			c-0.1-0.1-0.2-0.1-0.3-0.2c-0.1-0.2-0.2-0.6-0.2-0.8c0-0.1,0.1-0.1,0.2-0.1c0.2,0,0.2,0.2,0.2,0.4c-0.1,0-0.1-0.1-0.2-0.1
			c-0.1,0.1,0,0.2,0,0.3c0.1,0.2,0.3,0.2,0.5,0.1c0-0.1-0.1-0.1-0.2-0.2c0.1-0.1,0.2-0.1,0.2-0.2c0,0.1-0.1,0.3,0.1,0.3
			c0.1,0,0.3-0.1,0.3-0.2c0-0.2-0.1-0.5-0.4-0.4C7.8,20.9,7.9,20.8,8,20.7z"/>
		<path class="st2" d="M24.1,21.6c-0.1,0-0.2-0.1-0.3-0.1c0,0,0.1,0,0.2,0c0-0.1,0-0.1-0.1-0.2c-0.2,0-0.4,0.3-0.3,0.5
			c0.1,0.1,0.2,0.1,0.3,0c0.2-0.1,0.3-0.5,0.5-0.5c0.2,0,0.5,0.4,0.4,0.6c-0.1,0.1-0.3,0.1-0.3,0.4c0-0.1-0.1-0.2-0.1-0.2
			c0,0-0.1-0.1-0.1-0.1c0,0-0.1-0.1,0-0.1c0.2,0.1,0.4-0.4,0.2-0.4c-0.1,0-0.1,0.1-0.1,0.1c-0.1,0.1-0.2,0.3-0.3,0.4
			c-0.3,0.2-0.5-0.1-0.6-0.4c0-0.2,0-0.5,0.2-0.6c0.1-0.1,0.5-0.2,0.5,0C24.2,21.4,24.1,21.5,24.1,21.6C24,21.6,24,21.6,24.1,21.6z"
			/>
		<path class="st2" d="M8.4,22.1c0.1,0.1,0.1,0.3,0.2,0.4c-0.3,0.1-0.4,0.3-0.5,0.5c-0.1,0.2-0.6,0.1-0.4-0.2c0.1,0,0.2,0,0.2,0
			c0,0.1-0.1,0-0.1,0.1C7.9,23,8,23,8,22.9c0-0.1-0.1-0.2-0.3-0.2c-0.1,0-0.2,0.2-0.1,0.3c0,0.1,0.2,0.2,0.3,0.2
			c0.1,0,0.1-0.1,0.2-0.1c0.2-0.1,0.4-0.3,0.6-0.4C8.8,22.7,8.9,22.9,9,23c-0.4,0-0.7,0.2-0.9,0.4c0,0,0,0.1,0,0.1
			c-0.3,0-0.7-0.3-0.7-0.7c0-0.3,0.4-0.5,0.7-0.3C8.2,22.4,8.3,22.3,8.4,22.1z"/>
		<path class="st2" d="M23.7,23c0-0.1,0.2-0.2,0.2-0.3c0-0.1-0.1-0.1-0.2-0.1c0,0-0.1,0.1,0,0.1c0,0,0.1,0,0.1,0.1
			c-0.1,0-0.1,0.1-0.1,0.1c-0.1-0.1-0.3-0.3-0.2-0.5c0,0,0.1,0,0.1,0c0.1-0.4-0.4-0.3-0.4,0.1c0,0.2,0.2,0.3,0.2,0.4
			c-0.1,0-0.2-0.1-0.3,0c0,0.1,0.1,0.2,0.1,0.3c-0.2,0-0.3,0-0.4-0.2c-0.1,0-0.1,0.1-0.2,0.2c-0.1,0.1-0.1,0.1-0.1,0.2
			c0.5-0.1,1,0,1.2,0.3c0.1-0.2,0.2-0.3,0.3-0.5C23.9,23.3,23.7,23.1,23.7,23z M23.3,23.2c0-0.1,0.1-0.2,0.1-0.2
			c0.1,0.1,0.3,0.1,0.3,0.3C23.6,23.3,23.5,23.2,23.3,23.2z"/>
		<path class="st2" d="M23.5,24.3c-0.4-0.2-0.7-0.4-1-0.8c-0.1,0.1-0.2,0.2-0.2,0.4c0.2,0,0.4,0.1,0.5,0.2c0.1,0.2,0,0.3-0.2,0.4
			c-0.3,0.1-0.4-0.2-0.4-0.4c0,0,0.1,0,0.1,0c0,0.1-0.1,0.2,0,0.3c0.2,0.1,0.2-0.2,0.1-0.3c0,0-0.2-0.1-0.2-0.1
			c-0.1,0-0.3,0.1-0.3,0.3c0,0.3,0.3,0.6,0.6,0.5c0,0.3,0.3,0.4,0.5,0.3c0.2-0.1,0.3-0.4,0.3-0.6C23.5,24.4,23.6,24.3,23.5,24.3z
			 M23,24.9c-0.3,0-0.3-0.5,0-0.5C23.4,24.3,23.3,24.9,23,24.9z"/>
		<path class="st2" d="M9.9,24.7c-0.2,0-0.3,0-0.5,0.1c0-0.1,0.1-0.1,0.2-0.3c-0.1-0.1-0.2,0-0.3,0c0.1-0.1,0.1-0.3,0.3-0.3
			c-0.1-0.2-0.2-0.3-0.3-0.4c-0.1,0.5-0.3,0.8-0.7,1c0.1,0.1,0.2,0.3,0.3,0.4c0-0.1,0.1-0.2,0.2-0.3c0,0,0.1-0.1,0.2-0.1
			c0.1,0,0.1,0.3,0.2,0.3c0.1,0,0.3-0.1,0.1-0.2c-0.1,0-0.1,0-0.1,0.1c0-0.1-0.1-0.1-0.1-0.2c0.1-0.1,0.4-0.2,0.5,0
			c0,0-0.1,0.1,0,0.1c0.1,0.1,0.3,0,0.3-0.1C10.2,24.9,10.1,24.7,9.9,24.7z M9,25c0-0.2,0.2-0.3,0.2-0.4c0.1,0,0.1,0.1,0.1,0.2
			C9.3,24.9,9.2,25,9,25z"/>
		<path class="st2" d="M22.1,25.5c0-0.1,0.2-0.1,0.2-0.3c0-0.1-0.2-0.2-0.2,0c0,0,0.1,0.1,0.1,0.1c0,0,0,0.1-0.1,0.1
			c-0.1,0.1-0.1,0.1-0.2,0c-0.1-0.1-0.1-0.3,0-0.4c0,0,0.1,0,0.1,0c0,0,0-0.1,0-0.2c-0.1-0.2-0.4,0-0.4,0.2c0,0.2,0.1,0.3,0.1,0.5
			c-0.1,0-0.2-0.1-0.3-0.1c0,0.1,0.1,0.2,0.1,0.3c-0.2,0-0.3-0.1-0.3-0.3c-0.1,0.1-0.2,0.2-0.4,0.4c0.5,0,0.9,0.2,1.1,0.5
			c0.1-0.1,0.1-0.1,0.2-0.2c0.1-0.1,0.1-0.1,0.2-0.2C22.3,25.8,22.2,25.7,22.1,25.5z M21.7,25.6c0-0.1,0.1-0.1,0.1-0.1
			c0.1,0,0.2,0.2,0.3,0.3C22,25.8,21.8,25.7,21.7,25.6z"/>
		<path class="st2" d="M10.3,25.1c0.2,0.3,0.5,0.5,0.7,0.8c-0.2,0-0.4,0.1-0.5,0.3c-0.2,0.2-0.3,0.3-0.4,0.6c0,0-0.1,0-0.1-0.1
			c-0.1-0.1-0.2-0.2-0.3-0.3c0.4-0.1,0.6-0.4,0.8-0.6c0-0.1,0-0.3-0.2-0.3c-0.2,0-0.3,0.2-0.3,0.3c-0.1,0-0.1-0.1-0.1-0.2
			C10,25.3,10.3,25.3,10.3,25.1z"/>
		<path class="st2" d="M20.9,25.8c0.1,0.4,0.4,0.6,0.6,0.8c0,0,0-0.1,0.1,0c0.1,0.3-0.1,0.8-0.4,0.8c-0.3,0.1-0.6-0.3-0.5-0.6
			c-0.2-0.1-0.3-0.2-0.6-0.3c0.1-0.1,0.2-0.2,0.3-0.3c0.1,0.2,0.3,0.3,0.6,0.3c0.2,0,0.3,0.5,0,0.4c0,0-0.1-0.2,0-0.2
			c0.1,0,0,0.1,0.1,0.1c0.1,0,0-0.2,0-0.2c-0.2,0-0.2,0-0.2,0.1c-0.1,0.3,0.3,0.4,0.4,0.2c0-0.1,0.1-0.2,0-0.3
			c0-0.1-0.2-0.2-0.4-0.3c0,0-0.1-0.1-0.2-0.2c-0.1-0.1-0.2-0.1-0.2-0.1c0,0,0.1-0.1,0.2-0.2C20.8,25.9,20.8,25.8,20.9,25.8z"/>
		<path class="st2" d="M11.1,26c0.2,0.3,0.5,0.5,0.7,0.8c-0.4,0.1-0.8,0.5-0.9,0.9c-0.1-0.1-0.3-0.3-0.4-0.4
			c0.4-0.1,0.6-0.4,0.8-0.7c0-0.1-0.1-0.3-0.2-0.3c-0.1,0-0.3,0.2-0.3,0.3c-0.2-0.2,0.1-0.5,0.2-0.6C11.1,26,11.1,26,11.1,26z"/>
		<path class="st2" d="M20,27.6c0-0.1,0.3-0.1,0.3-0.2c0-0.1-0.2-0.2-0.2-0.1c0,0.1,0.1,0.1,0.1,0.1c-0.1,0-0.1,0.1-0.2,0.1
			c-0.1-0.1-0.2-0.4,0-0.5c0,0,0.1,0,0.1,0c0-0.1,0.1-0.1,0-0.2c-0.1-0.2-0.4-0.1-0.4,0.1c-0.1,0.2,0.1,0.4,0.1,0.5
			c-0.1,0-0.2-0.2-0.3-0.1c0,0.1,0.1,0.2,0,0.3c-0.2,0-0.3-0.1-0.3-0.3c-0.1,0.1-0.3,0.2-0.4,0.3c0.3,0,0.5,0.1,0.7,0.3
			c0.1,0.1,0.3,0.2,0.4,0.4c0.1-0.1,0.3-0.3,0.5-0.4C20.2,27.9,20.1,27.8,20,27.6z M19.6,27.6c0-0.1,0.1-0.1,0.2-0.1
			c0.1,0.1,0.2,0.2,0.2,0.3C19.8,27.9,19.7,27.7,19.6,27.6z"/>
		<path class="st2" d="M11.9,26.8c0.1,0.1,0.3,0.3,0.4,0.4c-0.4,0.1-0.8,0.5-0.8,0.9c-0.1-0.1-0.3-0.2-0.4-0.4
			C11.5,27.6,11.8,27.3,11.9,26.8z"/>
		<path class="st2" d="M12.6,27.4c0.2,0,0.3,0.1,0.4,0.2c0,0.1-0.1,0.1-0.1,0.1c-0.1,0.2-0.2,0.6-0.2,0.9c0,0.1,0,0.2,0,0.3
			c-0.1-0.1-0.2-0.2-0.4-0.3c0.3-0.2,0.3-0.6,0.4-1c-0.1,0-0.2,0.1-0.4,0.2c-0.1,0.1-0.3,0.2-0.3,0.3c0,0.1,0.2,0.1,0.2,0.2
			c-0.1,0.3-0.5,0.1-0.5-0.2c0-0.1,0.3-0.3,0.4-0.4c0.2-0.1,0.4-0.2,0.6-0.2C12.6,27.5,12.6,27.5,12.6,27.4z"/>
		<path class="st2" d="M19.7,28.3c0.1,0.1,0.1,0.4-0.1,0.4C19.6,28.7,19.6,28.4,19.7,28.3z"/>
		<path class="st2" d="M22.1,7.5c-0.1,0.1-0.2,0.2-0.4,0.2c-0.2,0-0.4-0.4-0.4-0.7c0-0.3,0.5-0.8,1-0.5c0.1,0.1,0.3,0.3,0.3,0.6
			c0,0.2-0.4,0.6-0.6,0.3c-0.1-0.1-0.2-0.6,0.2-0.5c0,0.1-0.1,0-0.1,0.1c0,0.1,0.1,0.1,0.1,0.1c0,0,0.2,0,0.2-0.2
			c0-0.2-0.3-0.3-0.5-0.2c-0.1,0.1-0.3,0.2-0.3,0.4C21.5,7.5,21.7,7.7,22.1,7.5z"/>
		<g>
			<path class="st2" d="M10.8,6.9c-0.5,0-0.9-0.2-1.1-0.6C9.6,6.5,9.5,6.6,9.3,6.7c0,0,0.1,0,0.1,0c0.1,0,0.3,0.2,0.3,0.3
				c0,0.1-0.2,0.2-0.2,0.3c0,0.1,0.2,0.2,0.2,0.1c0,0-0.1-0.1-0.1-0.1c0-0.1,0.1-0.1,0.1-0.1C9.9,7.2,10,7.5,9.8,7.7
				c0,0-0.1,0-0.1,0c-0.1,0.1,0,0.3,0.1,0.3c0.1,0,0.2-0.1,0.3-0.2c0-0.2-0.1-0.4-0.1-0.5c0.1,0,0.2,0.1,0.3,0.1
				c0-0.1-0.1-0.2-0.1-0.3c0.2,0,0.3,0.1,0.3,0.3C10.6,7.1,10.7,7,10.8,6.9C10.8,6.9,10.9,6.9,10.8,6.9z M9.7,6.8
				c0.2,0,0.3,0.1,0.4,0.2C10,7.3,9.7,6.9,9.7,6.8z"/>
		</g>
	</g>
</g>
</svg>
