<?xml version="1.0" encoding="utf-8"?>
<!-- Generator: Adobe Illustrator 28.1.0, SVG Export Plug-In . SVG Version: 6.00 Build 0)  -->
<svg version="1.1"
	 id="svg2" xmlns:sodipodi="http://sodipodi.sourceforge.net/DTD/sodipodi-0.dtd" xmlns:dc="http://purl.org/dc/elements/1.1/" xmlns:inkscape="http://www.inkscape.org/namespaces/inkscape" xmlns:svg="http://www.w3.org/2000/svg" xmlns:rdf="http://www.w3.org/1999/02/22-rdf-syntax-ns#" xmlns:cc="http://creativecommons.org/ns#"
	 xmlns="http://www.w3.org/2000/svg" xmlns:xlink="http://www.w3.org/1999/xlink" x="0px" y="0px" viewBox="0 0 140 60"
	 style="enable-background:new 0 0 140 60;" xml:space="preserve">
<style type="text/css">
	.st0{fill:#8E7A39;}
	.st1{fill:#FFCA26;}
</style>
<g>
	
		<sodipodi:namedview  bordercolor="#666666" borderopacity="1" gridtolerance="10" guidetolerance="10" id="namedview4" inkscape:current-layer="g10" inkscape:cx="73.225585" inkscape:cy="25.239457" inkscape:pageopacity="0" inkscape:pageshadow="2" inkscape:window-height="1014" inkscape:window-maximized="1" inkscape:window-width="1920" inkscape:window-x="0" inkscape:window-y="27" inkscape:zoom="8.3934513" objecttolerance="10" pagecolor="#ffffff" showgrid="false">
		</sodipodi:namedview>
	<g>
		<path class="st0" d="M24.7,3.2v18.5c-0.8,0.1-1.6,0.2-2.3,0.2c-0.8,0-1.4-0.1-2.4-0.2v-7.9l0.1-2.6l-0.8,2.6l-2.3,6.5
			c-0.8,0.1-1.5,0.1-2.1,0.1c-0.6,0-1.3,0-2.2-0.1l-2.5-6.5l-0.8-2.3l0.1,2.3v7.9C8.6,21.9,7.7,22,7,22c-0.8,0-1.4-0.1-2.3-0.2V3.2
			C5.3,3.1,6.1,3,7.1,3c1,0,2,0.1,3,0.2l4.4,10.5l0.3,0.9l0.3-0.9l4-10.5C20.3,3.1,20.9,3,22.1,3C22.9,3,23.8,3.1,24.7,3.2z"/>
		<path class="st0" d="M43.3,21.6c-1.1,0.2-2.3,0.3-3.4,0.3c-0.6,0-1.2-0.1-1.8-0.1l-1.1-3h-6.5l-1.1,3c-0.8,0.1-1.6,0.1-2.4,0.1
			c-1,0-2-0.1-2.7-0.3l7-18.4C32.1,3,33,3,33.9,3c0.9,0,1.7,0,2.5,0.2L43.3,21.6z M35.4,14.5l-1.1-3l-0.6-1.9l-0.6,1.9l-1.1,3H35.4z
			"/>
		<path class="st0" d="M58.3,9.4c0,4.8-3.5,7.2-8.5,7.2h-1.5v5.2c-0.8,0.1-1.7,0.2-2.5,0.2c-0.9,0-1.7-0.1-2.7-0.2V3.2
			c1.9-0.4,4.3-0.6,6.5-0.6C55.9,2.6,58.3,5.3,58.3,9.4z M52.9,9.4c0-1.5-1-2.5-3.2-2.5c-0.5,0-1,0-1.5,0v5.1h1.5
			C52.1,12.1,52.9,10.9,52.9,9.4z"/>
		<path class="st0" d="M74.2,21.6c-1.1,0.2-2.3,0.3-3.4,0.3c-0.6,0-1.2-0.1-1.8-0.1l-1.1-3h-6.5l-1.1,3c-0.8,0.1-1.6,0.1-2.4,0.1
			c-1,0-2-0.1-2.7-0.3l7-18.4C63,3,64,3,64.8,3c0.9,0,1.7,0,2.5,0.2L74.2,21.6z M66.3,14.5l-1.1-3l-0.6-1.9l-0.6,1.9l-1.1,3H66.3z"
			/>
		<path class="st0" d="M3.7,33.5c0-5.8,4-9.9,9.9-9.9c2.6,0,4.5,0.8,5.8,1.8c-0.3,1.6-1.4,3.3-2.8,4.1c-1-0.7-1.8-0.9-2.8-0.9
			c-2.8,0-4.4,1.9-4.4,5c0,3,1.7,5,4.3,5c1.5,0,2.5-0.5,3.3-1.2c1.6,1,2.5,2.2,2.8,4.2c-1.1,0.9-3,1.9-6.4,1.9
			C7.4,43.3,3.7,39.3,3.7,33.5z"/>
		<path class="st0" d="M19.7,35.3V24.2c0.8-0.1,1.7-0.2,2.5-0.2c0.9,0,1.7,0.1,2.7,0.2v11c0,2.2,1.2,3.3,3.2,3.3
			c1.9,0,3.1-1.1,3.1-3.3v-11c0.8-0.1,1.6-0.2,2.4-0.2c0.9,0,1.7,0.1,2.7,0.2V35c0,5.2-3.4,8.3-8.3,8.3
			C22.9,43.3,19.7,40.6,19.7,35.3z"/>
		<path class="st0" d="M50.2,40.5c0,0.8-0.1,1.5-0.2,2.3H37.5V24.2c0.9-0.1,1.7-0.2,2.6-0.2c0.9,0,1.7,0.1,2.6,0.2v13.9H50
			C50.2,38.9,50.2,39.7,50.2,40.5z"/>
		<path class="st0" d="M62.1,28.8h-5v14c-0.9,0.1-1.7,0.2-2.6,0.2c-0.9,0-1.7-0.1-2.6-0.2v-14h-5c-0.2-0.8-0.2-1.5-0.2-2.3
			c0-0.8,0.1-1.6,0.2-2.3h15.2c0.2,0.8,0.2,1.5,0.2,2.3C62.3,27.2,62.2,28,62.1,28.8z"/>
		<path class="st0" d="M62.3,35.3V24.2C63.1,24,64,24,64.9,24c0.9,0,1.7,0.1,2.7,0.2v11c0,2.2,1.2,3.3,3.2,3.3
			c1.9,0,3.1-1.1,3.1-3.3v-11c0.8-0.1,1.6-0.2,2.4-0.2c0.9,0,1.7,0.1,2.7,0.2V35c0,5.2-3.4,8.3-8.3,8.3
			C65.5,43.3,62.3,40.6,62.3,35.3z"/>
		<path class="st0" d="M96.2,42.5c-1.2,0.3-3,0.4-4.6,0.4c-0.4,0-0.8,0-1.1,0L87,36.7h-1.7v6c-0.8,0.1-1.7,0.2-2.5,0.2
			s-1.7-0.1-2.7-0.2V24.2c1.9-0.4,4.4-0.6,6.5-0.6c6,0,8.4,2.4,8.4,6.2c0,2.7-1.2,4.6-3.1,5.7L96.2,42.5z M85.4,32.5h1.9
			c1.8,0,2.5-1,2.5-2.3c0-1.4-0.8-2.2-2.5-2.2c-0.6,0-1.2,0-1.9,0.1V32.5z"/>
		<path class="st0" d="M113.4,42.5c-1.1,0.2-2.3,0.3-3.4,0.3c-0.6,0-1.2-0.1-1.8-0.1l-1.1-3h-6.5l-1.1,3c-0.8,0.1-1.6,0.1-2.4,0.1
			c-1,0-2-0.1-2.7-0.3l7-18.4c0.9-0.1,1.8-0.2,2.7-0.2c0.9,0,1.7,0,2.5,0.2L113.4,42.5z M105.5,35.5l-1.1-3l-0.6-1.9l-0.5,1.9
			l-1.1,3H105.5z"/>
		<path class="st0" d="M125.8,40.5c0,0.8-0.1,1.5-0.2,2.3h-12.5V24.2c0.9-0.1,1.7-0.2,2.6-0.2s1.7,0.1,2.6,0.2v13.9h7.3
			C125.7,38.9,125.8,39.7,125.8,40.5z"/>
	</g>
	<g>
		<path class="st1" d="M63.4,58.4c-1.3,0-2.2-0.3-2.8-1c-0.3-0.3-0.4-0.7-0.5-1.2c0-0.1,0-0.2,0-0.3c0-0.5,0.2-1.1,0.5-1.8
			c0.7-1.4,1.7-2.7,3-3.8c1.3-1.1,2.8-2.1,4.4-2.9c1.7-0.8,3.4-1.6,5.2-2.2c-0.9-0.5-1.9-1-2.9-1.6c-0.9-0.5-1.8-0.9-2.6-1.4
			c-0.8-0.5-1.6-1-2.2-1.5s-1.1-1.1-1.4-1.7c-0.2-0.5-0.3-1.1-0.3-1.6c0-0.4,0.1-0.9,0.3-1.6s0.6-1.5,1.4-2.4
			c1.9-2.5,4.9-4.7,8.9-6.7c1.2-0.6,2.5-1.1,3.8-1.6s2.4-0.8,3.5-1c0.3-0.1,0.6-0.1,0.9-0.1c0.5,0,1,0.1,1.2,0.4
			c0.2,0.2,0.2,0.4,0.2,0.6c0,0,0,0.2,0,0.3c0,0.3-0.2,0.6-0.6,1.1c-0.1,0.1-0.2,0.2-0.3,0.2c-0.1,0-0.2,0-0.3-0.1
			c-0.1-0.1-0.2-0.2-0.2-0.3c0-0.1,0-0.2,0.1-0.3c0.2-0.3,0.4-0.5,0.4-0.7l0-0.1c-0.1-0.1-0.2-0.1-0.5-0.1c-0.4,0-1,0.1-2,0.4
			c-1,0.3-2.3,0.7-3.9,1.4c-2.9,1.2-5.5,2.8-7.7,4.6c-2.1,1.7-3.5,3.4-4,5c-0.1,0.4-0.2,0.8-0.2,1.2c0,0.4,0.1,0.9,0.3,1.3
			c0.2,0.5,0.7,1,1.2,1.4c0.6,0.5,1.3,0.9,2.1,1.3c0.8,0.4,1.6,0.9,2.4,1.3c1.3,0.6,2.5,1.3,3.6,2c2.7-0.9,5.7-1.7,9-2.3
			c0.7-0.1,1.2-0.3,1.6-0.3c0,0,0.1,0,0.1,0c0.1,0,0.2,0,0.2,0.1c0.1,0.1,0.2,0.2,0.2,0.4c0,0.2-0.1,0.4-0.3,0.4
			c-0.4,0.1-0.9,0.2-1.6,0.4c-2.9,0.6-5.7,1.3-8.2,2.1c1.4,1,2.1,2.2,2.1,3.4c0,0.4-0.1,0.8-0.2,1.1c-0.6,1.7-2.1,3.4-4.5,5
			c-1.1,0.7-2.1,1.3-3.2,1.8C67.1,57.9,65.1,58.4,63.4,58.4z M63.4,57.5c0.9,0,1.9-0.2,3-0.5c1.2-0.3,2.4-0.9,3.8-1.7
			c1.4-0.8,2.6-1.6,3.8-2.6c1.1-1,1.9-2,2.2-3c0.1-0.3,0.1-0.6,0.1-0.9c0-0.5-0.2-1.1-0.6-1.5c-0.4-0.5-1-1-1.7-1.5
			c-6.8,2.3-11,5.2-12.7,8.7c-0.2,0.4-0.3,0.8-0.4,1.2c0,0.1,0,0.2,0,0.2c0,0.3,0.1,0.6,0.3,0.9C61.7,57.3,62.4,57.5,63.4,57.5z"/>
		<path class="st1" d="M89.8,46.2c-0.6,0-1.1-0.3-1.5-0.8C88.1,45,88,44.5,88,44c0-0.5,0-0.9,0.1-1.4l-0.4,0.5
			c-0.2,0.2-0.3,0.4-0.4,0.5c-0.7,0.9-1.3,1.6-1.8,2c-0.4,0.4-0.8,0.6-1.1,0.6l-0.1,0c-0.4-0.1-0.7-0.4-0.7-1c0-0.5,0.2-1.2,0.6-2
			c0.2-0.4,0.4-0.7,0.5-0.9c0.4-0.8,1-1.4,1.6-1.9c0.4-0.4,0.9-0.6,1.2-0.6c0.5,0,0.9,0.3,1,0.8c0.1-0.1,0.2-0.1,0.3-0.1
			c0,0,0.1,0,0.1,0c0.2,0.1,0.4,0.2,0.4,0.4c0,0.2,0,0.4-0.1,0.8c-0.2,0.9-0.4,1.6-0.4,2.3c0,0.4,0.1,0.8,0.2,1
			c0.1,0.2,0.4,0.3,0.7,0.3c0.4,0,1.1-0.2,1.9-0.7c0.8-0.5,1.9-1.2,3-2.4c0.1-0.1,0.2-0.1,0.3-0.1c0.1,0,0.2,0,0.3,0.1
			c0.1,0.1,0.1,0.2,0.1,0.3c0,0.1-0.1,0.2-0.1,0.3c-1.1,1-2.1,1.9-3.1,2.4C91.3,45.9,90.5,46.2,89.8,46.2z M84.5,45.2
			c0.5-0.3,1.3-1.1,2.5-2.7c0.5-0.7,0.7-1.2,0.7-1.6c0-0.1,0-0.1,0-0.2c0,0,0,0,0,0c0,0,0,0-0.1,0c-0.2,0-0.5,0.2-0.9,0.5
			c-0.4,0.4-0.8,0.9-1.2,1.5c-0.4,0.6-0.6,1.1-0.8,1.5C84.6,44.6,84.5,44.9,84.5,45.2L84.5,45.2z"/>
		<path class="st1" d="M95.8,52.2c-0.3,0-0.6-0.1-0.9-0.4c-0.1-0.1-0.2-0.3-0.3-0.6c0-0.1,0-0.1,0-0.2c0-0.2,0.1-0.5,0.2-0.8
			c0.3-0.8,1.1-1.7,2.1-2.8c1.1-1,2.3-2,3.6-2.8c0.1-0.5,0.1-0.9,0.1-1.3c0-0.3,0-0.6-0.2-1c-0.1-0.3-0.3-0.6-0.6-0.7
			c-0.1,0-0.1,0-0.2,0c-0.5,0-1,0.4-1.7,1.1c-0.7,0.8-1.4,1.8-2.1,3.2c-0.7,1.4-1.3,2.9-1.8,4.6c-0.1,0.2-0.2,0.3-0.3,0.4
			c-0.1,0.1-0.2,0.1-0.3,0.1c-0.2,0-0.4-0.1-0.6-0.3c-0.1-0.1-0.1-0.2-0.1-0.4l0-0.1c0.3-2,1-4.9,2.1-8.5c1.1-3.7,2.3-7.2,3.4-10.6
			c1.2-3.4,2.1-5.7,2.6-6.8c0.1-0.2,0.2-0.3,0.4-0.3c0.1,0,0.1,0,0.2,0c0.2,0.1,0.3,0.2,0.3,0.4c0,0.1,0,0.1,0,0.2
			c-0.5,1-1.2,2.8-2.1,5.5c-1,2.7-1.9,5.6-3,8.8c-1,3.2-1.8,6-2.4,8.5c0.5-1.2,1.1-2.4,1.8-3.5c0.7-1.1,1.3-1.9,2.1-2.5
			c0.6-0.5,1.1-0.7,1.6-0.7c0.6,0,1.2,0.3,1.5,1c0.2,0.4,0.3,0.9,0.3,1.6c0,0.2,0,0.4,0,0.6c1.7-1,3.1-1.7,4.3-1.9l0.1,0
			c0.1,0,0.2,0,0.3,0.1c0.1,0.1,0.2,0.2,0.2,0.4c0,0.1,0,0.2-0.1,0.3c-0.1,0.1-0.2,0.1-0.3,0.2c-1.1,0.2-2.6,0.9-4.6,2.2
			c0,0,0,0,0,0s0,0,0,0c-0.2,0.9-0.7,1.9-1.3,2.9c-0.6,1-1.3,1.9-2,2.7s-1.4,1.2-2,1.4C96,52.2,95.9,52.2,95.8,52.2z M95.8,51.3
			l0.1,0c0.6-0.2,1.3-0.8,2.1-1.8c0.8-1,1.5-2.2,2.1-3.5c-1.1,0.8-2,1.6-2.8,2.3c-0.8,0.8-1.3,1.5-1.6,2.1c-0.1,0.2-0.1,0.3-0.1,0.4
			c0,0.2,0,0.3,0.1,0.3C95.7,51.3,95.8,51.3,95.8,51.3z"/>
		<path class="st1" d="M110.8,46.2c-0.6,0-1.1-0.3-1.5-0.8c-0.2-0.4-0.3-0.8-0.3-1.4c0-0.5,0-0.9,0.1-1.4l-0.4,0.5
			c-0.2,0.2-0.3,0.4-0.4,0.5c-0.7,0.9-1.3,1.6-1.8,2c-0.4,0.4-0.8,0.6-1.1,0.6l-0.1,0c-0.4-0.1-0.7-0.4-0.7-1c0-0.5,0.2-1.2,0.6-2
			c0.2-0.4,0.4-0.7,0.5-0.9c0.4-0.8,1-1.4,1.6-1.9c0.4-0.4,0.9-0.6,1.2-0.6c0.5,0,0.9,0.3,1,0.8c0.1-0.1,0.2-0.1,0.3-0.1
			c0,0,0.1,0,0.1,0c0.2,0.1,0.4,0.2,0.4,0.4c0,0.2,0,0.4-0.1,0.8c-0.2,0.9-0.4,1.6-0.4,2.3c0,0.4,0.1,0.8,0.2,1
			c0.1,0.2,0.4,0.3,0.7,0.3c0.4,0,1.1-0.2,1.9-0.7c0.8-0.5,1.9-1.2,3-2.4c0.1-0.1,0.2-0.1,0.3-0.1c0.1,0,0.2,0,0.3,0.1
			c0.1,0.1,0.1,0.2,0.1,0.3c0,0.1-0.1,0.2-0.1,0.3c-1.1,1-2.1,1.9-3.1,2.4C112.3,45.9,111.5,46.2,110.8,46.2z M105.6,45.2
			c0.5-0.3,1.3-1.1,2.5-2.7c0.5-0.7,0.7-1.2,0.7-1.6c0-0.1,0-0.1,0-0.2c0,0,0,0,0,0c0,0,0,0-0.1,0c-0.2,0-0.5,0.2-0.9,0.5
			c-0.4,0.4-0.8,0.9-1.2,1.5c-0.4,0.6-0.6,1.1-0.8,1.5C105.6,44.6,105.6,44.9,105.6,45.2L105.6,45.2z"/>
		<path class="st1" d="M115.2,49.3c-0.1,0-0.1,0-0.2,0c-0.2,0-0.3-0.1-0.4-0.3c-0.1-0.1-0.1-0.2-0.1-0.4c0,0,0-0.1,0-0.3
			c0.1-0.7,0.2-1.2,0.3-1.7c0.1-0.4,0.2-1,0.3-1.6c0.1-0.6,0.3-1.5,0.6-2.6c0-0.1,0.1-0.2,0.2-0.3c0.1,0,0.1-0.1,0.2-0.1
			c0.2,0,0.3,0.1,0.4,0.2c0,0.1,0.1,0.1,0.1,0.2c0,0,0,0.1,0,0.1c-0.3,1.4-0.6,2.4-0.7,3.1c0.5-1.6,1.1-2.9,1.6-3.9
			c0.5-1.1,1.1-1.7,1.7-2.1c0.2-0.1,0.4-0.2,0.7-0.2c0.2,0,0.4,0,0.5,0.1c0.4,0.1,0.7,0.4,0.9,0.7c0.2,0.3,0.4,0.7,0.6,1.1
			c0.1,0.2,0.2,0.3,0.2,0.5c0.5,1,1,1.5,1.4,1.5c0.4,0,0.9-0.4,1.5-1.2c0.1-0.1,0.2-0.2,0.4-0.2c0.1,0,0.2,0,0.3,0.1
			c0.1,0.1,0.2,0.2,0.2,0.4c0,0.1,0,0.2-0.1,0.3c-0.8,1-1.5,1.5-2.3,1.5c-0.8,0-1.6-0.7-2.2-2c-0.2-0.3-0.2-0.5-0.2-0.5
			c-0.2-0.3-0.3-0.6-0.5-0.9c-0.2-0.4-0.5-0.5-0.8-0.5c-0.1,0-0.2,0-0.3,0.1c-0.7,0.3-1.4,1.6-2.2,3.8c-0.4,1-0.8,2-1.1,3.2
			c0,0-0.2,0.5-0.5,1.4C115.7,49.2,115.4,49.3,115.2,49.3z"/>
		<path class="st1" d="M130.2,46.2c-0.6,0-1.1-0.3-1.5-0.8c-0.2-0.4-0.3-0.8-0.3-1.4c0-0.5,0-0.9,0.1-1.4l-0.4,0.5
			c-0.2,0.2-0.3,0.4-0.4,0.5c-0.7,0.9-1.3,1.6-1.8,2c-0.4,0.4-0.8,0.6-1.1,0.6l-0.1,0c-0.4-0.1-0.7-0.4-0.7-1c0-0.5,0.2-1.2,0.6-2
			c0.2-0.4,0.4-0.7,0.5-0.9c0.4-0.8,1-1.4,1.6-1.9c0.4-0.4,0.9-0.6,1.2-0.6c0.5,0,0.9,0.3,1,0.8c0.1-0.1,0.2-0.1,0.3-0.1
			c0,0,0.1,0,0.1,0c0.2,0.1,0.4,0.2,0.4,0.4c0,0.2,0,0.4-0.1,0.8c-0.2,0.9-0.4,1.6-0.4,2.3c0,0.4,0.1,0.8,0.2,1
			c0.1,0.2,0.4,0.3,0.7,0.3c0.4,0,1.1-0.2,1.9-0.7c0.8-0.5,1.9-1.2,3-2.4c0.1-0.1,0.2-0.1,0.3-0.1c0.1,0,0.2,0,0.3,0.1
			c0.1,0.1,0.1,0.2,0.1,0.3c0,0.1-0.1,0.2-0.1,0.3c-1.1,1-2.1,1.9-3.1,2.4C131.8,45.9,130.9,46.2,130.2,46.2z M125,45.2
			c0.5-0.3,1.3-1.1,2.5-2.7c0.5-0.7,0.7-1.2,0.7-1.6c0-0.1,0-0.1,0-0.2c0,0,0,0,0,0c0,0,0,0-0.1,0c-0.2,0-0.5,0.2-0.9,0.5
			c-0.4,0.4-0.8,0.9-1.2,1.5c-0.4,0.6-0.6,1.1-0.8,1.5C125.1,44.6,125,44.9,125,45.2L125,45.2z M128.4,38.7c0.1,0,0.2,0,0.3-0.1
			l1-1.4c0-0.1,0.1-0.1,0.1-0.2c0,0,0-0.1,0-0.1c0,0,0-0.1-0.1-0.1c-0.1,0-0.1-0.1-0.2-0.1c-0.1,0-0.2,0-0.3,0.1l-1,1.4
			c0,0.1-0.1,0.1-0.1,0.2c0,0,0,0,0,0.1c0,0.1,0,0.1,0.1,0.2S128.3,38.7,128.4,38.7z"/>
	</g>
</g>
</svg>
