<?xml version="1.0" encoding="utf-8"?>
<!-- Generator: Adobe Illustrator 28.1.0, SVG Export Plug-In . SVG Version: 6.00 Build 0)  -->
<svg version="1.1"
	 id="svg2" xmlns:sodipodi="http://sodipodi.sourceforge.net/DTD/sodipodi-0.dtd" xmlns:dc="http://purl.org/dc/elements/1.1/" xmlns:inkscape="http://www.inkscape.org/namespaces/inkscape" xmlns:svg="http://www.w3.org/2000/svg" xmlns:rdf="http://www.w3.org/1999/02/22-rdf-syntax-ns#" xmlns:cc="http://creativecommons.org/ns#" inkscape:export-filename="/home/system/mapasculturais_documentos/2015_mapasculturais_minas_gerais_BH/mapasculturaisThemeBH/assets/img/logo-instituicao.png" inkscape:export-xdpi="77.239998" inkscape:export-ydpi="77.239998"
	 xmlns="http://www.w3.org/2000/svg" xmlns:xlink="http://www.w3.org/1999/xlink" x="0px" y="0px" viewBox="0 0 240 65"
	 style="enable-background:new 0 0 240 65;" xml:space="preserve">
<style type="text/css">
	
		.st0{fill-rule:evenodd;clip-rule:evenodd;fill:none;stroke:#8E7A39;stroke-width:8.248393e-03;stroke-linecap:round;stroke-linejoin:round;stroke-miterlimit:10;}
	
		.st1{fill-rule:evenodd;clip-rule:evenodd;fill:none;stroke:#8E7A39;stroke-width:6.598715e-02;stroke-linecap:round;stroke-linejoin:round;stroke-miterlimit:10;}
	.st2{fill-rule:evenodd;clip-rule:evenodd;fill:#8E7A39;}
	.st3{fill:#FFCA26;}
	.st4{fill:#6B6F70;}
	.st5{fill:#231F20;}
	.st6{font-family:'BrandingSF-Medium';}
	.st7{font-size:5.6558px;}
	.st8{font-family:'BrandingSF-Bold';}
	.st9{font-size:8.4837px;}
</style>
<sodipodi:namedview  bordercolor="#666666" borderopacity="1" gridtolerance="10" guidetolerance="10" id="namedview4" inkscape:current-layer="g10" inkscape:cx="110.49789" inkscape:cy="19.479871" inkscape:pageopacity="0" inkscape:pageshadow="2" inkscape:window-height="1014" inkscape:window-maximized="1" inkscape:window-width="1920" inkscape:window-x="0" inkscape:window-y="27" inkscape:zoom="11.144885" objecttolerance="10" pagecolor="#ffffff" showgrid="false">
	</sodipodi:namedview>
<g>
	<g>
		<g>
			<path class="st0" d="M80.4,14.1c0,0-1.2,0.1-1.8-0.2l0-0.5c0-0.3-0.1-0.5-0.2-0.7c0.3-0.2,0.3-0.5,0.3-0.5
				c0.2,0.1,0.3-0.1,0.4-0.2c0.2,0.2,0.5,0.1,0.6,0c0,0.2,0.1,0.3,0.4,0.2c0,0.1-0.2,0.5,0.2,0.7C79.6,13.9,80.4,14.1,80.4,14.1z"/>
			<path class="st0" d="M82.9,14.3c-0.1,0.2-0.4,0.5-0.6,0.6c-0.2,0.2-0.5,0.3-0.7,0.5c0,0,0,0-0.1,0c-0.1,0-0.3,0-0.4,0l0,0
				c0.3-0.1,0.4-0.4,0.4-0.6l0.4-0.1c0,0,0-0.4,0-0.4c0,0,0.3-0.1,0.3-0.2C82.6,14.2,82.9,14.3,82.9,14.3z"/>
			<path class="st0" d="M68.5,15.4L68.5,15.4c-0.1,0-0.2,0-0.4,0c0,0,0,0-0.1,0c-0.2-0.2-0.5-0.3-0.7-0.5c-0.2-0.2-0.4-0.5-0.6-0.6
				c0,0,0.3-0.1,0.4-0.2c0.1,0,0.3,0.2,0.3,0.2c0,0,0,0.4,0,0.4l0.4,0.1C68,15,68.2,15.3,68.5,15.4z"/>
			<path class="st0" d="M71.4,12.7c-0.1,0.2-0.2,0.4-0.2,0.7l0,0.5c-0.6,0.3-1.8,0.2-1.8,0.2s0.8-0.2,0.2-1.2
				c0.3-0.2,0.2-0.6,0.2-0.7c0.2,0.1,0.3-0.1,0.4-0.2c0.1,0.1,0.4,0.2,0.6,0c0.1,0.1,0.2,0.2,0.4,0.2C71.1,12.2,71.1,12.5,71.4,12.7
				z"/>
			<g>
				<path class="st1" d="M73.5,28.9v2.3c0,1.3,0.6,2.6,1.4,3.1c0.8-0.5,1.4-1.8,1.4-3.1v-2.3H73.5z"/>
				<path class="st1" d="M74.9,34.1c-0.7-0.6-1.1-1.7-1.1-2.8v-2.1H76v2.1C76,32.4,75.5,33.5,74.9,34.1z"/>
				<path class="st1" d="M73.5,34.6v2.3c0,1.3,0.6,2.6,1.4,3.1c0.8-0.5,1.4-1.8,1.4-3.1v-2.3H73.5z"/>
				<path class="st1" d="M74.9,39.7c-0.7-0.6-1.1-1.7-1.1-2.8v-2.1H76v2.1C76,38.1,75.5,39.2,74.9,39.7z"/>
				<path class="st1" d="M70.3,34.6v2.3c0,1.3,0.6,2.6,1.4,3.1c0.8-0.5,1.4-1.8,1.4-3.1v-2.3H70.3z"/>
				<path class="st1" d="M71.7,39.7c-0.7-0.6-1.1-1.7-1.1-2.8v-2.1h2.3v2.1C72.8,38.1,72.3,39.2,71.7,39.7z"/>
				<path class="st1" d="M76.7,34.6v2.3c0,1.3,0.6,2.6,1.4,3.1c0.8-0.5,1.4-1.8,1.4-3.1v-2.3H76.7z"/>
				<path class="st1" d="M78.1,39.7c-0.7-0.6-1.1-1.7-1.1-2.8v-2.1h2.3v2.1C79.2,38.1,78.7,39.2,78.1,39.7z"/>
				<path class="st1" d="M73.5,40.3v2.3c0,1.3,0.6,2.6,1.4,3.1c0.8-0.5,1.4-1.8,1.4-3.1v-2.3H73.5z"/>
				<path class="st1" d="M74.9,45.4c-0.7-0.6-1.1-1.7-1.1-2.8v-2.1H76v2.1C76,43.7,75.5,44.8,74.9,45.4z"/>
				<g>
					<g>
						<circle class="st2" cx="74.9" cy="9.4" r="0.2"/>
						<circle class="st2" cx="74.9" cy="8.6" r="0.2"/>
						<circle class="st2" cx="74.9" cy="7.7" r="0.2"/>
						<circle class="st2" cx="74.9" cy="6.9" r="0.2"/>
						<circle class="st2" cx="74.9" cy="6" r="0.2"/>
						<circle class="st2" cx="76.2" cy="5.8" r="0.2"/>
						<circle class="st2" cx="76.9" cy="6.2" r="0.2"/>
						<circle class="st2" cx="77.7" cy="6.2" r="0.2"/>
						<circle class="st2" cx="78.4" cy="5.9" r="0.2"/>
						<circle class="st2" cx="79.1" cy="5.6" r="0.2"/>
						<circle class="st2" cx="77.2" cy="4.6" r="0.2"/>
						<circle class="st2" cx="78" cy="4.4" r="0.2"/>
						<circle class="st2" cx="78.8" cy="4.4" r="0.2"/>
						<circle class="st2" cx="79.7" cy="4.5" r="0.2"/>
						<circle class="st2" cx="80.6" cy="4.8" r="0.2"/>
						<circle class="st2" cx="81.3" cy="5.2" r="0.2"/>
						<circle class="st2" cx="81.9" cy="5.9" r="0.2"/>
						<circle class="st2" cx="82.3" cy="6.6" r="0.2"/>
						<circle class="st2" cx="82.5" cy="7.4" r="0.2"/>
						<circle class="st2" cx="82.5" cy="8.3" r="0.2"/>
						<circle class="st2" cx="82.2" cy="9.2" r="0.2"/>
						<circle class="st2" cx="81.6" cy="10.1" r="0.2"/>
						<circle class="st2" cx="80.6" cy="10.7" r="0.2"/>
						<circle class="st2" cx="84.1" cy="12.7" r="0.2"/>
						<circle class="st2" cx="84.8" cy="12.1" r="0.2"/>
						<circle class="st2" cx="85.4" cy="11.2" r="0.2"/>
						<circle class="st2" cx="85.7" cy="10.2" r="0.2"/>
						<circle class="st2" cx="85.8" cy="9.2" r="0.2"/>
						<circle class="st2" cx="85.6" cy="8.1" r="0.2"/>
						<circle class="st2" cx="84.3" cy="6.4" r="0.2"/>
						<circle class="st2" cx="83.5" cy="5.9" r="0.2"/>
						<circle class="st2" cx="82.6" cy="5.5" r="0.2"/>
						<g>
							<path class="st2" d="M78.6,59.6c-0.1,0.1-0.4-0.1-0.6,0c-0.2,0.1-0.1,0.6-0.2,0.6c-0.3,0-0.3-0.8,0.3-0.9
								C78.3,59.3,78.7,59.5,78.6,59.6z"/>
							<path class="st2" d="M78.1,58.6c-0.1,0.1-0.4-0.1-0.6,0c-0.2,0.1-0.1,0.6-0.2,0.6c-0.3,0-0.3-0.8,0.3-0.9
								C77.9,58.3,78.2,58.5,78.1,58.6z"/>
							<path class="st2" d="M79.6,58.7c-0.1-0.1-0.1-0.4-0.4-0.5c-0.2-0.1-0.5,0.3-0.6,0.2c-0.1-0.2,0.5-0.7,0.9-0.3
								C79.8,58.3,79.8,58.7,79.6,58.7z"/>
							<path class="st2" d="M79.5,59.9c-0.1-0.1,0.1-0.4,0-0.6c-0.1-0.2-0.6-0.1-0.6-0.2c0-0.3,0.8-0.3,0.9,0.3
								C79.9,59.7,79.6,60,79.5,59.9z"/>
							<path class="st2" d="M80.4,59.9c-0.1-0.1,0.2-0.4,0.1-0.6c-0.1-0.2-0.6-0.2-0.5-0.3c0.1-0.2,0.9-0.1,0.8,0.5
								C80.8,59.8,80.5,60,80.4,59.9z"/>
							<path class="st2" d="M80.6,61.4c0-0.1,0.4-0.2,0.4-0.5c0-0.2-0.4-0.5-0.3-0.5c0.2-0.2,0.8,0.3,0.5,0.8
								C81,61.5,80.6,61.6,80.6,61.4z"/>
							<path class="st2" d="M79.8,61.3c0-0.1,0.4-0.2,0.4-0.4c0-0.2-0.4-0.5-0.3-0.6c0.2-0.2,0.8,0.4,0.4,0.9
								C80.2,61.5,79.7,61.5,79.8,61.3z"/>
							<path class="st2" d="M79,61.2c0-0.1,0.3-0.3,0.2-0.6c0-0.2-0.5-0.3-0.5-0.4c0.1-0.2,0.9,0.1,0.7,0.6
								C79.4,61.1,79,61.3,79,61.2z"/>
							<path class="st2" d="M78.3,61.9c0.1-0.1,0.4,0.2,0.6,0c0.2-0.1,0.1-0.6,0.2-0.6c0.3,0,0.2,0.9-0.4,0.9
								C78.4,62.3,78.1,62,78.3,61.9z"/>
							<path class="st2" d="M77.2,61.9c0.1,0.1,0.1,0.4,0.3,0.6c0.2,0.1,0.6-0.2,0.6-0.1c0.1,0.2-0.6,0.6-1,0.1
								C77,62.3,77.1,61.9,77.2,61.9z"/>
							<path class="st2" d="M77.5,60.4c0.1,0.1-0.2,0.4-0.1,0.6c0.1,0.2,0.6,0.1,0.6,0.3c0,0.3-0.9,0.2-0.9-0.4
								C77.1,60.6,77.4,60.3,77.5,60.4z"/>
							<path class="st2" d="M76.7,60.3c0,0.1-0.3,0.4-0.2,0.6c0.1,0.2,0.5,0.3,0.5,0.4c-0.1,0.2-0.9,0-0.8-0.6
								C76.3,60.4,76.6,60.2,76.7,60.3z"/>
							<path class="st2" d="M79.2,62.6c0.1-0.1,0.4,0.2,0.6,0c0.2-0.1,0.1-0.6,0.2-0.6c0.3,0,0.2,0.9-0.4,0.9
								C79.4,63,79.1,62.7,79.2,62.6z"/>
							<circle class="st2" cx="78.3" cy="60.7" r="0.3"/>
							<path class="st2" d="M71.1,59.6c0.1,0.1,0.4-0.1,0.6,0c0.2,0.1,0.1,0.6,0.2,0.6c0.3,0,0.3-0.8-0.3-0.9
								C71.4,59.3,71,59.5,71.1,59.6z"/>
							<path class="st2" d="M71.6,58.6c0.1,0.1,0.4-0.1,0.6,0c0.2,0.1,0.1,0.6,0.2,0.6c0.3,0,0.3-0.8-0.3-0.9
								C71.9,58.3,71.5,58.5,71.6,58.6z"/>
							<path class="st2" d="M70.1,58.7c0.1-0.1,0.1-0.4,0.4-0.5c0.2-0.1,0.5,0.3,0.6,0.2c0.1-0.2-0.5-0.7-0.9-0.3
								C69.9,58.3,70,58.7,70.1,58.7z"/>
							<path class="st2" d="M70.2,59.9c0.1-0.1-0.1-0.4,0-0.6c0.1-0.2,0.6-0.1,0.6-0.2c0-0.3-0.8-0.3-0.9,0.3
								C69.8,59.7,70.1,60,70.2,59.9z"/>
							<path class="st2" d="M69.3,59.9c0.1-0.1-0.2-0.4-0.1-0.6c0.1-0.2,0.6-0.2,0.5-0.3c-0.1-0.2-0.9-0.1-0.8,0.5
								C68.9,59.8,69.2,60,69.3,59.9z"/>
							<path class="st2" d="M69.1,61.4c0-0.1-0.4-0.2-0.4-0.5c0-0.2,0.4-0.5,0.3-0.5c-0.2-0.2-0.8,0.3-0.5,0.8
								C68.7,61.5,69.1,61.6,69.1,61.4z"/>
							<path class="st2" d="M69.9,61.3c0-0.1-0.4-0.2-0.4-0.4c0-0.2,0.4-0.5,0.3-0.6c-0.2-0.2-0.8,0.4-0.4,0.9
								C69.5,61.5,70,61.5,69.9,61.3z"/>
							<path class="st2" d="M70.8,61.2c0-0.1-0.3-0.3-0.2-0.6c0-0.2,0.5-0.3,0.5-0.4c-0.1-0.2-0.9,0.1-0.7,0.6
								C70.3,61.1,70.7,61.3,70.8,61.2z"/>
							<path class="st2" d="M71.5,61.9c-0.1-0.1-0.4,0.2-0.6,0c-0.2-0.1-0.1-0.6-0.2-0.6c-0.3,0-0.2,0.9,0.4,0.9
								C71.3,62.3,71.6,62,71.5,61.9z"/>
							<path class="st2" d="M72.5,61.9c-0.1,0.1-0.1,0.4-0.3,0.6c-0.2,0.1-0.6-0.2-0.6-0.1c-0.1,0.2,0.6,0.6,1,0.1
								C72.7,62.3,72.6,61.9,72.5,61.9z"/>
							<path class="st2" d="M72.2,60.4c-0.1,0.1,0.2,0.4,0.1,0.6c-0.1,0.2-0.6,0.1-0.6,0.3c0,0.3,0.9,0.2,0.9-0.4
								C72.6,60.6,72.3,60.3,72.2,60.4z"/>
							<path class="st2" d="M73,60.3c0,0.1,0.3,0.4,0.2,0.6c-0.1,0.2-0.5,0.3-0.5,0.4c0.1,0.2,0.9,0,0.8-0.6
								C73.4,60.4,73.1,60.2,73,60.3z"/>
							<path class="st2" d="M70.5,62.6c-0.1-0.1-0.4,0.2-0.6,0c-0.2-0.1-0.1-0.6-0.2-0.6c-0.3,0-0.2,0.9,0.4,0.9
								C70.3,63,70.6,62.7,70.5,62.6z"/>
							<circle class="st2" cx="71.4" cy="60.7" r="0.3"/>
						</g>
						<g>
							<g>
								<polygon class="st2" points="76.4,4.9 75.5,4.6 76,5.6 73.7,5.6 74.2,4.6 73.4,4.9 73.3,3.9 73.4,3 74.2,3.3 73.7,2.3 
									76,2.3 75.5,3.3 76.4,3 76.4,3.9 								"/>
								<path class="st2" d="M78.3,9.9c4.9-0.2,2.9-3.9,1.9-4.2C78.6,7.5,76,7.2,76,7.2c-0.3,0.8,0.5,2.1,0.5,2.1c0,0-1-0.5-0.9-2.3
									c0,0,3.5-0.1,4.2-1.5c-0.6-0.4-1.3-0.3-2-0.2C81.9,3.3,84.1,10.9,78.3,9.9z"/>
								<path class="st2" d="M84.9,8.6c1,3.2-2.5,3.9-2.5,3.9c3.8-1.9,1.5-4.5,1.4-4.6c0.4,2.3-1.5,3.2-1.7,3.4
									c2.4-2.4,1.1-4.1,0.5-5C82.7,6.3,84.3,6.9,84.9,8.6z"/>
								<path class="st2" d="M82.7,13.4c-0.2,0-0.5,0.4-0.5,0.4s-0.4,0-0.5-0.3c-0.1,0.3,0.1,0.6,0.1,0.8c0,0-0.2,0.1-0.5-0.2
									c-0.2,0.2,0,0.8,0,0.8c-0.5-0.1-0.3-0.8-0.5-1.2c-0.7,0-0.4-0.7,0.1-0.7c0-0.3-0.4-0.3-0.4-0.6c0-0.2,0.2-0.6,0.3-0.7
									c-0.8,0.4-0.8-0.4-0.8-0.4c0,0.1-0.3,0.3-0.5,0.3c-0.2,0-0.3-0.2-0.5-0.4c0,0.6-0.4,0.6-0.7,0.5c0.2,0.3,0.1,0.7-0.4,0.7
									c0.1,0.3,0.3,0.9,0.3,1c0,0-0.5-0.5-0.6-0.9c-0.3,0.1-0.9,0.7-1.4,0.5c-0.2-0.1-0.2-0.3-0.1-0.4c0.1-0.1,0.1,0,0.2,0
									c0.1-0.1,0-0.3,0.2-0.3c0,0-0.2-0.3-0.2-0.3c0,0,0.3-0.4,0.3-0.4l-0.4-0.2l0.3-0.5l-0.6,0.1l0.1-0.6l-0.6,0.3L74.9,10
									l-0.3,0.6l-0.6-0.3l0.1,0.6l-0.6-0.1l0.3,0.5l-0.4,0.2c0,0,0.3,0.4,0.3,0.4c0,0-0.2,0.3-0.2,0.3c0.2,0,0.2,0.1,0.2,0.3
									c0.1,0,0.2-0.1,0.2,0c0.1,0.1,0.1,0.3-0.1,0.4c-0.4,0.2-1.1-0.5-1.4-0.5c-0.1,0.4-0.6,0.9-0.6,0.9c0,0,0.3-0.6,0.3-1
									c-0.5,0-0.6-0.4-0.4-0.7c-0.3,0.1-0.7,0.1-0.7-0.5c-0.1,0.3-0.3,0.4-0.5,0.4c-0.2,0-0.5-0.3-0.5-0.3c0,0.1,0,0.8-0.8,0.4
									c0,0,0.3,0.4,0.3,0.7c0,0.3-0.4,0.3-0.4,0.6c0.4,0,0.7,0.8,0.1,0.7c-0.1,0.4,0,1.1-0.5,1.2c0,0,0.2-0.6,0-0.8
									c-0.4,0.3-0.5,0.2-0.5,0.2c0-0.2,0.2-0.5,0.1-0.8c-0.2,0.3-0.5,0.3-0.5,0.3s-0.4-0.4-0.5-0.4c0,0.3-0.1,0.9-1.1,0.1
									c0,0,0,0.9,1.8,2.3c1.1,0.1,1.5-0.5,1.8-1.3c1.3,0,2.3-0.4,3-1.1c1.1,0.7,2.1,0.1,2.3-0.2c0.2,0.4,1.2,0.9,2.3,0.2
									c0.7,0.7,1.7,1.1,3,1.1c0.3,0.8,0.7,1.3,1.8,1.3c1.8-1.4,1.8-2.3,1.8-2.3C82.7,14.2,82.7,13.6,82.7,13.4z M68.1,15.5
									L68.1,15.5c-0.3-0.2-0.5-0.3-0.7-0.5c-0.2-0.2-0.4-0.5-0.6-0.6c0,0,0.3-0.1,0.4-0.2c0.1,0,0.3,0.2,0.3,0.2c0,0,0,0.4,0,0.4
									l0.4,0.1c0,0.2,0.2,0.5,0.4,0.6l0,0C68.4,15.4,68.3,15.5,68.1,15.5z M71.2,13.3l-0.1,0.5c-0.6,0.3-1.8,0.2-1.8,0.2
									s0.8-0.2,0.2-1.2c0.3-0.2,0.2-0.6,0.2-0.7c0.2,0.1,0.3-0.1,0.4-0.2c0.1,0.1,0.4,0.2,0.6,0c0.1,0.1,0.2,0.2,0.4,0.2
									c0,0.1,0,0.4,0.3,0.5C71.3,12.8,71.2,13.1,71.2,13.3z M74.9,12.8c0,0-0.5,0.5-0.9,0.5c0.1-0.1,0.2-0.2,0.3-0.4
									c0.1-0.7-0.6-0.6-0.6-0.6l0.2-0.3c0,0-0.2-0.3-0.2-0.3l0.4-0.2l-0.2-0.3l0.5,0l-0.1-0.5l0.4,0.2l0.2-0.4c0,0,0,0,0,0
									c0,0,0,0,0,0l0.2,0.4l0.4-0.2l-0.1,0.5l0.5,0l-0.2,0.3l0.4,0.2c0,0-0.2,0.3-0.2,0.3l0.2,0.3c0,0-0.7-0.1-0.6,0.6
									c0,0.2,0.1,0.3,0.3,0.4C75.4,13.3,74.9,12.8,74.9,12.8z M78.6,13.8l-0.1-0.5c0-0.3-0.1-0.5-0.2-0.7c0.3-0.2,0.3-0.5,0.3-0.5
									c0.2,0.1,0.3-0.1,0.4-0.2c0.2,0.2,0.5,0.1,0.6,0c0,0.2,0.1,0.3,0.4,0.2c0,0.1-0.2,0.5,0.2,0.7c-0.6,1,0.2,1.2,0.2,1.2
									S79.2,14.1,78.6,13.8z M82.3,14.9c-0.2,0.2-0.4,0.3-0.7,0.5h-0.1c-0.1,0-0.3,0-0.4,0l0,0c0.3-0.1,0.4-0.4,0.4-0.6l0.4-0.1
									c0,0,0-0.4,0-0.4c0,0,0.3-0.1,0.3-0.2c0.1,0.1,0.4,0.2,0.4,0.2C82.7,14.5,82.5,14.8,82.3,14.9z"/>
								<path class="st2" d="M71.4,9.9c-4.9-0.2-2.9-3.9-1.9-4.2c1.5,1.7,4.2,1.5,4.2,1.5C74,8,73.2,9.3,73.2,9.3c0,0,1-0.5,0.9-2.3
									c0,0-3.5-0.1-4.2-1.5c0.6-0.4,1.3-0.3,2-0.2C67.8,3.3,65.6,10.9,71.4,9.9z"/>
								<path class="st2" d="M64.8,8.6c-1,3.2,2.5,3.9,2.5,3.9c-3.8-1.9-1.5-4.5-1.4-4.6c-0.4,2.3,1.5,3.2,1.7,3.4
									c-2.4-2.4-1.1-4.1-0.5-5C67,6.3,65.4,6.9,64.8,8.6z"/>
								<g>
									<polygon class="st2" points="76.7,15.5 76,15.8 75.5,15.3 76.1,15 									"/>
									<polygon class="st2" points="77.8,15.9 77.1,16.1 76.7,15.5 77.4,15.3 									"/>
									<polygon class="st2" points="78.9,16.5 78.2,16.5 77.8,15.9 78.6,15.8 									"/>
									<polygon class="st2" points="79.9,17.2 79.2,17.2 78.9,16.5 79.7,16.5 									"/>
									<polygon class="st2" points="80.3,17.2 80,17.6 79.9,17.2 									"/>
									<path class="st2" d="M79.4,18.2c0,0-0.1,0.3-0.4,0.1c-0.5,0.3-0.8,0.9-1.1,1.5c-0.2-0.8,0.3-1.3,0.6-1.8
										c-0.1-0.1-0.2-0.3-0.4-0.3c-0.1,0-1,1-1,1s-0.6-0.3-0.9-0.4c-0.4-0.1-0.9-0.2-1.4-0.2c-0.5,0-1,0.1-1.4,0.2
										c-0.3,0.1-0.9,0.4-0.9,0.4s-0.8-1-1-1c-0.2,0-0.3,0.2-0.4,0.3c0.3,0.4,0.8,1,0.6,1.8c-0.3-0.6-0.5-1.2-1.1-1.5
										c-0.3,0.2-0.4-0.1-0.4-0.1l1.5-1c0.1,0.1,0.1,0.3,0,0.4l0.7,0.8c0.6-0.4,1.4-0.6,2.3-0.6c0.9,0,1.7,0.2,2.3,0.6l0.7-0.8
										c-0.1-0.1,0-0.3,0-0.4L79.4,18.2z"/>
									<polygon class="st2" points="75.5,15.3 74.9,15.7 74.2,15.3 74.9,14.9 									"/>
									<polygon class="st2" points="73,15.5 73.7,15.8 74.2,15.3 73.6,15 									"/>
									<polygon class="st2" points="71.9,15.9 72.6,16.1 73,15.5 72.3,15.3 									"/>
									<polygon class="st2" points="70.8,16.5 71.5,16.5 71.9,15.9 71.1,15.8 									"/>
									<polygon class="st2" points="69.8,17.2 70.5,17.2 70.8,16.5 70.1,16.5 									"/>
									<polygon class="st2" points="69.4,17.2 69.7,17.6 69.8,17.2 									"/>
									<path class="st2" d="M79.7,17.8L79.6,18c-0.8-0.7-2.3-1.8-4.7-1.8s-3.9,1.1-4.7,1.8L70,17.8c0,0,1.7-1.9,4.9-1.9
										S79.7,17.8,79.7,17.8z"/>
									<path class="st2" d="M80.9,16.7L80.5,17c0,0-1.9-2.3-5.7-2.3S69.2,17,69.2,17l-0.3-0.3c0,0,2-2.3,6-2.3
										C78.8,14.3,80.9,16.7,80.9,16.7z"/>
								</g>
								<g>
									<path class="st2" d="M81.1,19.4c-0.7,0.1-0.7-0.8-0.7-1c0.4,0.5,0.9,0.7,1.2-0.1C81.6,18.5,81.8,19.4,81.1,19.4z"/>
									<path class="st2" d="M68.6,19.4c0.7,0.1,0.7-0.8,0.7-1c-0.4,0.5-0.9,0.7-1.2-0.1C68.1,18.5,67.9,19.4,68.6,19.4z"/>
									<g>
										<path class="st2" d="M76.1,21.5c-0.2,0.2-0.4,0.3-0.5,0.7c-0.4-0.1-0.6,0.1-0.8,0.3c-0.2-0.2-0.4-0.3-0.8-0.3
											c0-0.4-0.3-0.5-0.5-0.7c0.1-0.1,0.1-0.3,0.1-0.4c0-0.1,0-0.3-0.1-0.4c0.2-0.2,0.4-0.3,0.5-0.7c0.4,0.1,0.6-0.1,0.8-0.3
											c0.2,0.2,0.4,0.3,0.8,0.3c0,0.4,0.3,0.5,0.5,0.7C76,20.8,76,21,76,21.1C76,21.2,76,21.4,76.1,21.5z"/>
										<g>
											<rect x="82.3" y="38.5" class="st2" width="0.4" height="5.8"/>
											<rect x="81" y="38.5" class="st2" width="0.4" height="5.8"/>
											<rect x="82.3" y="28.9" class="st2" width="0.4" height="6.4"/>
											<path class="st2" d="M90.6,26.9c-0.4-0.9-1.2,0-1.2,0c-0.8-0.6-1.3-3.5-1.5-4.8c-0.8-5.7-3.6-6.2-3.6-6.2
												c0.1-0.7-0.1-1-0.1-1c-0.1,0.9-1,1.4-1,1.4c-2.1,2.3-0.4,3.7-0.4,3.7s-0.3,1.8-1.8,1.7c-1.5,0-1.6-1.5-1.6-1.6
												c1.1,0.3,0.8-0.8,0.7-0.8c-0.1-0.1-0.5-0.6-1,0.2c-0.5,0.8-0.4,2.2-0.1,2.8c0.2,0.5,0.7,1.8,2.4,1.3
												c1.8-0.5,1.9-3.7,1.9-3.7s0.6-0.1,0.6-0.7c0-0.6-0.8-0.5-0.8-0.5c-0.2-0.7,0.1-2.2,1-2.2s1.2,0.7,1.2,0.7
												c0,1.9,0.9,2.1,0.9,2.1C86,20.9,87,20.9,87,20.9c-0.7,1.8,0.5,2.4,0.5,2.4c-0.5,2.1,0.4,2.5,0.4,2.5
												c0.4,2,1.6,1.7,1.6,1.7s0.4,0.3,0.6,0.3C90.1,27.8,91,27.8,90.6,26.9z M81.3,22.7c-1.4,0.1-1.8-1.5-1.8-1.5
												s1.7,2,3.3-0.4C82.9,20.8,82.7,22.6,81.3,22.7z"/>
											<path class="st2" d="M83.6,18.2c0,0,1.7-0.5,1.3,1.2c0,0,1,0.6,0.5,1.5c0,0,0.6,0.5,0.3,2.2c0,0-1,0.4-1.4,1.6
												c0,0-0.6-0.4,0.5-1.6c0,0-0.2-0.6-0.8,0.4c0,0-0.3-0.5,0.7-1.3c0,0,0.3-1.2-0.7,0c0,0-0.3-0.4,0.5-1.1
												c0,0,0.7-1.4-0.6-0.4C83.8,20.8,85.2,18.4,83.6,18.2z"/>
											<path class="st2" d="M84.4,25.5c0,0,0.2-1.1,1.7-1.3c0,0,0.2,0,0.2,0.3c0,0.3-0.8,0.3-0.8,0.3S85.2,24.8,84.4,25.5z"/>
											<path class="st2" d="M84.6,26.1c0,0,0.1-1,1.9-1.1c0,0,0.2,0,0.2,0.3c0,0.3-0.4,0.3-0.4,0.3S85.4,25.3,84.6,26.1z"/>
											<path class="st2" d="M92.9,39.1c-0.3,0.1-0.6,0.4-0.9,0.1c-0.2-0.2,0.3-0.8,0.4-0.8c-0.5,0.2-0.7,0.3-1.2,0.4
												c-0.1-0.5,0.4-0.8,0.5-0.9c0,0-1.2,0.5-1.3-0.1c-0.2-1.1,0.9-1.9,1-1.9c0.4,0,0.9-0.9-0.1-1.3c0.1-0.3,0-0.9,0-1.2
												c1.6-1.1,0.9-3.1,0.8-3.1c0-0.2-0.4-1-1.1-0.7c-0.3,0.1-0.4,0.6-0.2,0.8c0.2,0.2,0.6,0.3,0.6,0.3c0,0-0.7,1.3-1.7,1.2
												c-1.1-0.2-1.7-1.3-1.5-2c1.5,0.5,1.4-2-0.3-1.3c-0.2-1.1-1.2-2.8-3.6-2c-0.3-0.7-0.6-1.1-1-1.7c-1.9,0.2-4.5-0.3-5.6-2.6
												c-0.6,0.7-1.6,1-2.6,1.1c-1-0.1-2-0.4-2.6-1.1c-1.1,2.3-3.7,2.8-5.6,2.6c-0.4,0.6-0.6,1-1,1.7c-2.4-0.8-3.5,0.9-3.6,2
												c-1.7-0.8-1.8,1.7-0.3,1.3c0.2,0.7-0.5,1.8-1.5,2c-1.1,0.2-1.7-1.2-1.7-1.2c0,0,0.4-0.1,0.6-0.3c0.2-0.2,0-0.7-0.2-0.8
												c-0.7-0.4-1.2,0.5-1.1,0.7c-0.1,0.1-0.8,2,0.8,3.1c0,0.3-0.1,0.9,0,1.2c-1,0.3-0.4,1.3-0.1,1.3c0,0,1.2,0.8,1,1.9
												c-0.2,0.5-1.3,0.1-1.3,0.1c0.1,0.1,0.6,0.4,0.5,0.9c-0.5,0-0.8-0.2-1.2-0.4c0,0,0.5,0.6,0.4,0.8c-0.2,0.3-0.6,0-0.9-0.1
												c0,0,0,0.6,1.6,0.6c0.1,0.4-0.4,0.8-0.4,0.9c0.7-0.3,0.8-0.8,1-0.9c0.1,0.2,0.2,0.5,0.1,0.7c0.3-0.2,0.7-1.6,0.7-1.6
												c0.1,0.2,0.8,2.2-1.4,2.6c0.4,0.2,1.1,0.2,1.6,0.1c-0.1,0.5-1.1,1-1.1,1c0,0,0.7,0,1.3-0.4c0.3,0.6-1,2.3-1.1,2.3
												c0.5-0.2,1.3-1,1.3-1.1c-0.1,0.6-0.2,1.1-0.5,1.6c0.2-0.1,0.4-0.4,0.5-0.7c0,0.7-0.5,2.1-0.6,2.2c0,0,0.1-0.1,0.3-0.2
												c0.2-0.2,0.4-0.4,0.6-0.8c0.1,0.5-0.7,2.2-0.8,2.3c0.1-0.1,1.2-1,1.5-3.3c0.2,0.1,0.3,0.8,0.3,1.1c0.2-0.7,0-1.7-0.1-2.3
												c0.3,0.3,0.8,1,1.2,1.1c-0.5-0.9-0.9-1.6-1.1-2.6c0.4,0.2,1.3,0.6,1.6,0.6c0,0-1-0.5-0.9-0.9c0.3,0,1.1-0.3,1.2-0.4
												c0,0-0.3-0.2-0.5-0.4c0.8-0.2,0.9-0.5,0.9-0.7c0,0.1-0.8,0.5-1.3,0.2c0,0,1.4-0.9,1.6-1.7c0,0-0.9,1-1.3,1
												c0-0.2,0.2-0.4,0.1-0.7c0,0-1.2,2-2.5-0.1c1.2,0.4,1.5,0.1,1.6,0.2c-0.3-0.1-0.4-0.3-0.4-0.3c1.4-0.2,1.6-1.2,1.7-1.3
												c-0.1,0.1-0.6,0.6-0.9,0.5c0,0,0.7-0.8,0.6-1c0,0.1-0.6,0.5-0.8,0.2c0.1-0.4,1.1-0.7,1.4-1.4c0.2-0.4,0.2-0.9,0.1-1.3
												c-0.1,0.2-0.2,0.5-0.4,0.3c-0.1-0.6-0.2-1-0.5-1.3c0.1,0.3,0.1,0.9-0.2,1c-0.1-0.1-0.2-0.3-0.5-0.3c0,0,1.2,2.1-1.2,2.6
												c-0.3,0.1-1.7,0.2-2.4-0.6c0.5-0.2,0.5-1.2-0.1-1.3c0-0.4,0-0.8,0-1.1c2.4,0.9,3.4-0.4,3.5-0.5c0.1-0.1,0.9-1.5,0.1-3.2
												c0,0,2.7,2.2,2.7,8.2c0,3.2,0.2,5.2-1.9,8.3c-0.2,0-0.7-0.8-1.2-0.1c-0.1,0.2-0.3,1.3,1,0.8c1,0.9,2.3,3.6,2.3,3.6
												c1.6-0.5,1.9-0.7,3.8-1.8c0.1,0,0.2,0,0.1,0.1c-0.5,0.8-2.7,1.8-3.8,2.1c-0.5,0.1-0.2,0.8,0.3,0.8c0.2,0,0.6-0.2,0.9-0.3
												c2.6-1.3,3-2.9,3.3-2.2c0.1,0.2,0.5,0.1,0.5,0.2c0,0.1,0.1,0.3,0,0.4c0,0-0.5,0-0.9,0.3c-0.7,0.5-1.5,1.5-1.5,1.5
												c-1.6-0.2-1.8,0.8-1.9,0.8c1.3-1.1,3.1,0.5,3.6,0.9c0,0.5,0,1.1,0.4,1.2c0.6,0.1,0.7-0.7,0.6-1.1c4,1.3,3.6-2.9,2-1.7
												v-1.5c1.3,0,1.5,1,1.4,1.9c0,0.9-0.5,1.8-1.4,1.6c-0.1,0.2,0,0.3,0.1,0.4c-0.3,0.2-0.7,0-0.9-0.2c-0.1,0.1-0.1,0.4,0,0.5
												c-0.2,0.1-0.5,0.1-0.5,0.3c0.2-0.1,0.4,0.1,0.6,0.1c0,0.3-0.4,0.4-0.3,0.7c0.4-0.1,0.8-0.3,1.3-0.3
												c0,0.2-0.4,0.5-0.8,0.5c0.1,0.2,0.1,0.3,0,0.5c-0.3,0-0.6-0.1-0.8-0.2c0.1,0.3-0.1,0.5-0.3,0.7c0.2,0,0.5-0.1,0.7,0.1
												c-0.1,0.1,0.1,0.3,0.1,0.4c0.3-0.6,0.7-0.8,1-0.9c0.1,0.1,0.2,0.6,0.2,0.6c0.2-0.3,0.6-0.4,0.6-0.4c-0.2,0.3-1,1.1-1,1.4
												c0.1-0.2,0.6-0.3,0.9-0.2c-0.3,0.4-0.6,0.7-0.6,1.2c0.2-0.3,0.4-0.5,0.7-0.6c0,0.9,0.3,1.4,0.7,2c0,0,0,0.1,0,0.1
												c-0.7,0.2-0.3,1.9-0.9,2.1c-0.4,0.1-0.4,0.2-0.5,0.3c1.1,0.2,1.5-0.5,1.5-0.7c0,0.2,0.3,0.9,1.5,0.7
												c-0.1-0.2-0.1-0.2-0.5-0.3c-0.6-0.2-0.2-1.9-0.9-2.1c0,0,0-0.1,0-0.1c0.4-0.6,0.7-1.1,0.7-2c0.3,0.1,0.4,0.3,0.7,0.6
												c0.1-0.5-0.3-0.7-0.6-1.2c0.4-0.1,0.8,0,0.9,0.2c0.1-0.3-0.8-1.2-1-1.4c0,0,0.4,0.1,0.6,0.4c0,0,0-0.5,0.2-0.6
												c0.3,0.1,0.7,0.3,1,0.9c0.1-0.1,0.2-0.3,0.1-0.4c0.2-0.1,0.6-0.1,0.7-0.1c-0.2-0.2-0.4-0.4-0.3-0.7
												c-0.2,0.1-0.5,0.1-0.8,0.2c-0.1-0.2-0.1-0.2,0-0.5c-0.4,0-0.8-0.3-0.8-0.5c0.5-0.1,0.9,0.1,1.3,0.3
												c0.1-0.3-0.3-0.5-0.3-0.7c0.2,0,0.4-0.2,0.6-0.1c0-0.3-0.3-0.2-0.5-0.3c0.1-0.1,0.1-0.4,0-0.5c-0.2,0.2-0.6,0.4-0.9,0.2
												c0.1-0.1,0.3-0.3,0.1-0.4c-1,0.1-1.4-0.8-1.4-1.6c0-1,0.2-1.9,1.4-1.9v1.5c-1.6-1.2-2,3.1,2,1.7
												c-0.1,0.4,0.1,1.2,0.6,1.1c0.4-0.1,0.5-0.8,0.4-1.2c0.5-0.5,2.3-2,3.6-0.9c-0.1-0.1-0.3-1-1.9-0.8c0,0-0.8-1-1.5-1.5
												c-0.3-0.3-0.8-0.3-0.9-0.3c-0.1-0.1,0-0.3,0-0.4c0-0.1,0.4,0,0.5-0.2c0.3-0.7,0.7,0.9,3.3,2.2c0.3,0.1,0.7,0.3,0.9,0.3
												c0.6,0.1,0.8-0.6,0.3-0.8c-1.1-0.3-3.4-1.4-3.8-2.1c-0.1-0.1,0.1-0.2,0.1-0.1c1.8,1.1,2.2,1.3,3.8,1.8
												c0,0,1.3-2.7,2.3-3.6c1.3,0.5,1.1-0.6,1-0.8c-0.4-0.8-1,0-1.2,0.1c-2-3.1-1.9-5.1-1.9-8.3c0-6,2.7-8.2,2.7-8.2
												c-0.8,1.8,0,3.1,0.1,3.2c0.1,0.1,1.1,1.4,3.5,0.5c0.1,0.3,0,0.8,0,1.1c-0.7,0.1-0.7,1-0.1,1.3c-0.7,0.8-2.1,0.6-2.4,0.6
												c-2.5-0.4-1.2-2.5-1.2-2.6c-0.3,0-0.4,0.2-0.5,0.3c-0.2-0.1-0.2-0.7-0.2-1c-0.3,0.4-0.5,0.7-0.5,1.3
												c-0.2,0.2-0.3-0.2-0.4-0.3c-0.1,0.4-0.1,0.9,0.1,1.3c0.4,0.7,1.4,1,1.4,1.4c-0.2,0.3-0.7-0.2-0.8-0.2
												c-0.1,0.2,0.6,0.9,0.6,1c-0.4,0.1-0.9-0.4-0.9-0.5c0.1,0.1,0.3,1.1,1.7,1.3c-0.1,0-0.1,0.1-0.4,0.3
												c0.2,0,0.4,0.2,1.6-0.2c-1.3,2-2.5,0.1-2.5,0.1c-0.1,0.3,0.1,0.5,0.1,0.7c-0.5,0-1.3-1-1.3-1c0.2,0.8,1.6,1.7,1.6,1.7
												c-0.6,0.2-1.3-0.1-1.3-0.2c0,0.2,0.1,0.5,0.9,0.7c-0.1,0.2-0.5,0.4-0.5,0.4c0.1,0.1,0.9,0.4,1.2,0.4
												c0,0.4-0.9,0.9-0.9,0.9c0.3,0.1,1.1-0.3,1.6-0.6c-0.2,1.1-0.6,1.7-1.1,2.6c0.3-0.1,0.9-0.8,1.2-1.1
												c-0.1,0.6-0.3,1.6-0.1,2.3c0-0.3,0.1-1,0.3-1.1c0.4,2.3,1.4,3.2,1.5,3.3c0-0.1-0.8-1.8-0.8-2.3c0.4,0.7,0.8,1,0.9,1
												c0,0-0.2-0.4-0.3-0.8c-0.1-0.4-0.3-1-0.3-1.3c0.2,0.3,0.3,0.5,0.5,0.7c-0.3-0.5-0.4-0.9-0.5-1.6c0,0.1,0.8,0.9,1.3,1.1
												c-0.2-0.1-1.4-1.7-1.1-2.3c0.6,0.4,1.2,0.4,1.3,0.4c0,0-1-0.4-1.1-1c0.5,0.1,1.2,0.1,1.6-0.1C89,41,89.7,39,89.8,38.8
												c0,0,0.4,1.4,0.7,1.6c-0.1-0.2-0.1-0.5,0.1-0.7c0.2,0.2,0.3,0.7,1,0.9c0-0.1-0.4-0.5-0.4-0.9
												C92.9,39.7,92.9,39.1,92.9,39.1z M60,36.8c0.3,0.2,1.1,0.2,1.3,0c0,0.1,0.1-0.1,0.1,0C61.3,37.7,59.9,37.6,60,36.8z
												 M60.7,33c-0.7,0.1-3,0-2.6-2.4c0.2,0.4,1,1.5,2.1,1.4c1.1-0.1,1.7-1.3,1.8-2C62.1,30.5,62.4,32.8,60.7,33z M62.3,28.6
												c0.2-0.4,0.2-0.8,0.7-1.3c0,0,0,1.6,0,2C62.8,29,62.6,28.8,62.3,28.6z M64.3,30.9c-0.5-0.8-0.9-1.2-0.9-1.2
												c0-0.9,0-2.2,0-2.7c0.4-0.2,0.8-0.3,0.9-0.3C64.3,28,64.3,30.2,64.3,30.9z M76.8,53.2c-0.9-0.4-0.7-1.3,0-1.3V53.2z
												 M79.5,24.7v3.8c-0.4-0.2-0.7-0.4-1-0.6c0,0,0-3.8,0-3.9C78.7,24.3,79.5,24.7,79.5,24.7z M77.3,22.8
												c0.3,0.4,0.5,0.6,0.8,0.9v3.9c-0.4-0.3-0.5-0.4-0.8-0.6L77.3,22.8z M72.9,23.2c0.2,0.1,0.5,0.2,0.9,0.3
												c0,0.3,0,0.5,0,0.9h0.4c0-0.3,0-0.4,0-0.7c0.2,0.1,0.4,0.1,0.7,0.1c0.2,0,0.4,0,0.6-0.1c0,0.3,0,0.4,0,0.7H76
												c0-0.3,0-0.5,0-0.9c0.3-0.1,0.6-0.2,0.9-0.3c0,1.1,0,2.8,0,4c-0.3,0.2-0.5,0.4-0.9,0.6c0-0.6,0-1.4,0-2
												c-0.1,0.1-0.2,0.3-0.2,0.5c0,0.3,0.1,0.5,0.1,1.1h-0.4l0,0.5c-0.2,0-0.4,0.1-0.6,0.1c-0.2,0-0.5,0-0.7-0.1l0-0.5h-0.4
												c-0.1-0.6,0.1-0.8,0.1-1.1c0-0.2-0.1-0.4-0.2-0.5c0,0.6,0,1.4,0,2c-0.4-0.1-0.6-0.3-0.9-0.6C72.9,26,72.9,24.3,72.9,23.2
												z M71.6,23.7c0.3-0.3,0.5-0.5,0.8-0.9l0,4.2c-0.3,0.3-0.4,0.3-0.8,0.6V23.7z M70.2,24.7c0,0,0.8-0.4,1.1-0.7
												c0,0.1,0,3.9,0,3.9c-0.3,0.2-0.7,0.4-1,0.6V24.7z M64.3,47.9c-0.3-0.4-0.6-0.9-0.9-1.2c0.5-0.5,0.6-0.6,0.9-1V47.9z
												 M65.6,50c-0.3-0.6-0.6-1.2-0.8-1.5c0-0.8,0-3,0-3.6c0-0.1,0.5-0.5,0.9-2.7c0,2.1,0.1,5,0,7.3
												C65.7,49.7,65.7,49.9,65.6,50z M65.6,35c-0.2-1-0.3-2-0.9-3.2c0.1-1.5,0-3.7,0-5.1c0.3,0,0.6,0.1,0.9,0.3
												C65.7,29.2,65.8,34.6,65.6,35z M65.8,40c-0.1-0.9,0-2.4-0.1-3.7C65.9,36.9,66,38.9,65.8,40z M69.7,48.5
												c-0.2-0.1-0.3-0.1-0.5-0.3c-0.2,0.1-0.3,0.2-0.5,0.3v-1.1h-0.4v1.3c-0.1,0.1-0.5,0.3-0.9,0.4c0-0.6,0-1.3,0-1.8
												c-0.1,0-0.3,0-0.4,0c0,0.6,0,1.3,0,2c-0.3,0.1-0.5,0.2-0.9,0.3V27.7c0-0.4,0-1.4,0-1.4s0.8-1.2,0.9-1.1c0,0,0,0.6,0,0.6
												h0.4l0-0.6c0.3,0,0.6,0,0.9-0.1v0.6h0.4c0-0.2,0-0.6,0-0.6c0.4-0.1,0.7-0.2,1-0.3v3.8c-0.4,0.2-0.6,0.3-1,0.5
												c0-0.1,0-0.2,0-0.2c0,0-0.4,0-0.4,0v0.4c-0.2,0.1-0.2,0.1-0.4,0.2c0.1,0.3,0.4,0.5,0.4,1.4c0,0.4,0,3.3,0,4.4h0.4
												c0-1.3,0-2.7,0-4c1.9,6-0.1,9.7,0.6,11.9c0.2,0.6,0.4,0.7,0.4,1V48.5z M70.2,48.8c0.1-1.3,0-2.8,0-4.1c0,0,0.4,0.3,1,0.4
												c0,1.5,0,3.2,0,4.6C70.7,49.3,70.5,49.1,70.2,48.8z M71.2,49.8v2.1c-0.3,0-0.4-1.2-0.4-1.7C71,50.1,71.1,49.9,71.2,49.8z
												 M69.9,51.6c-0.1,0.1-0.3,0.3-0.4,0.9c-0.3-0.2-0.7-0.4-1-0.6c0.3-1,1.4-1.7,1.9-1.7c-0.1,0.8,0,1.9,1.4,3.1
												C70.3,53.5,70,52.5,69.9,51.6z M71.6,52.5v-7.4c0.2,0,0.3,0,0.5,0c0,0.3,0.3,0.5,0.3,0.9c0,0,0,6.1,0,7.2
												C72.5,53.2,72,52.9,71.6,52.5z M72.9,53.2V52C73.5,51.9,73.8,52.9,72.9,53.2z M73.8,49.6h-0.9v-0.7
												c0.2,0.2,0.6,0.4,0.9,0.4V49.6z M73.8,49c-0.1,0.1-0.6,0-0.9-0.2v-2.4c0.5,0.4,0.8,0.7,0.9,0.8
												C73.8,47.1,73.8,48.6,73.8,49z M75.5,49.8c-0.4,0.1-0.6,0.4-0.7,0.7c-0.1-0.3-0.3-0.6-0.7-0.7v-2.3
												c0.3,0.2,0.6,0.6,0.7,1.1c0.1-0.5,0.4-0.9,0.7-1.1V49.8z M76.8,49.6H76v-0.3c0.3,0,0.7-0.2,0.9-0.4V49.6z M76.8,48.8
												C76.5,48.9,76,49,76,49c0-0.4,0-1.8,0-1.8c0,0,0.4-0.4,0.9-0.8V48.8z M77.3,53.2c0-1.1,0-7.2,0-7.2
												c0-0.4,0.3-0.5,0.3-0.9c0.2,0,0.3,0,0.5,0v7.4C77.8,52.9,77.3,53.2,77.3,53.2z M79.3,50.3c0.5,0,1.5,0.7,1.9,1.7
												c-0.3,0.1-0.7,0.3-1,0.6c-0.1-0.7-0.3-0.8-0.4-0.9c0,0.9-0.4,1.9-1.9,1.9C79.3,52.2,79.3,51.1,79.3,50.3z M78.5,51.8
												v-2.1c0.1,0.1,0.2,0.3,0.4,0.4C78.9,50.6,78.7,51.8,78.5,51.8z M78.5,49.7c0-1.4,0-3.1,0-4.6c0.7-0.2,1-0.4,1-0.4
												c0,1.4,0,2.8,0,4.1C79.2,49.1,79,49.3,78.5,49.7z M77.2,44.8c-0.4,1.3-1.9,1.5-2.3,2.7c-0.4-1.3-1.9-1.4-2.3-2.7
												c-1.8,0.1-2.7-1-2.9-2.4c-0.1-0.7,0.1-1.4,0.1-2.2c0.1-0.8,0.1-1.5,0.2-2.2c0.2-3.4-0.5-6.2-1.5-8.2
												c1.6-0.5,3-1.2,4.1-2.2c0.2,0.2,0.4,0.3,0.6,0.5c0.5,0.3,1.1,0.5,1.8,0.5c0.6,0,1.3-0.2,1.8-0.5c0.2-0.1,0.4-0.3,0.6-0.5
												c1.1,1,2.5,1.7,4.1,2.2c-1.1,2-1.7,4.8-1.5,8.2c0,0.7,0.1,1.5,0.2,2.2c0.1,0.8,0.2,1.5,0.1,2.2
												C79.9,43.9,79,44.9,77.2,44.8z M83.6,27.7v22.1c-0.4-0.1-0.6-0.2-0.9-0.3c0-0.7,0-1.4,0-2c-0.1-0.1-0.3,0-0.4,0
												c0,0.5,0,1.2,0,1.8c-0.3-0.1-0.8-0.4-0.9-0.4v-1.3H81v1.1c-0.2-0.1-0.3-0.2-0.5-0.3c-0.2,0.1-0.3,0.2-0.5,0.3v-4.2
												c0-0.3,0.2-0.4,0.4-1c0.7-2.2-1.3-5.9,0.6-11.9c0,1.2,0,2.7,0,4h0.4c0-1.2,0-4,0-4.4c0-1,0.3-1.2,0.4-1.4
												c-0.2-0.1-0.3-0.1-0.4-0.2v-0.4c0,0-0.4,0-0.4,0c0,0,0,0.2,0,0.2c-0.4-0.2-0.7-0.3-1-0.5v-3.8c0.4,0.1,0.6,0.2,1,0.3
												c0,0,0,0.4,0,0.6h0.4v-0.6c0.4,0,0.6,0,0.9,0.1l0,0.6h0.4c0,0,0-0.6,0-0.6c0.1-0.1,0.9,1.1,0.9,1.1S83.6,27.3,83.6,27.7z
												 M83.9,40c-0.1-1.1-0.1-3.1,0.1-3.7C83.9,37.6,84,39.1,83.9,40z M85.4,45.7c0.3,0.4,0.5,0.5,0.9,1
												c-0.3,0.3-0.6,0.7-0.9,1.2V45.7z M85,44.9c0,0.5,0,2.7,0,3.6c-0.2,0.3-0.5,0.9-0.8,1.5C84,49.9,84,49.7,84,49.6
												c0-2.3,0-5.3,0-7.3C84.5,44.4,85,44.9,85,44.9z M84.1,35C83.9,34.6,84,29.2,84,27c0.3-0.1,0.6-0.2,0.9-0.3
												c0,1.4,0,3.6,0,5.1C84.4,33.1,84.3,34,84.1,35z M86.3,29.7c0,0-0.4,0.4-0.9,1.2c0-0.7,0-2.9,0-4.2c0.2,0,0.6,0.1,0.9,0.3
												C86.3,27.4,86.3,28.8,86.3,29.7z M86.7,29.3c0-0.4,0-1.9,0-2c0.5,0.5,0.5,0.8,0.7,1.3C87.1,28.8,87,29,86.7,29.3z M89,33
												c-1.7-0.2-1.4-2.5-1.3-2.9c0.1,0.7,0.7,1.9,1.8,2c1.1,0.1,1.9-1.1,2.1-1.4C92,33.1,89.7,33.1,89,33z M88.3,36.8
												c0.1-0.1,0.1,0.1,0.1,0c0.1,0.2,1,0.2,1.3,0C89.8,37.6,88.4,37.7,88.3,36.8z"/>
											
												<rect x="67" y="38.5" transform="matrix(-1 -1.224647e-16 1.224647e-16 -1 134.3791 82.8228)" class="st2" width="0.4" height="5.8"/>
											
												<rect x="68.3" y="38.5" transform="matrix(-1 -1.224647e-16 1.224647e-16 -1 137.0394 82.8228)" class="st2" width="0.4" height="5.8"/>
											
												<rect x="67" y="28.9" transform="matrix(-1 -1.224647e-16 1.224647e-16 -1 134.3791 64.3234)" class="st2" width="0.4" height="6.4"/>
											<path class="st2" d="M70.5,19.5c-0.5-0.8-0.9-0.3-1-0.2c-0.1,0.1-0.4,1.1,0.7,0.8c0,0.1,0,1.5-1.6,1.6
												c-1.6,0-1.8-1.7-1.8-1.7s1.7-1.4-0.4-3.7c0,0-0.8-0.4-1-1.4c0,0-0.2,0.2-0.1,1c0,0-2.8,0.6-3.6,6.2
												c-0.2,1.4-0.6,4.2-1.5,4.8c0,0-0.7-1-1.2,0c-0.4,0.9,0.5,1,0.6,0.9c0.1,0,0.5-0.3,0.5-0.3s1.2,0.3,1.6-1.7
												c0,0,0.9-0.3,0.4-2.5c0,0,1.2-0.6,0.5-2.4c0,0,0.9,0,0.8-1.5c0,0,0.8-0.2,0.9-2.1c0,0,0.3-0.7,1.2-0.7s1.3,1.5,1,2.2
												c0,0-0.8-0.1-0.8,0.5c0,0.6,0.6,0.7,0.6,0.7s0.2,3.3,1.9,3.7c1.7,0.5,2.2-0.8,2.4-1.3C70.9,21.7,71,20.3,70.5,19.5z
												 M68.4,22.7c-1.4-0.1-1.6-1.9-1.6-1.9c1.6,2.4,3.3,0.4,3.3,0.4S69.9,22.7,68.4,22.7z"/>
											<path class="st2" d="M66.1,18.2c0,0-1.7-0.5-1.3,1.2c0,0-1,0.6-0.5,1.5c0,0-0.6,0.5-0.3,2.2c0,0,1,0.4,1.4,1.6
												c0,0,0.6-0.4-0.5-1.6c0,0,0.2-0.6,0.8,0.4c0,0,0.3-0.5-0.7-1.3c0,0-0.3-1.2,0.7,0c0,0,0.3-0.4-0.5-1.1
												c0,0-0.7-1.4,0.6-0.4C65.9,20.8,64.5,18.4,66.1,18.2z"/>
											<path class="st2" d="M65.3,25.5c0,0-0.2-1.1-1.7-1.3c0,0-0.2,0-0.2,0.3c0,0.3,0.8,0.3,0.8,0.3S64.5,24.8,65.3,25.5z"/>
											<path class="st2" d="M65.2,26.1c0,0-0.1-1-1.9-1.1c0,0-0.2,0-0.2,0.3c0,0.3,0.4,0.3,0.4,0.3S64.3,25.3,65.2,26.1z"/>
										</g>
									</g>
								</g>
							</g>
						</g>
						<circle class="st2" cx="73.5" cy="5.8" r="0.2"/>
						<circle class="st2" cx="72.8" cy="6.2" r="0.2"/>
						<circle class="st2" cx="72" cy="6.2" r="0.2"/>
						<circle class="st2" cx="71.3" cy="5.9" r="0.2"/>
						<circle class="st2" cx="70.6" cy="5.6" r="0.2"/>
						<circle class="st2" cx="72.6" cy="4.6" r="0.2"/>
						<circle class="st2" cx="71.7" cy="4.4" r="0.2"/>
						<circle class="st2" cx="70.9" cy="4.4" r="0.2"/>
						<circle class="st2" cx="70" cy="4.5" r="0.2"/>
						<circle class="st2" cx="69.1" cy="4.8" r="0.2"/>
						<circle class="st2" cx="68.4" cy="5.2" r="0.2"/>
						<circle class="st2" cx="67.8" cy="5.9" r="0.2"/>
						<circle class="st2" cx="67.5" cy="6.6" r="0.2"/>
						<circle class="st2" cx="67.2" cy="7.4" r="0.2"/>
						<circle class="st2" cx="67.2" cy="8.3" r="0.2"/>
						<circle class="st2" cx="67.5" cy="9.2" r="0.2"/>
						<circle class="st2" cx="68.1" cy="10.1" r="0.2"/>
						<circle class="st2" cx="69.1" cy="10.7" r="0.2"/>
						<circle class="st2" cx="65.7" cy="12.7" r="0.2"/>
						<circle class="st2" cx="64.9" cy="12.1" r="0.2"/>
						<circle class="st2" cx="64.3" cy="11.2" r="0.2"/>
						<circle class="st2" cx="64" cy="10.2" r="0.2"/>
						<circle class="st2" cx="63.9" cy="9.2" r="0.2"/>
						<circle class="st2" cx="64.1" cy="8.1" r="0.2"/>
						<circle class="st2" cx="65.4" cy="6.4" r="0.2"/>
						<circle class="st2" cx="66.3" cy="5.9" r="0.2"/>
						<circle class="st2" cx="67.1" cy="5.5" r="0.2"/>
					</g>
				</g>
			</g>
			<g>
				<path class="st2" d="M89.9,13.3c-0.2,0-0.3,0-0.4,0.1c-0.7,0.2-1.2,1.2-0.9,2c0.1,0.3,0.4,0.6,0.8,0.7c0.8,0.3,1.8-0.5,2-1
					C91.8,14,90.9,13.2,89.9,13.3z M90.7,14.9c-0.3,0.3-1,0.8-1.5,0.7c-0.2,0-0.5-0.2-0.5-0.5c-0.1-0.4,0.4-0.7,0.6-0.9
					c0.3-0.2,0.6-0.5,1-0.5c0.4,0,0.7,0,0.7,0.3C91.2,14.4,90.9,14.7,90.7,14.9z"/>
				<path class="st2" d="M60.3,14.3c-0.3-0.4-0.9-0.7-1.3-0.7c-0.9-0.1-1.4,0.5-1.4,1.5c0,0.3,0.1,0.5,0.3,0.7
					c0.2-0.1-0.1-0.4-0.1-0.7c0-0.2,0-0.5,0.2-0.6c0.1,0.1,0,0.4,0,0.6c0,0.2,0.1,0.4,0.3,0.4c0.1,0,0.1-0.1,0.1-0.2
					c0.5,0.4,1.2,0.6,1.2,1.4c0.2-0.3,0.4-0.5,0.6-0.8c0.2-0.3,0.4-0.6,0.4-0.9C60.6,14.8,60.5,14.5,60.3,14.3z M59.8,15.7
					c-0.4-0.3-0.9-0.6-1.3-1.1c-0.3-0.3-0.3-0.9,0.4-0.7c0.4,0.1,1,0.5,1.1,0.8C60.1,15.1,59.9,15.3,59.8,15.7z"/>
				<path class="st2" d="M92.1,15.5c-0.3,0.9-0.7,1.6-0.9,2.5c0.2,0,0.4-0.2,0.7-0.4c0.3-0.2,0.8-0.8,1.2-0.3
					c0.2,0.2,0.3,0.8-0.3,0.7c-0.2-0.8-0.8-0.2-1.2,0.1c-0.4,0.3-0.8,0.4-0.8,1.1c-0.2-0.3-0.4-0.7-0.6-1c0.1,0,0.1,0,0.2,0
					c0.3-0.6,0.5-1.2,0.8-1.9c-0.2,0-0.3,0.2-0.6,0.3c-0.4,0.2-0.8,0.3-0.7,0.9c-0.2-0.3-0.3-0.6-0.5-0.9c0.7,0.2,1-0.3,1.5-0.6
					c0.3-0.2,0.7-0.5,0.9-0.6C91.9,15.4,92,15.4,92.1,15.5z"/>
				<path class="st2" d="M56.1,17.5c0,0.1-0.1,0.1-0.1,0.2c0.3,0.3,0.5,0.7,0.9,1c0.1-0.2-0.1-0.3-0.2-0.5c0.1-0.1,0.2-0.3,0.3-0.5
					c0.1,0,0.3,0,0.4,0.1c0-0.1,0.1-0.1,0.1-0.2C57,17.6,56.6,17.6,56.1,17.5z M56.7,18.1c-0.2-0.1-0.3-0.3-0.4-0.4
					c0.2-0.1,0.4,0,0.6,0.1C56.8,17.9,56.7,18,56.7,18.1z"/>
				<path class="st2" d="M58,17.8c-0.1,0.4-0.4,0.8-0.6,1.2c-0.1,0.2-0.2,0.4-0.3,0.6C57,19.7,56.9,20,56.7,20
					c-0.1-0.2,0.1-0.4,0.2-0.6c0.3-0.5,0.6-1.1,0.9-1.6c0,0,0,0,0.1-0.1C57.9,17.7,57.9,17.8,58,17.8z"/>
				<path class="st2" d="M58.6,18.2c0.3,0.6-0.6,0.7-0.6,0.2C58,18.1,58.3,18,58.6,18.2z"/>
				<path class="st2" d="M56.2,18.8v-0.2c-0.4-0.6-0.9,0.2-1,0.6c0.4,0.2,0.7,0.4,1.1,0.6c0-0.1,0-0.1,0.1-0.1
					c-0.2-0.1-0.4-0.2-0.5-0.3c0.1-0.3,0.4-0.5,0.9-0.3c0-0.1,0.1-0.1,0.1-0.2C56.6,18.8,56.4,18.7,56.2,18.8z M55.8,19.2
					c-0.2,0-0.3-0.1-0.4-0.2c0.1-0.3,0.3-0.7,0.6-0.4C56.1,18.9,55.9,19,55.8,19.2z"/>
				<path class="st2" d="M93.1,19.6c-0.2,0.1-0.3,0-0.4,0.2c0,0.2,0.2,0.3,0.3,0.3c0.2,0,0.5-0.2,0.5-0.5c0-0.4-0.5-0.6-0.9-0.6
					c-1.2,0.1-1.6,2.4,0.1,2c-0.7,0.6-1.5-0.2-1.5-0.9c0-1,0.8-1.8,1.8-1.7c0.6,0.1,1.2,0.5,1.2,1.3c0,0.6-0.4,1-0.8,1.1
					c-0.5,0.1-0.9-0.2-1-0.6C92.3,19.7,92.7,19.2,93.1,19.6z"/>
				<path class="st2" d="M55,19.6C55,19.6,55,19.6,55,19.6c0.1,0.3,0.2,0.5,0.4,0.7c0,0,0.2,0.1,0.1,0.1c-0.4-0.3-0.9,0.7-0.5,0.8
					c0.3,0.1,0.5-0.5,0.6-0.6c0.2-0.3,0.5-0.7,1-0.7c0.9,0,1.2,1.6,0.5,2.3c-0.3,0.3-1.3,0.5-1.3-0.2c0-0.3,0.4-0.3,0.3-0.7
					c0.2,0.1,0.4,0.3,0.6,0.3c-0.1,0.1-0.3,0-0.4,0.1c-0.1,0.1,0,0.3,0.1,0.4c0.6,0,0.8-0.7,0.6-1.1c-0.3-0.5-0.7-0.2-1,0.2
					c-0.3,0.3-0.6,1-1.3,0.6c-0.2-0.1-0.4-0.5-0.4-0.9c0-0.5,0.5-0.6,0.7-0.9C54.9,19.9,54.9,19.7,55,19.6z"/>
				<path class="st2" d="M94.1,20.7c0.6,0.2,0.9,0.9,1,1.7c0,0.4,0,0.8-0.3,0.8c-0.4,0-0.6-0.4-0.5-0.8c0.2,0,0.2,0.2,0.5,0.2
					c0.2-0.3-0.1-0.6-0.1-0.9c-0.3-0.2-0.8,0-0.9,0.2c0,0.2,0.2,0.3,0.4,0.3c-0.2,0.2-0.4,0.3-0.6,0.4c0.2-0.3,0.1-0.6-0.1-0.6
					c-0.2,0-0.7,0.4-0.7,0.5c-0.1,0.3,0.2,0.8,0.5,0.9c0.1,0,0.3,0,0.4,0c0.1,0-0.1,0.2-0.1,0.2c-0.2,0.2-0.5,0.4-0.7,0.5
					c-0.1-1-0.5-1.7-0.8-2.4c0.2,0,0.3,0.1,0.5,0.1c0.3,0,0.6-0.2,0.9-0.3c0.3-0.1,0.7-0.2,0.8-0.4C94.2,20.9,94.1,20.8,94.1,20.7z"
					/>
				<path class="st2" d="M95.6,23.6c0.2,0.3,0.2,0.8,0.3,1.2c-0.8-0.4-1.9,0.1-2.4,0.5c-0.1,0.1-0.2,0.3-0.4,0.3
					c-0.1-0.4-0.2-0.7-0.3-1.1C93.9,24.8,95.1,24.3,95.6,23.6z"/>
				<path class="st2" d="M56,23.8c0.3-0.1,0.5,0,0.5,0.3c0,0.4-0.6,0.4-0.7,0.1C55.8,24,55.8,23.9,56,23.8z"/>
				<path class="st2" d="M53.8,24.2c-0.1,0.2-0.2,0.5,0.2,0.6c0.2,0.1,0.9,0.1,1.3,0.1c0.1,0,0.2,0,0.3,0c0.3,0,0.4-0.3,0.5-0.3
					c-0.1,0.4-0.1,0.8-0.2,1.1c0,0.1-0.1-0.1-0.2-0.1c-0.6,0.3-1.2,0.6-1.8,0.9c0.2,0.1,0.4,0.1,0.7,0.1c0.4,0.1,0.7,0.2,1-0.1
					c0.1,0,0.2-0.2,0.2-0.1c-0.1,0.3-0.2,0.6-0.3,0.9c-0.2-0.5-1-0.5-1.7-0.6c-0.2,0-0.4-0.1-0.6-0.1c-0.2,0-0.4,0-0.5-0.3
					c0.6-0.4,1.2-0.6,1.8-0.9c0.2-0.1,0.4-0.2,0.5-0.3c-0.1-0.2-0.3-0.1-0.5-0.1c-0.6,0-1.3,0-1.3-0.6
					C53.2,24.2,53.5,23.8,53.8,24.2z"/>
				<path class="st2" d="M95.4,26.6c-0.2,0.1-0.3,0-0.4,0.1c-0.1,0.2,0.2,0.4,0.3,0.4c0.2,0,0.5-0.2,0.5-0.6c0-0.4-0.4-0.6-0.7-0.6
					c-1.3-0.2-2.2,2-0.4,2c-0.5,0.3-1.3,0-1.3-0.6c-0.3,0.2-0.8,0.2-0.9-0.2c0.3,0.1,0.7,0,0.9-0.1c0-0.5,0.2-0.9,0.4-1.1
					c0.8-0.9,2.8-0.5,2.6,1c-0.1,0.4-0.4,0.9-0.9,0.9c-0.3,0-0.6,0-0.8-0.2C94.3,27,94.9,25.9,95.4,26.6z"/>
				<path class="st2" d="M82.9,35.6h-0.6c0,0.3,0,0.6,0,0.8h-0.3v-0.8h-0.6v0.8h-0.3c0-0.3,0-0.5,0-0.8h-0.6v0.8
					c0,0.4,0.3,0.5,0.3,0.9s-0.1,0.4-0.1,1h0.6c0-0.3,0.2-0.4,0.3-0.4c0.2,0,0.4,0.1,0.3,0.4h0.6c0-0.5-0.1-0.5-0.1-1
					s0.3-0.6,0.3-0.9V35.6z"/>
				<path class="st2" d="M69,35.6h-0.6c0,0.3,0,0.6,0,0.8h-0.3v-0.8h-0.6v0.8h-0.3c0-0.3,0-0.5,0-0.8h-0.6v0.8
					c0,0.4,0.3,0.5,0.3,0.9s-0.1,0.4-0.1,1h0.6c0-0.3,0.2-0.4,0.3-0.4c0.2,0,0.4,0.1,0.3,0.4h0.6c0-0.5-0.1-0.5-0.1-1
					s0.3-0.6,0.3-0.9V35.6z"/>
				<path class="st2" d="M73.8,29.3v2c0,1.1,0.4,2.1,1,2.7c0.6-0.6,1-1.6,1-2.7v-2H73.8z M74.4,30.1c0.1,0,0.2,0.1,0.2,0.2
					c0,0.1-0.1,0.2-0.2,0.2c-0.1,0-0.2-0.1-0.2-0.2C74.2,30.2,74.3,30.1,74.4,30.1z M74.4,32.3c-0.1,0-0.2-0.1-0.2-0.2
					c0-0.1,0.1-0.2,0.2-0.2c0.1,0,0.2,0.1,0.2,0.2C74.6,32.2,74.5,32.3,74.4,32.3z M74.9,31.5c-0.1,0-0.2-0.1-0.2-0.2
					c0-0.1,0.1-0.2,0.2-0.2c0.1,0,0.2,0.1,0.2,0.2C75.1,31.4,75,31.5,74.9,31.5z M75.3,32.3c-0.1,0-0.2-0.1-0.2-0.2
					c0-0.1,0.1-0.2,0.2-0.2c0.1,0,0.2,0.1,0.2,0.2C75.5,32.2,75.4,32.3,75.3,32.3z M75.3,30.5c-0.1,0-0.2-0.1-0.2-0.2
					c0-0.1,0.1-0.2,0.2-0.2c0.1,0,0.2,0.1,0.2,0.2C75.5,30.4,75.4,30.5,75.3,30.5z"/>
				<path class="st2" d="M73.8,34.9v2c0,1.1,0.4,2.1,1,2.7c0.6-0.6,1-1.6,1-2.7v-2H73.8z M74.4,35.8c0.1,0,0.2,0.1,0.2,0.2
					c0,0.1-0.1,0.2-0.2,0.2c-0.1,0-0.2-0.1-0.2-0.2C74.2,35.9,74.3,35.8,74.4,35.8z M74.4,38c-0.1,0-0.2-0.1-0.2-0.2
					c0-0.1,0.1-0.2,0.2-0.2c0.1,0,0.2,0.1,0.2,0.2C74.6,37.9,74.5,38,74.4,38z M74.9,37.2c-0.1,0-0.2-0.1-0.2-0.2
					c0-0.1,0.1-0.2,0.2-0.2c0.1,0,0.2,0.1,0.2,0.2C75.1,37.1,75,37.2,74.9,37.2z M75.3,38c-0.1,0-0.2-0.1-0.2-0.2
					c0-0.1,0.1-0.2,0.2-0.2c0.1,0,0.2,0.1,0.2,0.2C75.5,37.9,75.4,38,75.3,38z M75.3,36.2c-0.1,0-0.2-0.1-0.2-0.2
					c0-0.1,0.1-0.2,0.2-0.2c0.1,0,0.2,0.1,0.2,0.2C75.5,36.1,75.4,36.2,75.3,36.2z"/>
				<path class="st2" d="M70.6,34.9v2c0,1.1,0.4,2.1,1,2.7c0.6-0.6,1-1.6,1-2.7v-2H70.6z M71.2,35.8c0.1,0,0.2,0.1,0.2,0.2
					c0,0.1-0.1,0.2-0.2,0.2c-0.1,0-0.2-0.1-0.2-0.2C71,35.9,71.1,35.8,71.2,35.8z M71.2,38c-0.1,0-0.2-0.1-0.2-0.2
					c0-0.1,0.1-0.2,0.2-0.2c0.1,0,0.2,0.1,0.2,0.2C71.4,37.9,71.3,38,71.2,38z M71.7,37.2c-0.1,0-0.2-0.1-0.2-0.2
					c0-0.1,0.1-0.2,0.2-0.2c0.1,0,0.2,0.1,0.2,0.2C71.9,37.1,71.8,37.2,71.7,37.2z M72.1,38c-0.1,0-0.2-0.1-0.2-0.2
					c0-0.1,0.1-0.2,0.2-0.2c0.1,0,0.2,0.1,0.2,0.2C72.3,37.9,72.2,38,72.1,38z M72.1,36.2c-0.1,0-0.2-0.1-0.2-0.2
					c0-0.1,0.1-0.2,0.2-0.2c0.1,0,0.2,0.1,0.2,0.2C72.3,36.1,72.2,36.2,72.1,36.2z"/>
				<path class="st2" d="M77,34.9v2c0,1.1,0.4,2.1,1,2.7c0.6-0.6,1-1.6,1-2.7v-2H77z M77.6,35.8c0.1,0,0.2,0.1,0.2,0.2
					c0,0.1-0.1,0.2-0.2,0.2c-0.1,0-0.2-0.1-0.2-0.2C77.4,35.9,77.5,35.8,77.6,35.8z M77.6,38c-0.1,0-0.2-0.1-0.2-0.2
					c0-0.1,0.1-0.2,0.2-0.2c0.1,0,0.2,0.1,0.2,0.2C77.8,37.9,77.7,38,77.6,38z M78.1,37.2c-0.1,0-0.2-0.1-0.2-0.2
					c0-0.1,0.1-0.2,0.2-0.2c0.1,0,0.2,0.1,0.2,0.2C78.3,37.1,78.2,37.2,78.1,37.2z M78.5,38c-0.1,0-0.2-0.1-0.2-0.2
					c0-0.1,0.1-0.2,0.2-0.2c0.1,0,0.2,0.1,0.2,0.2C78.7,37.9,78.6,38,78.5,38z M78.5,36.2c-0.1,0-0.2-0.1-0.2-0.2
					c0-0.1,0.1-0.2,0.2-0.2c0.1,0,0.2,0.1,0.2,0.2C78.7,36.1,78.6,36.2,78.5,36.2z"/>
				<path class="st2" d="M73.8,40.6v2c0,1.1,0.4,2.1,1,2.7c0.6-0.6,1-1.6,1-2.7v-2H73.8z M74.4,41.4c0.1,0,0.2,0.1,0.2,0.2
					c0,0.1-0.1,0.2-0.2,0.2c-0.1,0-0.2-0.1-0.2-0.2C74.2,41.5,74.3,41.4,74.4,41.4z M74.4,43.7c-0.1,0-0.2-0.1-0.2-0.2
					s0.1-0.2,0.2-0.2c0.1,0,0.2,0.1,0.2,0.2S74.5,43.7,74.4,43.7z M74.9,42.8c-0.1,0-0.2-0.1-0.2-0.2c0-0.1,0.1-0.2,0.2-0.2
					c0.1,0,0.2,0.1,0.2,0.2C75.1,42.7,75,42.8,74.9,42.8z M75.3,43.7c-0.1,0-0.2-0.1-0.2-0.2s0.1-0.2,0.2-0.2c0.1,0,0.2,0.1,0.2,0.2
					S75.4,43.7,75.3,43.7z M75.3,41.9c-0.1,0-0.2-0.1-0.2-0.2c0-0.1,0.1-0.2,0.2-0.2c0.1,0,0.2,0.1,0.2,0.2
					C75.5,41.8,75.4,41.9,75.3,41.9z"/>
				<path class="st2" d="M82.9,26h-0.6c0,0.3,0,0.6,0,0.8h-0.3V26h-0.6v0.8h-0.3c0-0.3,0-0.5,0-0.8h-0.6v0.8c0,0.4,0.3,0.5,0.3,0.9
					c0,0.4-0.1,0.4-0.1,1h0.6c0-0.3,0.2-0.4,0.3-0.4c0.2,0,0.4,0.1,0.3,0.4h0.6c0-0.5-0.1-0.5-0.1-1c0-0.4,0.3-0.6,0.3-0.9V26z"/>
				<path class="st2" d="M69,26h-0.6c0,0.3,0,0.6,0,0.8h-0.3V26h-0.6v0.8h-0.3c0-0.3,0-0.5,0-0.8h-0.6v0.8c0,0.4,0.3,0.5,0.3,0.9
					c0,0.4-0.1,0.4-0.1,1h0.6c0-0.3,0.2-0.4,0.3-0.4c0.2,0,0.4,0.1,0.3,0.4h0.6c0-0.5-0.1-0.5-0.1-1c0-0.4,0.3-0.6,0.3-0.9V26z"/>
				<path class="st2" d="M82.9,44.5h-0.6c0,0.3,0,0.6,0,0.8h-0.3v-0.8h-0.6v0.8h-0.3c0-0.3,0-0.5,0-0.8h-0.6v0.8
					c0,0.4,0.3,0.5,0.3,0.9c0,0.4-0.1,0.4-0.1,1h0.6c0-0.3,0.2-0.4,0.3-0.4c0.2,0,0.4,0.1,0.3,0.4h0.6c0-0.5-0.1-0.5-0.1-1
					c0-0.4,0.3-0.6,0.3-0.9V44.5z"/>
				<path class="st2" d="M69,44.5h-0.6c0,0.3,0,0.6,0,0.8h-0.3v-0.8h-0.6v0.8h-0.3c0-0.3,0-0.5,0-0.8h-0.6v0.8
					c0,0.4,0.3,0.5,0.3,0.9c0,0.4-0.1,0.4-0.1,1h0.6c0-0.3,0.2-0.4,0.3-0.4c0.2,0,0.4,0.1,0.3,0.4h0.6c0-0.5-0.1-0.5-0.1-1
					c0-0.4,0.3-0.6,0.3-0.9V44.5z"/>
				<path class="st2" d="M76,24.5h-0.6c0,0.3,0,0.6,0,0.8h-0.3v-0.8h-0.6v0.8h-0.3c0-0.3,0-0.5,0-0.8h-0.6v0.8
					c0,0.4,0.3,0.5,0.3,0.9c0,0.4-0.1,0.4-0.1,1h0.6c0-0.3,0.2-0.4,0.3-0.4c0.2,0,0.4,0.1,0.3,0.4h0.6c0-0.5-0.1-0.5-0.1-1
					c0-0.4,0.3-0.6,0.3-0.9V24.5z"/>
				<path class="st2" d="M96.6,29.5c-0.2,0.1-1,0.4-1.1,0c-0.1-0.2,0.1-0.5-0.1-0.7c-0.1-0.1-0.4-0.1-0.5,0c0,0.1,0,0.2,0,0.2
					c0.1,0.1,0.3,0,0.3,0c0,0.1,0,0.3,0,0.4c-0.6,0.1-0.9-0.2-1-0.7c0.1-0.1,0.2-0.1,0.2-0.2c0-0.3-0.4-0.5-0.7-0.3
					c-0.1,0.1-0.2,0.4-0.1,0.6c0.1,0.5,0.8,0.6,1.2,0.7c-0.2,0.1-0.5,0.1-0.6,0.4c0.1,0.2,0.4,0.2,0.6,0.3c-0.1,0.1-0.4,0.3-0.7,0.2
					c-0.1,0-0.2-0.1-0.3-0.1c0.1,0.3,0,0.8,0.1,1.1c0.6-0.5,1.5-1.2,2.7-0.9C96.6,30.4,96.6,29.9,96.6,29.5z M95.1,30.3
					c-0.1-0.1-0.1-0.4,0-0.5c0.2,0,0.7-0.1,0.9,0.1C96,30.2,95.4,30.2,95.1,30.3z"/>
				<path class="st2" d="M97.6,30.6c0,0,0,0.1,0,0.1c-0.2,0.1-0.4,0-0.5-0.1c-0.1-0.3,0.1-0.5,0.1-0.7c0-0.2-0.3-0.2-0.3-0.4
					c0.3-0.1,0.6,0,0.7,0.2c0,0.2-0.3,0.4-0.2,0.7C97.3,30.5,97.5,30.5,97.6,30.6z"/>
				<path class="st2" d="M55.2,29.7c-0.2,0.6-0.2,1.7-0.1,2.6c0,0.1-0.1-0.1-0.2-0.1C54.8,32,54.7,32,54.7,32
					c-0.4,0.1-1.6-0.2-1.9,0.1c-0.1,0.1-0.1,0.2-0.1,0.3c-0.2-0.2-0.5-0.6-0.5-1.2c0-0.5,0.3-1.3,0.5-1.3c0.5-0.1,0.7,0.5,0.4,1
					c-0.2-0.1-0.2-0.3-0.4-0.3c-0.2,0.1-0.3,0.6-0.2,0.9c0.1,0.3,0.5,0.3,0.9,0.2c0.1-0.2,0-0.4-0.2-0.5c0.2-0.1,0.4-0.1,0.6-0.2
					c0.1,0-0.2,0.2-0.2,0.4c0,0.1,0.1,0.2,0.2,0.3c0.3-0.1,0.5,0,0.7-0.1c0.3-0.2,0.3-0.8,0.1-1.1c-0.1-0.1-0.3-0.2-0.5-0.3
					C54.5,29.9,54.9,29.8,55.2,29.7z"/>
				<path class="st2" d="M95.3,31.4c-0.7,0.1-1.3,0.6-1.3,1.3c0,0.5,0.1,1,0.5,1.2c0.7,0.4,1.9,0.2,2.3-0.3
					C97.7,32.6,96.5,31.2,95.3,31.4z M94.2,32.8c0-0.5,0.5-0.6,1-0.7c0.6-0.1,1.6,0,1.6,0.7C96.9,33.7,94.2,33.8,94.2,32.8z"/>
				<path class="st2" d="M54.7,32.8c-0.1-0.1-0.5-0.3-0.7-0.4c-0.8-0.2-1.9,0.4-2,1.1c-0.1,0.6,0.1,0.9,0.4,1.2
					c0.2,0.2,0.4,0.5,0.7,0.5c0-0.3-0.4-0.4-0.5-0.6c-0.1-0.1-0.2-0.3-0.1-0.5c0.2,0.3,0.3,0.7,0.8,0.7c0.1,0-0.1-0.2,0-0.2
					c0.5,0,1.1-0.1,1.5,0.1c0.1,0,0.1,0.1,0.2,0.2c0,0,0.1,0.2,0.1,0.1C54.9,34.1,55.1,33.2,54.7,32.8z M52.4,33.5
					c-0.1-0.7,1.5-0.8,1.8-0.4c0.2,0.2,0.2,0.4,0.3,0.8C53.9,33.9,52.4,34,52.4,33.5z"/>
				<path class="st2" d="M96.4,36.9c-0.1-0.2-0.3-0.5-0.6-0.5c0,0.3,0.3,0.3,0.4,0.5c0.1,0.1,0.2,0.4,0.1,0.6
					c-0.2-0.1-0.1-0.3-0.2-0.4c-0.1-0.2-0.3-0.3-0.5-0.3c-0.1,0,0,0.2-0.1,0.2c-0.7,0-1.5-0.1-1.7-0.6c0,0.6-0.3,1.5,0,2
					c0.2,0.4,0.9,0.7,1.4,0.7c0.4,0,0.9-0.3,1.1-0.5C96.9,38.2,96.7,37.4,96.4,36.9z M94.5,38.4c-0.2-0.2-0.2-0.5-0.2-0.9v-0.1
					c0.4,0.1,2,0.1,2,0.7C96.3,38.8,94.9,38.8,94.5,38.4z"/>
				<path class="st2" d="M55.3,37.3c0.1,0.7,0.1,1.6,0.2,2.4c-0.9-0.5-2.4-0.1-2.9,0.4c-0.1-0.4-0.1-0.8-0.1-1.1
					c0.7,0.3,1.7,0.2,2.3-0.1c0.1-0.2,0.3-0.5,0.1-0.7c-0.2-0.3-0.8-0.1-1,0.1c0-0.2,0-0.3,0.1-0.4C54.3,37.4,55.1,37.6,55.3,37.3z"
					/>
				<path class="st2" d="M95.4,39.7c-0.3-0.1-0.7-0.2-1-0.1c-0.9,0.1-1.5,0.9-1.2,1.8c0.3,0.7,1.5,1.2,2.3,0.9
					c0.3-0.1,0.6-0.5,0.7-0.8C96.5,40.7,95.9,39.9,95.4,39.7z M95.2,41.7c-0.6,0-1.8-0.5-1.6-1.2c0-0.2,0.2-0.4,0.5-0.4
					c0.7-0.1,2.1,0.4,2,1.1C96,41.6,95.6,41.7,95.2,41.7z"/>
				<path class="st2" d="M55,42c0.2-0.2,0.4-0.2,0.5-0.5c-0.1-0.2-0.5-0.1-0.7-0.2c0.1-0.2,0.6-0.5,0.9-0.3
					c-0.1-0.4-0.1-0.8-0.3-1.1c-0.6,0.7-1.3,1.4-2.5,1.4c0.2,0.3,0.2,0.8,0.3,1.2c0.1-0.3,0.9-0.6,1.1-0.2c0.1,0.2,0,0.5,0.2,0.7
					c0.3,0.1,0.6-0.1,0.4-0.3c-0.1-0.1-0.2,0.1-0.3,0.1c0-0.1-0.1-0.3-0.1-0.4c0.5-0.2,1,0,1.1,0.5c-0.1,0.1-0.2,0.1-0.2,0.2
					c0,0.3,0.5,0.3,0.7,0.1C56.5,42.3,55.7,42.1,55,42z M54.9,41.9c-0.2,0.1-0.7,0.2-0.9,0.1c0.1-0.4,0.5-0.4,0.8-0.6
					C54.9,41.5,54.9,41.7,54.9,41.9z"/>
				<path class="st2" d="M56.6,43.4c0.1,0.9,0.5,1.7,0.8,2.5c-0.4-0.3-0.9,0-1.4,0.2c-0.3,0.1-0.6,0.2-0.9,0.4c0,0.1,0,0.2,0,0.3
					c-0.2-0.1-0.4-0.2-0.6-0.4c-0.3-0.4-0.5-1.3-0.4-1.8c0-0.1,0.2-0.3,0.3-0.3c0.4,0,0.5,0.4,0.5,0.8c-0.2,0.1-0.2-0.2-0.5-0.2
					c-0.2,0.1-0.1,0.4,0,0.6c0.2,0.5,0.6,0.5,1.1,0.2c0-0.2-0.1-0.3-0.3-0.4c0.1-0.2,0.4-0.3,0.5-0.4c0,0.2-0.2,0.6,0.1,0.6
					c0.1,0,0.7-0.3,0.7-0.5c0.1-0.4-0.3-1.1-0.9-1C56.1,43.9,56.4,43.7,56.6,43.4z"/>
				<path class="st2" d="M93,45.5c-0.2,0-0.4-0.2-0.6-0.3c0.1,0,0.3,0,0.4-0.1c0-0.2,0-0.3-0.1-0.3c-0.5-0.1-0.9,0.6-0.6,1.1
					c0.1,0.2,0.5,0.3,0.7,0.1c0.4-0.3,0.6-1,1.1-1.1c0.5,0,1.1,0.8,0.8,1.4c-0.2,0.3-0.7,0.3-0.7,1c-0.1-0.1-0.1-0.4-0.2-0.5
					c0-0.1-0.1-0.1-0.2-0.2c0,0-0.2-0.1-0.1-0.2c0.5,0.3,1-0.9,0.4-0.8c-0.1,0-0.2,0.2-0.3,0.3c-0.2,0.3-0.5,0.7-0.8,0.9
					c-0.7,0.4-1.2-0.3-1.3-0.9c-0.1-0.5,0.1-1.1,0.4-1.3c0.3-0.2,1.1-0.4,1.2,0.1c0.1,0.3-0.1,0.5-0.3,0.6
					C92.9,45.4,93,45.5,93,45.5z"/>
				<path class="st2" d="M57.6,46.5c0.2,0.3,0.3,0.6,0.5,0.9c-0.6,0.1-0.9,0.6-1.1,1.2c-0.2,0.4-1.3,0.3-0.9-0.4
					c0.1-0.1,0.3,0,0.4,0.1c0,0.1-0.2,0-0.3,0.1c0.1,0.3,0.5,0.1,0.5-0.1c0-0.2-0.3-0.5-0.6-0.5c-0.2,0-0.4,0.3-0.3,0.7
					c0.1,0.3,0.4,0.5,0.7,0.5c0.2,0,0.3-0.1,0.5-0.3c0.4-0.3,0.9-0.6,1.3-0.9c0.2,0.3,0.3,0.6,0.5,0.9c-0.9,0.1-1.5,0.4-2.1,0.9
					c0,0.1,0.1,0.2,0,0.2c-0.7,0.1-1.6-0.7-1.6-1.5c0-0.7,0.9-1.1,1.5-0.6C57.1,47.3,57.4,47,57.6,46.5z"/>
				<path class="st2" d="M92.2,48.6c0-0.2,0.4-0.4,0.4-0.7c0-0.1-0.2-0.3-0.4-0.3c-0.1,0.1-0.1,0.1-0.1,0.3c0,0.1,0.2,0.1,0.2,0.1
					c-0.1,0.1-0.2,0.3-0.3,0.3c-0.3-0.1-0.8-0.7-0.4-1.1c0.1,0,0.2,0.1,0.3,0c0.1-0.9-1-0.6-0.9,0.2c0.1,0.4,0.4,0.6,0.5,0.9
					c-0.2,0-0.4-0.2-0.7-0.1c0,0.3,0.2,0.4,0.3,0.6c-0.4,0.1-0.8-0.1-0.8-0.4c-0.2,0.1-0.2,0.3-0.3,0.5c-0.1,0.2-0.3,0.3-0.3,0.5
					c1.1-0.2,2.2,0.1,2.7,0.7c0.2-0.4,0.4-0.8,0.7-1.1C92.7,49.2,92.2,49,92.2,48.6z M91.4,49c0-0.2,0.1-0.4,0.3-0.4
					c0.2,0.2,0.6,0.3,0.6,0.6C92,49.3,91.7,49.1,91.4,49z"/>
				<path class="st2" d="M91.8,51.6c-0.9-0.4-1.7-1-2.2-1.8c-0.2,0.3-0.4,0.6-0.5,0.9c0.5,0,1,0.2,1.1,0.5c0.1,0.4-0.1,0.8-0.4,0.9
					c-0.6,0.2-1-0.4-0.8-1c0.1-0.1,0.2-0.1,0.3,0c0.1,0.2-0.2,0.4,0,0.6c0.5,0.2,0.5-0.5,0.3-0.7c-0.1-0.1-0.4-0.1-0.5-0.1
					c-0.3,0-0.6,0.3-0.7,0.7c-0.1,0.7,0.7,1.3,1.3,1.1c-0.1,0.7,0.7,1,1.2,0.7c0.4-0.3,0.7-1,0.7-1.4C91.7,51.8,91.9,51.6,91.8,51.6
					z M90.7,52.9c-0.7,0-0.6-1.1,0.1-1.1C91.5,51.7,91.3,52.9,90.7,52.9z"/>
				<path class="st2" d="M61,52.5c-0.4,0-0.7,0.1-1,0.2c0.1-0.2,0.3-0.3,0.3-0.6c-0.2-0.1-0.5,0.1-0.7,0c0.1-0.3,0.3-0.6,0.7-0.6
					c-0.2-0.3-0.5-0.7-0.7-1c-0.3,1.1-0.8,1.9-1.7,2.3c0.3,0.3,0.5,0.6,0.8,1c0-0.2,0.2-0.4,0.4-0.6c0.1-0.1,0.3-0.2,0.4-0.1
					c0.3,0.1,0.2,0.6,0.5,0.6c0.2,0,0.6-0.3,0.2-0.5c-0.1,0-0.1,0.1-0.2,0.2c-0.1-0.1-0.2-0.3-0.2-0.4c0.3-0.3,1-0.4,1.2,0
					c0,0.1-0.1,0.2-0.1,0.3c0.2,0.2,0.6,0.1,0.7-0.1C61.7,53,61.4,52.6,61,52.5z M59,53.2c0-0.4,0.4-0.6,0.5-0.9
					c0.2,0,0.3,0.2,0.3,0.4C59.6,52.9,59.4,53.1,59,53.2z"/>
				<path class="st2" d="M88.6,54.4c0-0.2,0.5-0.3,0.5-0.6c0-0.2-0.4-0.5-0.5-0.1c0,0.1,0.1,0.1,0.2,0.2c0,0-0.1,0.1-0.1,0.2
					c-0.2,0.2-0.2,0.1-0.4-0.1c-0.2-0.3-0.3-0.8,0-1c0,0.1,0.2,0.1,0.3,0.1c0.1-0.1,0.1-0.3,0.1-0.4c-0.3-0.5-0.9-0.1-0.9,0.4
					c0,0.4,0.2,0.7,0.3,1c-0.2,0-0.4-0.3-0.7-0.2c0,0.3,0.2,0.4,0.2,0.7c-0.4,0-0.7-0.2-0.7-0.6c-0.2,0.3-0.6,0.6-0.8,0.9
					c1.1,0,2.1,0.4,2.6,1.2c0.2-0.1,0.3-0.3,0.4-0.5c0.1-0.2,0.3-0.3,0.5-0.5C89,55,88.7,54.8,88.6,54.4z M87.7,54.5
					c0-0.2,0.2-0.3,0.3-0.3c0.2,0,0.6,0.5,0.6,0.7C88.3,55,88,54.7,87.7,54.5z"/>
				<path class="st2" d="M61.8,53.3c0.6,0.6,1,1.2,1.6,1.8c-0.5,0.1-0.9,0.3-1.2,0.6c-0.4,0.3-0.7,0.8-0.8,1.4
					c-0.1,0-0.1-0.1-0.2-0.2c-0.2-0.2-0.5-0.4-0.6-0.7c0.9-0.2,1.4-0.8,1.8-1.5c-0.1-0.3-0.1-0.6-0.4-0.7c-0.3,0-0.6,0.4-0.7,0.7
					c-0.2-0.1-0.2-0.3-0.2-0.5C61.1,54,61.8,53.8,61.8,53.3z"/>
				<path class="st2" d="M85.8,55c0.2,0.8,0.8,1.3,1.4,1.8c0.1,0,0.1-0.1,0.2-0.1c0.3,0.7-0.3,1.7-0.9,1.9c-0.8,0.2-1.5-0.6-1.1-1.3
					c-0.4-0.3-0.7-0.5-1.3-0.6c0.2-0.3,0.5-0.5,0.7-0.7c0.2,0.5,0.7,0.7,1.5,0.7c0.4,0.1,0.7,1.1-0.1,1c-0.1-0.1-0.1-0.4,0-0.5
					c0.2,0,0.1,0.2,0.2,0.2c0.1-0.1,0.1-0.4-0.1-0.4c-0.4,0-0.5,0.1-0.5,0.3c-0.2,0.7,0.7,0.8,0.9,0.4c0.1-0.1,0.2-0.4,0.1-0.7
					c-0.1-0.2-0.5-0.5-0.8-0.7c-0.1-0.1-0.2-0.2-0.4-0.3c-0.1-0.1-0.4-0.2-0.4-0.3c0-0.1,0.3-0.3,0.3-0.4
					C85.6,55.2,85.7,55.1,85.8,55z"/>
				<path class="st2" d="M63.6,55.4c0.6,0.6,1.1,1.1,1.7,1.8c-1,0.2-1.7,1.1-1.9,2.1c-0.3-0.2-0.6-0.6-0.8-0.8
					c0.8-0.3,1.3-0.8,1.7-1.6c-0.1-0.3-0.1-0.6-0.4-0.6c-0.3,0-0.6,0.4-0.7,0.7c-0.6-0.4,0.1-1,0.4-1.3
					C63.6,55.5,63.6,55.4,63.6,55.4z"/>
				<path class="st2" d="M83.9,59.1c0.1-0.2,0.6-0.3,0.6-0.5c0-0.3-0.4-0.5-0.5-0.1c0,0.1,0.1,0.1,0.2,0.2c-0.1,0.1-0.2,0.2-0.4,0.2
					c-0.3-0.3-0.5-1,0-1.2c0.1,0,0.1,0.1,0.3,0.1c0.1-0.1,0.1-0.3,0.1-0.4c-0.2-0.4-0.9-0.2-1,0.2c-0.1,0.5,0.2,0.8,0.2,1.2
					c-0.2-0.1-0.4-0.3-0.7-0.3c-0.1,0.3,0.2,0.5,0.1,0.7c-0.4-0.1-0.6-0.3-0.6-0.7c-0.3,0.3-0.6,0.5-0.9,0.7
					c0.6,0.1,1.1,0.3,1.5,0.6c0.3,0.2,0.7,0.5,0.8,1c0.3-0.3,0.6-0.6,1-0.8C84.2,59.8,84,59.5,83.9,59.1z M83,59.1
					c0.1-0.1,0.2-0.3,0.5-0.2c0.1,0.3,0.4,0.4,0.4,0.8C83.5,59.7,83.2,59.3,83,59.1z"/>
				<path class="st2" d="M65.5,57.3c0.3,0.3,0.7,0.6,0.9,0.9c-1,0.2-1.7,1.1-1.9,2.1c-0.3-0.2-0.7-0.5-0.8-0.8
					C64.7,59.2,65.3,58.5,65.5,57.3z"/>
				<path class="st2" d="M67.1,58.6c0.4,0.1,0.6,0.3,0.9,0.4c-0.1,0.1-0.2,0.2-0.3,0.3c-0.3,0.4-0.5,1.4-0.5,2.1c0,0.2,0,0.5,0,0.7
					c-0.3-0.2-0.5-0.5-0.9-0.6c0.6-0.4,0.7-1.3,0.8-2.2c-0.2,0-0.6,0.2-0.9,0.3c-0.2,0.2-0.6,0.4-0.6,0.7c0,0.2,0.4,0.1,0.5,0.4
					c-0.3,0.6-1.1,0.2-1.1-0.4c0-0.3,0.6-0.8,0.9-1c0.4-0.3,0.9-0.4,1.3-0.5C67.1,58.9,67.1,58.7,67.1,58.6z"/>
				<path class="st2" d="M83.2,60.7c0.3,0.2,0.2,0.8-0.1,0.9C82.8,61.5,83,60.8,83.2,60.7z"/>
				<path class="st2" d="M88.6,13.6c-0.1,0.2-0.4,0.5-0.9,0.4c-0.5-0.1-0.9-0.8-0.9-1.6c0.1-0.8,1.1-1.8,2.2-1.2
					c0.3,0.2,0.7,0.7,0.6,1.3c-0.1,0.4-0.8,1.3-1.5,0.7c-0.3-0.3-0.4-1.4,0.4-1c-0.1,0.2-0.3,0.1-0.3,0.3c0,0.1,0.2,0.2,0.3,0.2
					c0.1,0,0.4-0.1,0.4-0.5c0-0.5-0.6-0.6-1.1-0.4c-0.3,0.1-0.6,0.5-0.7,1C87.1,13.4,87.7,14.1,88.6,13.6z"/>
				<path class="st2" d="M63,12.1c-1.2-0.1-2-0.5-2.5-1.3c-0.2,0.4-0.5,0.7-0.9,0.9c0.1,0,0.2,0,0.3,0c0.2,0.1,0.6,0.4,0.6,0.7
					c0,0.2-0.5,0.4-0.5,0.6c0,0.2,0.5,0.5,0.5,0.1c0-0.1-0.1-0.1-0.2-0.2c0.1-0.1,0.2-0.2,0.3-0.3c0.3,0.2,0.6,0.9,0.2,1.2
					c-0.1,0-0.1-0.1-0.3-0.1c-0.2,0.3,0,0.6,0.3,0.6c0.2,0,0.5-0.2,0.6-0.5c0.1-0.4-0.2-0.9-0.3-1.2c0.2,0.1,0.4,0.3,0.7,0.2
					c0-0.3-0.2-0.4-0.2-0.7c0.4,0.1,0.6,0.3,0.7,0.6c0.2-0.2,0.4-0.5,0.6-0.7C62.9,12.2,63.1,12.1,63,12.1z M60.5,11.9
					c0.4-0.1,0.6,0.3,0.9,0.4C61.2,13,60.5,12.2,60.5,11.9z"/>
			</g>
		</g>
		<g>
			<g>
				<path class="st3" d="M102.9,43.8c0.4-2.2,1.5-3.8,3-4.7c2,1.9,5,3.4,8.7,3.4c4.3,0,6.2-1.9,6.2-4.6c0-2.2-1-3.9-7-5.4
					c-5.2-1.3-9.9-3.5-9.9-10.2c0-5.9,4.5-9.9,11.3-9.9c5.3,0,8.7,1.7,10.7,3.4c-0.2,1.9-1.3,4-2.8,4.9c-2-1.5-4.6-2.7-8.2-2.7
					c-3.5,0-5.5,1.7-5.5,4c0,2.2,1,3.4,6.5,4.9c6.3,1.6,10.4,4.3,10.4,10.5c0.1,6.9-4.6,10.8-11.9,10.8
					C108.4,48,104.8,45.7,102.9,43.8z"/>
				<path class="st3" d="M148.9,32.5v13.1c-2.8,1.4-7,2.4-11,2.4c-7,0-10.5-3-10.5-7.8c0-5,4.3-7.6,10-7.6c2.3,0,4.2,0.3,5.9,0.9
					v-1.4c0-2.9-1.9-4.6-5.7-4.6c-2.9,0-5.3,1.1-6.6,2.1c-1.4-0.7-2.4-2-2.6-3.7c1.4-1.4,5-3.4,9.6-3.4
					C144.3,22.6,148.9,25.4,148.9,32.5z M138.4,43.6c1.8,0,3.5-0.3,4.9-0.8v-5.2c-1.6-0.7-3.4-1-5.4-1c-2.8,0-4.7,1-4.7,3.2
					C133.2,42.1,134.9,43.6,138.4,43.6z"/>
				<path class="st3" d="M174.3,35.1c0,8-5.3,12.9-13.3,12.9c-3.8,0-7.1-0.8-10.1-2.3V12.4c1-0.2,1.9-0.3,2.9-0.3
					c1,0,1.9,0.1,2.8,0.3v11.5c1.5-0.7,3.2-1.1,5.2-1.1C168.9,22.8,174.3,27.3,174.3,35.1z M168.5,35.3c0-4.3-2.6-7.4-7.2-7.4
					c-1.8,0-3.4,0.4-4.8,1.1v13.1c1.6,0.6,3.1,0.9,4.7,0.9C165.9,43,168.5,40,168.5,35.3z"/>
				<path class="st3" d="M196.8,32.5v13.1c-2.8,1.4-7,2.4-11,2.4c-7,0-10.5-3-10.5-7.8c0-5,4.3-7.6,10-7.6c2.3,0,4.2,0.3,5.9,0.9
					v-1.4c0-2.9-1.9-4.6-5.7-4.6c-2.9,0-5.3,1.1-6.6,2.1c-1.4-0.7-2.4-2-2.6-3.7c1.4-1.4,5-3.4,9.6-3.4
					C192.2,22.6,196.8,25.4,196.8,32.5z M186.3,43.6c1.8,0,3.5-0.3,4.9-0.8v-5.2c-1.6-0.7-3.4-1-5.4-1c-2.8,0-4.7,1-4.7,3.2
					C181.1,42.1,182.8,43.6,186.3,43.6z"/>
				<path class="st3" d="M213.7,23.3c0,1.9-0.5,3.7-1.5,5.1c-1.2-0.3-2.4-0.5-3.6-0.5c-1.9,0-3.4,0.4-4.5,1v18.8
					c-0.9,0.2-1.9,0.3-2.9,0.3c-1,0-1.9-0.1-2.9-0.3V26.1c1.8-1.7,5.5-3.5,10-3.5C210.5,22.6,212.2,22.8,213.7,23.3z"/>
				<path class="st3" d="M235.2,32.5v13.1c-2.8,1.4-7,2.4-11,2.4c-7,0-10.5-3-10.5-7.8c0-5,4.3-7.6,10-7.6c2.3,0,4.2,0.3,5.9,0.9
					v-1.4c0-2.9-1.9-4.6-5.7-4.6c-2.9,0-5.3,1.1-6.6,2.1c-1.4-0.7-2.4-2-2.6-3.7c1.4-1.4,5-3.4,9.6-3.4
					C230.6,22.6,235.2,25.4,235.2,32.5z M219.2,19l7.9-7.4c1.8,1,2.7,2.5,3.3,4.5l-9.5,5.2C219.9,20.7,219.4,20,219.2,19z
					 M224.7,43.6c1.8,0,3.5-0.3,4.9-0.8v-5.1c-1.6-0.7-3.4-1-5.4-1c-2.8,0-4.7,1-4.7,3.2C219.5,42.2,221.2,43.6,224.7,43.6z"/>
			</g>
			<g>
				<path class="st4" d="M136.4,55.2c-0.3,0-0.5,0-0.6,0v-1.5c0.2,0,0.4,0,0.6,0c0.7,0,1,0.3,1,0.8
					C137.5,54.9,137.2,55.2,136.4,55.2 M136.4,53.2c-0.5,0-0.8,0.1-1.1,0.1v3.7c0.1,0,0.2,0,0.2,0c0.1,0,0.2,0,0.2,0v-1.4
					c0.2,0,0.4,0,0.6,0c1,0,1.5-0.6,1.5-1.3C138,53.7,137.5,53.2,136.4,53.2z"/>
				<path class="st4" d="M141.2,54.3c-0.2-0.1-0.4-0.1-0.6-0.1c-0.5,0-0.9,0.2-1.1,0.4v2.5c0.1,0,0.2,0,0.2,0c0.1,0,0.2,0,0.2,0
					v-2.3c0.2-0.1,0.4-0.1,0.6-0.1c0.2,0,0.4,0,0.5,0.1C141.2,54.6,141.2,54.4,141.2,54.3"/>
				<path class="st4" d="M142.8,55.4c0.1-0.4,0.4-0.8,0.8-0.8c0.5,0,0.7,0.4,0.7,0.8H142.8z M144.9,55.4c0-0.7-0.5-1.2-1.2-1.2
					c-0.8,0-1.4,0.6-1.4,1.5c0,0.9,0.6,1.5,1.4,1.5c0.5,0,0.9-0.2,1.1-0.4c0-0.1-0.1-0.3-0.3-0.3c-0.2,0.1-0.4,0.3-0.8,0.3
					c-0.5,0-0.9-0.4-0.9-0.9h2.1C144.9,55.7,144.9,55.6,144.9,55.4z"/>
				<path class="st4" d="M147.5,53.1c-0.4,0-0.9,0.3-0.9,1v0.2h-0.4c0,0.1,0,0.1,0,0.2c0,0.1,0,0.1,0,0.2h0.4v2.4c0.1,0,0.1,0,0.2,0
					c0.1,0,0.2,0,0.2,0v-2.4h0.7c0-0.1,0-0.1,0-0.2c0-0.1,0-0.1,0-0.2h-0.7V54c0-0.4,0.2-0.5,0.5-0.5c0.2,0,0.3,0.1,0.5,0.2
					c0.1-0.1,0.2-0.2,0.3-0.3C148.2,53.3,147.9,53.1,147.5,53.1"/>
				<path class="st4" d="M149.5,55.4c0.1-0.4,0.4-0.8,0.8-0.8c0.5,0,0.7,0.4,0.7,0.8H149.5z M151.6,55.4c0-0.7-0.5-1.2-1.2-1.2
					c-0.8,0-1.4,0.6-1.4,1.5c0,0.9,0.6,1.5,1.4,1.5c0.5,0,0.9-0.2,1.1-0.4c0-0.1-0.1-0.3-0.3-0.3c-0.2,0.1-0.4,0.3-0.8,0.3
					c-0.5,0-0.9-0.4-0.9-0.9h2.1C151.6,55.7,151.6,55.6,151.6,55.4z"/>
				<path class="st4" d="M153.4,57.1c0.1,0,0.2,0,0.2,0v-2.8c-0.1,0-0.2,0-0.2,0c-0.1,0-0.2,0-0.2,0v2.8
					C153.3,57.1,153.4,57.1,153.4,57.1 M153.4,53.8c0.2,0,0.3-0.1,0.3-0.3c0-0.2-0.1-0.3-0.3-0.3c-0.2,0-0.3,0.1-0.3,0.3
					C153.1,53.6,153.3,53.8,153.4,53.8z"/>
				<path class="st4" d="M157.2,56.5c-0.1,0.1-0.3,0.2-0.5,0.2c-0.3,0-0.5-0.1-0.5-0.6v-1.4h1.1c0-0.1,0-0.1,0-0.2
					c0-0.1,0-0.1,0-0.2h-1.1v-0.7c-0.1,0-0.2,0-0.2,0c-0.1,0-0.2,0-0.2,0v0.7h-0.5c0,0.1,0,0.1,0,0.2c0,0.1,0,0.1,0,0.2h0.5v1.5
					c0,0.7,0.4,0.9,1,0.9c0.3,0,0.6-0.2,0.8-0.3C157.4,56.7,157.3,56.6,157.2,56.5"/>
				<path class="st4" d="M161,54.3c-0.1,0-0.2,0-0.2,0v2.3c-0.2,0.1-0.4,0.1-0.7,0.1c-0.7,0-0.8-0.3-0.8-0.8v-1.6
					c-0.1,0-0.2,0-0.2,0s-0.2,0-0.2,0v1.8c0,0.7,0.4,1.1,1.2,1.1c0.6,0,0.9-0.1,1.3-0.3v-2.6C161.2,54.3,161.1,54.3,161,54.3"/>
				<path class="st4" d="M164.7,54.3c-0.2-0.1-0.4-0.1-0.6-0.1c-0.5,0-0.9,0.2-1.1,0.4v2.5c0.1,0,0.2,0,0.2,0c0.1,0,0.2,0,0.2,0
					v-2.3c0.2-0.1,0.4-0.1,0.6-0.1c0.2,0,0.4,0,0.5,0.1C164.7,54.6,164.7,54.4,164.7,54.3"/>
				<path class="st4" d="M166.3,56.2c0-0.3,0.3-0.4,0.7-0.4c0.3,0,0.6,0,0.8,0.2v0.7c-0.2,0.1-0.4,0.1-0.7,0.1
					C166.6,56.7,166.3,56.5,166.3,56.2 M167,54.2c-0.5,0-0.9,0.2-1.1,0.4c0,0.1,0.1,0.3,0.2,0.3c0.2-0.1,0.5-0.3,0.8-0.3
					c0.5,0,0.8,0.2,0.8,0.6v0.2c-0.2-0.1-0.5-0.1-0.8-0.1c-0.7,0-1.2,0.3-1.2,0.9c0,0.5,0.3,0.9,1.2,0.9c0.4,0,0.9-0.1,1.2-0.3v-1.6
					C168.2,54.5,167.7,54.2,167,54.2z"/>
				<path class="st4" d="M175.2,53.2c-0.1,0-0.1,0-0.2,0l-1.2,2.8l-0.1,0.2l-0.1-0.2l-1.3-2.8c-0.1,0-0.1,0-0.2,0
					c-0.1,0-0.2,0-0.3,0.1v3.8c0.1,0,0.2,0,0.2,0c0.1,0,0.2,0,0.2,0v-2.3l0-0.6l0.1,0.2l1.1,2.3c0.1,0,0.2,0,0.2,0
					c0.1,0,0.1,0,0.2,0l1.1-2.3l0.1-0.2l0,0.6v2.3c0.1,0,0.2,0,0.2,0c0.1,0,0.1,0,0.2,0v-3.8C175.4,53.3,175.3,53.2,175.2,53.2"/>
				<path class="st4" d="M179.5,54.3c-0.1,0-0.2,0-0.2,0v2.3c-0.2,0.1-0.4,0.1-0.7,0.1c-0.7,0-0.8-0.3-0.8-0.8v-1.6
					c-0.1,0-0.2,0-0.2,0s-0.2,0-0.2,0v1.8c0,0.7,0.4,1.1,1.2,1.1c0.6,0,0.9-0.1,1.3-0.3v-2.6C179.7,54.3,179.6,54.3,179.5,54.3"/>
				<path class="st4" d="M182.8,54.2c-0.5,0-1,0.2-1.3,0.4v2.5c0.1,0,0.2,0,0.2,0c0.1,0,0.2,0,0.2,0v-2.2c0.2-0.1,0.4-0.2,0.8-0.2
					c0.5,0,0.8,0.2,0.8,0.9v1.6c0.1,0,0.2,0,0.2,0c0.1,0,0.2,0,0.2,0v-1.7C184.1,54.7,183.7,54.2,182.8,54.2"/>
				<path class="st4" d="M186.1,57.1c0.1,0,0.2,0,0.2,0v-2.8c-0.1,0-0.2,0-0.2,0c-0.1,0-0.2,0-0.2,0v2.8
					C185.9,57.1,186,57.1,186.1,57.1 M186.1,53.8c0.2,0,0.3-0.1,0.3-0.3c0-0.2-0.1-0.3-0.3-0.3c-0.2,0-0.3,0.1-0.3,0.3
					C185.7,53.6,185.9,53.8,186.1,53.8z"/>
				<path class="st4" d="M189.4,57.2c0.4,0,0.8-0.2,1-0.4c0-0.1-0.1-0.3-0.3-0.3c-0.1,0.1-0.3,0.3-0.7,0.3c-0.7,0-1-0.5-1-1
					c0-0.5,0.3-1.1,1-1.1c0.3,0,0.5,0.1,0.7,0.2c0.1-0.1,0.2-0.2,0.3-0.3c-0.2-0.2-0.5-0.3-0.9-0.3c-0.8,0-1.4,0.6-1.4,1.5
					C187.9,56.6,188.5,57.2,189.4,57.2"/>
				<path class="st4" d="M192.1,57.1c0.1,0,0.2,0,0.2,0v-2.8c-0.1,0-0.2,0-0.2,0c-0.1,0-0.2,0-0.2,0v2.8
					C192,57.1,192,57.1,192.1,57.1 M192.1,53.8c0.2,0,0.3-0.1,0.3-0.3c0-0.2-0.1-0.3-0.3-0.3c-0.2,0-0.3,0.1-0.3,0.3
					C191.8,53.6,191.9,53.8,192.1,53.8z"/>
				<path class="st4" d="M195.3,56.7c-0.3,0-0.5-0.1-0.7-0.2l0-1.7c0.2-0.1,0.4-0.2,0.7-0.2c0.6,0,1,0.4,1,1
					C196.3,56.3,195.9,56.7,195.3,56.7 M195.3,54.2c-0.5,0-0.9,0.2-1.2,0.4l0,3.6c0.1,0,0.2,0,0.2,0c0.1,0,0.2,0,0.2,0V57
					c0.2,0.1,0.4,0.1,0.7,0.1c0.7,0,1.4-0.5,1.4-1.5C196.8,54.7,196.1,54.2,195.3,54.2z"/>
				<path class="st4" d="M198.6,56.2c0-0.3,0.3-0.4,0.7-0.4c0.3,0,0.6,0,0.8,0.2v0.7c-0.2,0.1-0.4,0.1-0.7,0.1
					C198.9,56.7,198.6,56.5,198.6,56.2 M199.3,54.2c-0.5,0-0.9,0.2-1.1,0.4c0,0.1,0.1,0.3,0.2,0.3c0.2-0.1,0.5-0.3,0.8-0.3
					c0.5,0,0.8,0.2,0.8,0.6v0.2c-0.2-0.1-0.5-0.1-0.8-0.1c-0.7,0-1.2,0.3-1.2,0.9c0,0.5,0.3,0.9,1.2,0.9c0.4,0,0.9-0.1,1.2-0.3v-1.6
					C200.5,54.5,200,54.2,199.3,54.2z"/>
				<path class="st4" d="M202.5,57.1c0.1,0,0.2,0,0.2,0v-3.9c-0.1,0-0.2,0-0.2,0c-0.1,0-0.2,0-0.2,0v3.9
					C202.3,57.1,202.4,57.1,202.5,57.1"/>
			</g>
		</g>
	</g>
	<g>
		<text transform="matrix(1 0 0 1 6.078 25.6042)"><tspan x="0" y="0" class="st5 st6 st7">Secretaria de</tspan><tspan x="-1.7" y="8.5" class="st5 st8 st9">Cultura e</tspan><tspan x="0.9" y="17" class="st5 st8 st9">Turismo</tspan></text>
	</g>
</g>
</svg>
